<?xml version="1.0" encoding="UTF-8"?>
<svg id="Layer_1" xmlns="http://www.w3.org/2000/svg" version="1.1" viewBox="0 0 595.28 841.89">
  <!-- Generator: Adobe Illustrator 29.0.1, SVG Export Plug-In . SVG Version: 2.1.0 Build 192)  -->
  <defs>
    <style>
      .st0 {
        fill: #4d59a6;
      }

      .st1 {
        fill: #1f2020;
      }

      .st2 {
        fill: #e2c7ad;
      }

      .st3 {
        fill: #dcdddc;
      }

      .st4 {
        fill: #0e0b0b;
      }

      .st5 {
        fill: #261e1d;
      }

      .st6 {
        fill: #cdcbcc;
      }

      .st7 {
        fill: #11112b;
      }

      .st8 {
        fill: #f1af7a;
      }

      .st9 {
        fill: #231f20;
      }

      .st10 {
        fill: #c8cccc;
      }

      .st11 {
        fill: #1a1a19;
      }

      .st12 {
        fill: #505ca8;
      }

      .st13, .st14 {
        fill: #ef843a;
      }

      .st15 {
        fill: #e9853f;
      }

      .st16 {
        fill: #ea8b4c;
      }

      .st17 {
        fill: #eab891;
      }

      .st18 {
        fill: #de482d;
      }

      .st19 {
        fill: #d7d5d8;
      }

      .st20 {
        fill: #e9a06e;
      }

      .st21 {
        fill: #080916;
      }

      .st22 {
        fill: #eab790;
      }

      .st23 {
        fill: #0b0b18;
      }

      .st24 {
        fill: #ddbea7;
      }

      .st25 {
        fill: #ec8d48;
      }

      .st26 {
        fill: #151515;
      }

      .st27 {
        fill: #4e5aa7;
      }

      .st28 {
        fill: #de482e;
      }

      .st29 {
        fill: #e3bda1;
      }

      .st30 {
        fill: #080808;
      }

      .st31 {
        fill: #0a0917;
      }

      .st32 {
        fill: #1f1f1f;
      }

      .st33 {
        fill: #907fbb;
      }

      .st34 {
        fill: #ea853c;
      }

      .st35 {
        fill: #c2c5c4;
      }

      .st14 {
        stroke: #ef843a;
        stroke-miterlimit: 10;
        stroke-width: .5px;
      }

      .st36 {
        fill: #0d0b0e;
      }

      .st37 {
        fill: #ee843a;
      }

      .st38 {
        fill: #e5833e;
      }

      .st39 {
        fill: #191919;
      }

      .st40 {
        fill: #cccccb;
      }

      .st41 {
        fill: #cecccc;
      }

      .st42 {
        fill: #080908;
      }

      .st43 {
        fill: #0c0c14;
      }

      .st44 {
        fill: #f6f4f4;
      }

      .st45 {
        fill: #c4c3c3;
      }
    </style>
  </defs>
  <path class="st44" d="M378.51,455.48l2.6.64c4.84,6.84,4.67,9.64-.52,8.39.87,1.22.97,1.4.03,3.02.81,1.66.82,3.67.06,6.03,2.94.34,2.64,3.08.04,4.02h-1c-2.27-1.14-4.91-.93-7.92.62-2.91.09-6.88.17-5.08-3.5l-.58-7.44c-1.32-.72-1.09-1.25.49-1.61-.79-.61-.56-1.22-.02-2.01-5.37,1.67-9.15-2.54-3.02-2.99,1.57-2.31,4.5-3.59,8.8-3.82,2.64-1.81,4.67-2.26,6.11-1.35Z"/>
  <path class="st12" d="M391.6,468.42c-.33,3.79.41,7.38,1.12,11.05,1.22,1.04,9.49-5.27,11.48-2.18,1.18,3.2,1.14,5.55-2.47,6.11-6.67-.92-13.32-1.19-19.96-.81-.09-.24-.99-4.53-1.05-5.02-.04-.39-.07-3.68-.04-4.02l.85-6.1c.39-.38,10.25-.82,10.07.97Z"/>
  <path class="st27" d="M356.79,478.82c-1.8-1.59-.82-12.44-.26-12.79.4-.25,9.09-.16,9.47.13l.73,8.55c3.46,5.5,12.43-4.68,13,2.89.19,2.61-.73,3.81-2.95,4.05-6.46-.95-12.94-1.18-19.44-.7l-.54-2.12Z"/>
  <path class="st36" d="M380.44,449.42c1.02.67,4.13,3.13,4.52,3.99,2.03,4.4-1.41,12.69,7.6,10.98.83,1.67-.91,3.46-.96,4.03l-9.99-.91c.99,2.24-.82,4.86-.93,6.05-.15-1.99.15-4.06-.06-6.03.36-1.05.58-2.04-.03-3.02.8-.28,2.72.59,2.98-.53-2.06-2.6-3.5-5.61-5.07-8.5-2.7.82-3.69-.65-2.02-3-1.41,1.35-2.02.75-1.01-1-2.96-.89-1.78-3.71.96-4.03,1.62-1.6,2.96-.94,4.01,1.97Z"/>
  <path class="st11" d="M334.73,366.43c4.38,17.32,10.72,34.08,16.02,51.11.46,1.47.2,3.09.49,4.02-3.65-5.08-16.96-46.97-18.5-55.12.55-1.92,1.42-1.92,1.99-.02Z"/>
  <path class="st37" d="M359.39,439.58c3.3,1.58,4.33,4.58,3.08,9.02l2.09,1.88c0,5.68,7.64,5.15,10.6,1.62l1.32.39c.51.84,1.13,1.33,2.02,3-4.97,1.85-9.6,4.43-14.91,5.17-3.39.28-3.04-3.47-2.05-6.01-1.28-4.98-2.1-10.8-3.14-15.05.29.11.7-.12,1,0Z"/>
  <path class="st28" d="M332.73,366.45c-.16-.87-1.32-1.69-.9-3.3,1.05-4.03,19.53-8.33,17.83,1.11-2.8-.07-5.51-2.41-8.46-1.64-1.16.3-2.87,3.37-6.48,3.81-.65.08-1.34-.04-1.99.02Z"/>
  <path class="st31" d="M363.59,460.65c.01.16-1.57,1.72-.96,3.02,1.23.19,2.91-.3,3.99-.03-.41.68-.4,1.35.02,2.01-.25,2.93.25,6.09.09,9.05-1.8-2.86-.72-7.68-1.07-8.04s-7.4.34-8.99.09c.52,3.63-.58,8.71.12,12.07-.43-.93-1.86-1.37-2.04-3.55-.28-3.45,1.89-7.36-.11-11.5,6.6,1.66,2.7-5.66,6.9-9.12.44,1.73,1.97,5.05,2.05,6.01Z"/>
  <path class="st25" d="M370.35,437.46c.87.28.86.61,0,1.01,4.5.17,5.84,1.5,4.03,3.98,0,.71-.14,1.38-.52,1.98-.92,1.43-2.52,3.81-5.28,2.46-1.31-.64-1.17-2.32-.17-3.38-2.51.68-3.51-.32-3.02-2.99-1.5,2.67-3.91,2.02-4-.97,2.49-2.05,5.75-1.39,8.96-2.1Z"/>
  <path class="st15" d="M380.44,449.42c-1.2-.79-2.75-1.25-4.01-1.97-.87-.33-.87-.66,0-1.01-1.39-1.57-1.92-3.96-1.58-7.18-2.08.1-3.58-.17-4.49-.8v-1.01c1.09-.24,1.97-.51,2.97-1.03.39-.2.69-.68.99-1.02.3.81,2.52,2.65,3.23,4.3,1.21,2.79,2.27,6.69,2.89,9.72Z"/>
  <path class="st1" d="M358.4,439.59c-2.96-1.09-6.03-14.35-7.16-18.03,4.27,5.94,5.41,10.89,7.16,18.03Z"/>
  <path class="st23" d="M356.79,478.82c.78,3.75,6.39.76,9.48.82,2.89.06,7.75.94,10.5,1.99-6.38.7-12.94-1.05-19.41.25-1.24-.33-.25-2.37-.57-3.06Z"/>
  <path class="st21" d="M401.73,483.4c-4.07.63-8.31-.41-12.31-.51-1.77-.04-6.73,2.12-7.65-.3,6.71-.94,13.42-1.79,19.96.81Z"/>
  <path class="st20" d="M361.39,439.56c1.25.26,2.11.69,4,.97,1.87.91,1.55,2.26-.96,4.03,1.83,2.11.25,3.48-1.96,4.04-.42-1.85-.7-3.82-1.09-5.31-.2-.79-3.11-1-2-3.71.47.17,1.38-.15,1.99-.02Z"/>
  <path class="st32" d="M360.72,372.21c.25,1.75-2.25.97-3.47,1.03-2.49.13-5.01-.01-7.49.06-.47-1.69,1.92-.47,2.06-1.62.18-1.46-1.46-3.66-1.13-5.42,2.15.33,1.36,4.46,3,5.53s5.01.17,7.02.4Z"/>
  <path class="st30" d="M357.33,375.32c4-1.26,7.07,1.84,3.88,2.84-4,1.26-7.07-1.84-3.88-2.84Z"/>
  <path class="st6" d="M380.59,464.5l11,1.4-10.97,1.62c-.04-.37-2.56-2.14-.03-3.02Z"/>
  <path class="st10" d="M366.64,465.65l-10.99-.39,10.97-1.62c2.36.58.03,1.86.02,2.01Z"/>
  <path class="st22" d="M367.46,448.55c-2.17-4.47,6.85-2.75,4,.97l.32,1.63c1.73-2.22,3.19-2.73,3.69.34.03.22.77.61,1.01,1-3.03,5.13-7.96,3.01-12.93,4.14,2.43-3.64-.94-2.75-1.04-3.59-.14-1.21.59-1.65-.04-4.43,1.41-2.8,5.28-.91,4.01,1.97,1.85.42,1.78-.63.98-2.02Z"/>
  <path class="st34" d="M376.42,446.45c-.06.32.06.68,0,1.01-.19,1.18-1.1,3.15-.96,4.03-2.52-1.26-3.23,2.14-3.47,2.04-4.4-1.78-1.56-2.87-.54-4.01-2.01-2.81.81-4.34,2.96-3.05.46-2.77.99-2.53,1.99-.02Z"/>
  <path class="st24" d="M374.39,442.45c1.41,2,1.42,3.34.04,4.02-1.82.74-1.97,1.94-2.96,3.05-1.28-2.32-2.05-2.97-4-.97,1.43.54.45,2.4-.98,2.02-.66-1.01-3.88-1.79-4.01-1.97-.97-1.33,1.75-3.47,1.96-4.04.49-2.22,2.12-3.01,3.98-1.04.78,1.02,1.83,2.58,3.01,2.99-.08-2.28.36-4.22,2.96-4.05Z"/>
  <path class="st8" d="M370.36,438.46c7.34-.83,4.94,1.08,5.19,5.53.07,1.27,1.57-1.47.87,2.45-.61.13-1.54-.16-1.99.02-.04-1.34.02-2.68-.04-4.02-.04-1,.01-2.01-.04-3.01l-3.97,1.04-.03-2.01Z"/>
  <path class="st2" d="M365.39,440.52c3.61.53.69.62,1.6,2.02.45.7,1.25.74,1.42.96l-3.98,1.04c.15-.42-2.28-1.57.96-2.67v-1.36Z"/>
  <path class="st16" d="M367.46,448.55c3.73-.7.38,2.05,1.04,5.02h-1.99c.03-.96-.16-2.04-.03-3,.04-.27.79-1.83.98-2.02Z"/>
  <path class="st39" d="M200.69,368.58c1.94,10.21,14.6,49.29,19.52,56.88-5.76-18.99-12.1-37.81-17.52-56.9-.65.08-1.34-.03-2,.02Z"/>
  <path class="st26" d="M242.27,437.25c-2.68-7.35-5.04-15.7-7.51-23.16-1.3-3.92-8.73-25.58-8.77-27.44-.03-1.62,1.47-2.02,1.78-3.32-2.13-.71-3.59.67-4.98,1.04,1.84.7,2.43,3.15,3.04,4.98,5.33,15.87,9.72,32.15,15.44,47.9.04-.03.79.95,1,0Z"/>
  <path class="st13" d="M240.49,459.15c1.3-.68,2.46-1.09,3.49-1.22-.41-.56-.28-1.52.47-2.68-2.61,4.8-8.35,1.46-12.94,3.12,2.43-3.63-.94-2.74-1.04-3.58-.14-1.21.59-1.64-.04-4.41-.28-.28-.32-.63-.21-1.01-.31-1.53-.56-3.06-.87-4.28-.2-.79-3.11-.99-2-3.7-.29-.11-.71.12-1,0,1.03,4.24,1.91,10.04,3.14,14.99.45,1.78,1.96,4.95,2.05,5.99,1.36-2.47,4.34-3.54,8.94-3.24Z"/>
  <path class="st13" d="M243.98,457.93c-1.03.14-2.19.54-3.49,1.22-4.6-.31-7.58.77-8.94,3.24,5.06-1.16,10.25-1.72,14.92-4.15-1.28.38-2.11.21-2.49-.31Z"/>
  <path class="st13" d="M246.47,458.23c-.89-1.47-.5-1.33-2.02-2.98-.75,1.15-.88,2.12-.47,2.68.94-.13,1.78-.03,2.49.31Z"/>
  <path class="st14" d="M246.47,458.23c-.72-.34-1.55-.43-2.49-.31.38.52,1.22.69,2.49.31Z"/>
  <path class="st18" d="M202.68,368.56c3.6-.43,5.34-3.5,6.48-3.79,2.91-.75,5.71,1.53,8.46,1.64-.16-.93.08-2.04-.03-3-.15-.26.26-1.26-.22-1.77-2.08-2.18-15.76,0-17.29,2.95-1.04,2.02.38,2.81.6,3.99.55-1.92,1.42-1.92,2-.02Z"/>
  <path class="st18" d="M202.68,368.56c-.58-1.9-1.45-1.9-2,.02.66-.05,1.34.06,2-.02Z"/>
  <path class="st25" d="M234.92,444.31c.45.15.94.48,1.45,1.01.78,1.01,1.83,2.57,3.01,2.97-.08-2.27.36-4.2,2.96-4.03-.04-1,.01-2-.04-3l-3.97,1.03-.03-2v-1c-3.21.71-6.48.04-8.97,2.09,1.25.25,2.11.69,4,.96,3.57.52.77.62,1.58,1.97Z"/>
  <path class="st38" d="M238.31,440.29c7.21-1.15,4.6,1.65,6.05,5.95.3.9,2.84,2.67,2.04,4.99,1.01-1.88,1.53-.84,2.01.98.54-5.73-4.71-11.07-6.13-14.96.38,2.15-.43,2.22-1,0-1.3,1.06-.47,1.47-2.97,2.03.87.28.86.61,0,1Z"/>
  <path class="st38" d="M246.4,451.23c.42.04,1.5.69,2.01.98-.48-1.82-.99-2.86-2.01-.98Z"/>
  <path class="st38" d="M242.27,437.25c-.21.96-.96-.02-1,0,.57,2.21,1.38,2.14,1,0Z"/>
  <path class="st38" d="M238.3,439.29v1c.86-.39.87-.73,0-1Z"/>
  <path class="st32" d="M226.35,441.41c-1.58-6.48-2.6-10.5-6.14-15.96,1.06,3.48,2.74,14.71,6.14,15.96Z"/>
  <path class="st5" d="M217.63,366.41c.38,2.23,2.37,5.78,2.15,7.39-.15,1.09-2.38.01-2.09,1.47,2.11-.31,4.24-.53,6.37-.66-4.86-1.14-3.58-6.04-6.47-11.2.58,1.27.59,2.28.03,3Z"/>
  <path class="st5" d="M217.72,375.41l9.98-.59c-1.5.09-2.68.01-3.63-.21-2.13.14-4.26.35-6.37.66,0,.05.01.09.03.14Z"/>
  <path class="st5" d="M217.63,366.41c.56-.73.55-1.73-.03-3,.11.97-.13,2.07.03,3Z"/>
  <path class="st20" d="M230.85,448.24c.61-.81,1.43-1.57,1.54-1.88.15-.41-2.22-1.54.86-2.62-.02-.4,0-.85.1-1.39-1.5,2.66-3.92,2.01-4-.96-.61-.13-1.52.19-2,.02,2.73,1.3,3.88,3.59,3.5,6.84Z"/>
  <path class="st20" d="M229.34,445.1c.31,1.22.56,2.75.87,4.28.1-.37.34-.76.63-1.14.38-3.25-.77-5.54-3.5-6.84-1.12,2.7,1.79,2.9,2,3.7Z"/>
  <path class="st20" d="M233.34,442.34c-.1.54-.12.99-.1,1.39.03-.01.06-.02.1-.04v-1.35Z"/>
  <path class="st20" d="M233.34,442.34c-1.89-.27-2.75-.71-4-.96.09,2.97,2.5,3.62,4,.96Z"/>
  <path class="st42" d="M223.76,378.86c2.74,3.48,10.08-2.64,4.66-2.36-1.32.07-3.74,1.23-4.66,2.36Z"/>
  <path class="st17" d="M233.54,455.65c2.79.72,5.68.76,8.68.16-.31-.38-.24-1.26.21-2.54-.23.12-.92-.2-1.71.33-.54.37.09,2.01-.76,1.69-4.45-1.7-1.5-2.9-.54-4-.23-.26-.38-.53-.47-.8-1.05-1.67-1.75-1.85-3.53-.16,3.73-.7.38,2.04,1.04,5-3.29.65-1.46-1.37-2.02-2.99-.94-2.7-3.84-1.79-4.01-1.96,1.81.73,2.85,2.49,3.11,5.27Z"/>
  <path class="st17" d="M242.43,453.27c-.45,1.28-.52,2.16-.21,2.54.74-.15,1.48-.33,2.23-.56-.63-.69-1.44-1.23-2.02-1.98Z"/>
  <path class="st17" d="M242.22,455.81c-3,.61-5.89.56-8.68-.16-.26-2.78-1.3-4.53-3.11-5.27.63,2.77-.1,3.21.04,4.41.1.84,3.47-.05,1.04,3.58,4.58-1.67,10.33,1.67,12.94-3.12-1.16.81-1.9.95-2.23.56Z"/>
  <path class="st17" d="M244.45,455.25c-.75.23-1.49.41-2.23.56.33.4,1.07.25,2.23-.56Z"/>
  <path class="st34" d="M244.21,450.44c-.61-.86-.74-2.11-.83-2.19-.14-.13-.67.09-1,0-1.61.26-2.1,2.05-2.96,3.03.55.35.65.82.55,1.28.76-1.06,1.46-1.25,2.46.69-1.22-2.03.11-3.45,1.78-2.82Z"/>
  <path class="st34" d="M244.21,450.44c-1.67-.63-2.99.79-1.78,2.82.93-.49,2.19-1.84,2.97-2.03-.53-.08-.91-.4-1.2-.79Z"/>
  <path class="st34" d="M239.97,452.58c-.29.41-.6.94-.93,1.53-.05.09.76-.7.93-1.53Z"/>
  <path class="st34" d="M239.42,451.3c-.17-.3-.32-.56-.47-.8.09.27.24.54.47.8Z"/>
  <path class="st34" d="M239.97,452.58c-.17.83-.98,1.62-.93,1.53.33-.59.64-1.12.93-1.53.1-.46,0-.94-.55-1.28-.96,1.09-3.91,2.29.54,4,.85.32.22-1.32.76-1.69.79-.53,1.49-.21,1.71-.33-1-1.94-1.7-1.75-2.46-.69Z"/>
  <path class="st29" d="M245.37,450.2c.06.37.07.73.03,1.04.1-.3.21-.49.32-.6-.12-.14-.24-.28-.35-.44Z"/>
  <path class="st29" d="M244.55,448.42c-.22-.75-.3-1.53-.19-2.17l-.98,2.01c.46-.21.86-.11,1.17.16Z"/>
  <path class="st29" d="M245.72,450.64c-.11.1-.21.3-.32.6.27-.06.71-.04,1,0-.24-.14-.47-.35-.68-.59Z"/>
  <path class="st29" d="M244.55,448.42c.43.38.71,1.09.83,1.78.11.16.23.31.35.44.22-.21.45-.02.68.59.79-2.32-1.74-4.09-2.04-4.99-.11.65-.02,1.42.19,2.17Z"/>
  <path class="st29" d="M245.72,450.64c.21.24.44.45.68.59-.23-.61-.46-.8-.68-.59Z"/>
  <path class="st29" d="M245.37,450.2c-.35-.52-.64-1.14-.83-1.78-.31-.27-.71-.37-1.17-.16.09.08.22,1.33.83,2.19.39.15.8.4,1.2.79.04-.31.03-.67-.03-1.04Z"/>
  <path class="st29" d="M245.4,451.24c-.4-.39-.81-.65-1.2-.79.28.4.67.71,1.2.79Z"/>
  <path class="st29" d="M244.55,448.42c.18.65.47,1.27.83,1.78-.11-.7-.39-1.41-.83-1.78Z"/>
  <path class="st24" d="M240.52,447.67c.64-.19,1.34-.06,1.86.59-.04-1.33.02-2.67-.04-4,0,.71-.14,1.38-.52,1.97-.36.56-.81,1.04-1.29,1.44Z"/>
  <path class="st24" d="M239.4,448.43s-.09.05-.13.07c.01.01.03.02.04.03.03-.04.06-.07.09-.1Z"/>
  <path class="st24" d="M233.25,448.54c1.37.23,2.41,1.67,1.19,3.8.41-.53.6-1.65.98-2.01-.65-1.39-.22-2.18.58-2.49-.15-.59-.08-1.41.37-2.53l-3.98,1.04c1.09.72,1.23,1.5.87,2.19Z"/>
  <path class="st24" d="M230.43,450.38c-.08-.33-.14-.67-.21-1.01-.11.38-.07.73.21,1.01Z"/>
  <path class="st24" d="M236.37,445.32c-.51-.53-.99-.85-1.45-1.01,0,.02.01.03.02.05.45.7,1.25.74,1.42.96Z"/>
  <path class="st24" d="M236,447.84c.95-.37,2.41-.08,3.27.66.04-.02.09-.05.13-.07.3-.36.7-.63,1.12-.76.48-.4.93-.88,1.29-1.44.39-.59.53-1.26.52-1.97-2.61-.17-3.04,1.76-2.96,4.03-1.19-.41-2.23-1.96-3.01-2.97-.44,1.12-.52,1.94-.37,2.53Z"/>
  <path class="st24" d="M233.25,448.54c.37-.69.23-1.47-.87-2.19-.11.31-.93,1.06-1.54,1.88-.08.68-.2,1.38-.42,2.15.55-1.48,1.78-2.01,2.82-1.84Z"/>
  <path class="st24" d="M230.22,449.38c.07.34.14.67.21,1.01.22-.76.34-1.47.42-2.15-.29.38-.53.77-.63,1.14Z"/>
  <path class="st24" d="M239.31,448.53s-.03-.02-.04-.03c-1.49.73-2.94.62-3.27-.66-.81.31-1.23,1.1-.58,2.49,1.78-1.69,2.48-1.51,3.53.16-.24-.71-.05-1.42.36-1.97Z"/>
  <path class="st24" d="M234.44,452.35c1.23-2.13.18-3.57-1.19-3.8-.45.84-1.65,1.55-2.82,1.84.17.17,3.07-.73,4.01,1.96Z"/>
  <path class="st24" d="M239.27,448.5c-.86-.74-2.33-1.02-3.27-.66.33,1.27,1.78,1.38,3.27.66Z"/>
  <path class="st24" d="M233.25,448.54c-1.04-.17-2.28.36-2.82,1.84,1.17-.29,2.38-1,2.82-1.84Z"/>
  <path class="st24" d="M242.38,448.26c-.52-.65-1.22-.78-1.86-.59-.36.3-.74.56-1.12.76-.03.03-.06.07-.09.1.71.64.98,1.6.11,2.76.86-.98,1.36-2.78,2.96-3.03Z"/>
  <path class="st24" d="M239.4,448.43c.38-.2.76-.45,1.12-.76-.43.13-.82.4-1.12.76Z"/>
  <path class="st24" d="M239.31,448.53c-.41.54-.6,1.26-.36,1.97.15.24.3.5.47.8.87-1.16.61-2.13-.11-2.76Z"/>
  <path class="st8" d="M242.98,447.48s-.05.09-.08.13c.04,0,.08.02.11.04-.02-.06-.03-.11-.04-.17Z"/>
  <path class="st8" d="M243.32,446.42c.24-.22.59-.32,1.04-.18-.71-.58-1.19-1.54-1.45-2.87-.13.28-.32.57-.56.89.8.5,1.08,1.33.98,2.16Z"/>
  <path class="st8" d="M242.09,440.99c.24.12.43.25.59.39,0-.14-.02-.27-.02-.41-.21.02-.38.01-.57.02Z"/>
  <path class="st8" d="M242.68,441.38c-.16-.14-.35-.28-.59-.39-1.72.07-3-.15-3.78-.7l.03,2,3.97-1.03c.05.99,0,2,.04,3,.24-.31.43-.61.56-.89-.12-.59-.19-1.25-.22-1.99Z"/>
  <path class="st8" d="M242.66,440.97c0,.14.01.27.02.41.55.5.63,1.16.22,1.99.27,1.33.75,2.29,1.45,2.87-1.44-4.29,1.16-7.1-6.05-5.95,1.71.07,2.97.31,3.78.7.19,0,.37,0,.57-.02Z"/>
  <path class="st8" d="M242.68,441.38c.03.74.1,1.4.22,1.99.4-.83.33-1.49-.22-1.99Z"/>
  <path class="st8" d="M238.31,440.29c.78.55,2.05.77,3.78.7-.81-.39-2.06-.62-3.78-.7Z"/>
  <path class="st8" d="M243.38,448.25c-.19-.17-.3-.38-.36-.6-.04-.03-.08-.04-.11-.04-.15.24-.31.47-.52.66.33.08.86-.14,1,0Z"/>
  <path class="st8" d="M243.32,446.42c-.04.36-.16.72-.34,1.06,0,.06.02.11.04.17.12.09.24.28.36.6l.98-2.01c-.45-.14-.8-.04-1.04.18Z"/>
  <path class="st8" d="M243.01,447.65c.06.22.18.44.36.6-.12-.32-.24-.52-.36-.6Z"/>
  <path class="st8" d="M242.38,448.26c.17-.46.35-.68.52-.66.03-.04.05-.08.08-.13-.06-.4.07-.81.34-1.06.1-.83-.17-1.66-.98-2.16.05,1.33,0,2.67.04,4Z"/>
  <path class="st8" d="M242.38,448.26c.21-.19.37-.42.52-.66-.17-.02-.35.2-.52.66Z"/>
  <path class="st8" d="M242.98,447.48c.18-.33.3-.69.34-1.06-.28.25-.4.65-.34,1.06Z"/>
  <path class="st2" d="M234.43,444.21c.16.01.32.05.49.1-.81-1.35,1.99-1.45-1.58-1.97,1.01.49,1.36,1.12,1.09,1.86Z"/>
  <path class="st2" d="M233.39,444.52c-.09-.22-.13-.49-.15-.79-3.08,1.09-.71,2.21-.86,2.62.19-.84.54-1.48,1.01-1.83Z"/>
  <path class="st2" d="M234.43,444.21c.27-.74-.07-1.37-1.09-1.86v1.35s-.06.02-.1.04c.02.3.06.57.15.79.3-.23.65-.34,1.04-.32Z"/>
  <path class="st2" d="M233.83,445.14c-.35.38-.83.78-1.44,1.22l3.98-1.04c-1.19.32-2.02.25-2.54-.17Z"/>
  <path class="st2" d="M233.83,445.14c.51.43,1.35.49,2.54.17-.17-.22-.97-.26-1.42-.96-.01-.02-.01-.03-.02-.05-.17-.06-.33-.09-.49-.1-.11.29-.3.6-.61.94Z"/>
  <path class="st2" d="M233.39,444.52c-.47.36-.82.99-1.01,1.83.61-.43,1.09-.84,1.44-1.22-.19-.16-.33-.36-.43-.62Z"/>
  <path class="st2" d="M233.39,444.52c.1.26.24.46.43.62.31-.33.5-.64.61-.94-.39-.02-.74.09-1.04.32Z"/>
  <path class="st16" d="M234.44,452.35c.56,1.62-1.27,3.64,2.02,2.99-.66-2.96,2.69-5.7-1.04-5,1.28.81.58,2.33-.98,2.01Z"/>
  <path class="st16" d="M235.42,450.33c-.38.36-.57,1.49-.98,2.01,1.57-.13,1.92-.8.98-2.01Z"/>
  <path class="st16" d="M234.44,452.35c1.56.32,2.26-1.2.98-2.01.94,1.21.6,1.88-.98,2.01Z"/>
  <path class="st9" d="M218.08,375.23c3.86-.52,7.8-.55,11.7-.49,1.88.03,3.87.19,5.55,1.12,1.38.76,2.61,2.34,1.72,3.92-.75,1.33-2.65,2.5-3.99,3.16-1.87.92-4.03.63-6.05.61-3.46-.05-7.7.84-10.5-1.78-1.21-1.13-1.87-3.05-1.2-4.64.82-1.95,3.17-1.97,4.96-2.35.87-.19.71-.78-.16-.6-1.78.38-3.76.52-5.21,1.75-1.26,1.06-1.56,2.8-1.06,4.33,1.35,4.14,6.64,4.18,10.17,4.04,2.33-.09,4.74.21,7.05-.14,2.09-.32,3.79-1.35,5.46-2.59,1.26-.94,2.74-2.23,2.19-3.98s-2.6-2.72-4.3-3.13c-2.47-.6-5.1-.44-7.61-.41-2.83.03-5.66.14-8.47.52-.65.09-1.24.81-.23.68h0Z"/>
  <path class="st45" d="M222.85,384.22c-1.17-.03-2.35-.08-3.52-.09-.97-.01-2.01.12-2.77.77-.65.55-.96,1.33-1.28,2.09-.34.82-.74,1.51-1.68,1.67-.28.05-.84.52-.52.85,1.3,1.34,3,1.48,4.75,1.08.87-.2,1.72-.52,2.52-.92.73-.36,1.46-.81,2.28-.94.33-.05.76-.22.79-.6.03-.35-.38-.55-.68-.51-1.54.24-2.77,1.15-4.22,1.64s-2.99.76-4.12-.41l-.52.85c.93-.16,1.76-.7,2.27-1.49.44-.69.63-1.51,1.06-2.2.47-.77,1.25-.79,2.08-.78,1.15.02,2.3.06,3.45.09.32,0,.76-.26.79-.6.04-.39-.38-.5-.68-.51h0Z"/>
  <path class="st45" d="M224.87,387.68l-1.69-.08c-.18,0-.4.05-.57.12-.13.05-.31.15-.39.27-.05.09-.09.2,0,.28.1.09.25.11.39.11l1.69.08c.18,0,.4-.05.57-.12.13-.05.31-.15.39-.27.05-.09.09-.2,0-.28-.1-.09-.25-.11-.39-.11h0Z"/>
  <path class="st45" d="M225.13,387.75c-.56-.07-1.12-.1-1.69-.1-.2,0-.38.02-.57.1-.13.06-.31.18-.38.33-.05.12-.07.26.02.37s.26.18.41.18c.56,0,1.13.03,1.69.1.18.02.4-.03.57-.1.13-.06.31-.18.38-.33.05-.12.07-.26-.02-.37-.1-.12-.25-.17-.41-.18h0Z"/>
  <path class="st45" d="M225.2,387.71l-1.62-2.85-1.33.62c.33.38.62.78.88,1.21.06.11.12.21.18.32,0,.01.09.18.06.1.03.05.05.1.08.15.11.23.21.46.3.7.12.32.56.35.85.26.17-.05.36-.13.48-.27.08-.1.18-.24.13-.38-.37-.99-.91-1.92-1.61-2.72-.39-.44-1.69-.02-1.33.62l1.62,2.85c.07.12.29.17.41.18.18.02.41-.02.57-.1.27-.14.53-.39.36-.7h0Z"/>
  <path class="st45" d="M222.19,384.98c.78,1,1.34,2.13,1.69,3.35.09.31.6.27.83.2s.71-.27.62-.59c-.36-1.28-.97-2.49-1.79-3.54-.33-.42-1.72.09-1.34.59h0Z"/>
  <path class="st45" d="M224.25,387.38c-.44-.42-.87-.85-1.28-1.29-.2-.21-.39-.42-.59-.64s-.39-.54-.67-.66c-.3-.12-.66,0-.97.04-.28.03-.57.06-.85.07-.59.03-1.16-.03-1.74-.03-.51,0-1.03.2-1.28.66-.21.37-.13.76-.24,1.14-.05.18-.16.23-.31.35-.21.16-.4.34-.58.53-.4.4-.72.84-1.01,1.32-.26.43.34.67.64.67.86,0,1.73,0,2.59-.03s1.67-.08,2.47-.41c.36-.15.7-.34,1.03-.55s.73-.4.95-.71c.26-.38.1-.68-.15-1-.28-.35-.56-.71-.83-1.06-.4-.51-1.48-.15-1.39.52.07.48-.24.7-.51,1.03s-.45.73-.81,1.02c-.74.57-1.74.66-2.64.77l.56.8c1.22-1.28,2.23-2.74,3.02-4.32l-1.43-.06c-.09.52.04,1.01.06,1.52,0,.15,0,.3-.04.45-.03.12-.19.29-.03.23l.63.89c.9-.69,1.6-1.6,2.03-2.64.33-.79-1.13-.84-1.4-.2-.35.85-.89,1.56-1.62,2.12-.59.46.04,1.11.63.89.63-.23,1.05-.65,1.2-1.31s-.13-1.36,0-2.04c.06-.33-.33-.51-.59-.52-.34-.01-.69.15-.85.46-.75,1.48-1.71,2.84-2.85,4.04-.38.41.13.85.56.8,1.34-.16,2.75-.36,3.82-1.25.48-.4.73-.94,1.16-1.38.46-.47.63-1.06.54-1.7l-1.39.52c.18.23.36.46.54.68.08.1.16.21.25.31l.1.12c.1.14.13.17.08.09l.12-.28c-.11.14-.35.25-.5.34-.21.13-.42.25-.64.35-.44.21-.88.28-1.37.31-1.06.05-2.13.04-3.19.04l.64.67c.35-.58.81-1.02,1.33-1.45.48-.4.63-.83.69-1.43,0-.09.05-.21.04-.3,0-.03.02-.06.04-.09-.33.13-.41.19-.25.2.08.07.54.03.65.04.15,0,.31.01.46.01.79,0,1.57-.08,2.36-.21l-.8-.2c.79.91,1.63,1.78,2.5,2.62.5.48,1.73-.27,1.11-.87h0Z"/>
  <path class="st19" d="M223.09,384.18c-1.3-.03-2.6-.07-3.9-.1-.88-.02-1.78,0-2.57.45s-1.23,1.19-1.64,1.95c-.48.91-1,2.18-2.11,2.45-.07.02-.4.12-.31.25.78,1.02,1.61,1.86,2.95,1.95,1.16.07,2.32-.31,3.36-.81,1.41-.68,2.7-1.55,4.32-1.57.24,0,2.73.26,2.38-.6-.08-.19-.79.04-.72.19.08.19-.72.1-.79.1-.24,0-.49,0-.73,0-.42.02-.84.07-1.26.17-.98.23-1.88.7-2.77,1.17-1.05.55-2.18,1.15-3.41,1.03s-1.95-.97-2.64-1.88l-.31.25c1.68-.41,2.22-1.95,3.02-3.3.25-.41.53-.84.93-1.13.6-.45,1.37-.37,2.08-.35,1.22.03,2.44.06,3.66.1.17,0,.83-.3.47-.31h0Z"/>
  <path class="st13" d="M246.2,451.57c.5,1.25.92,2.53,1.27,3.82.13.49.39,1.11.27,1.62-.03.14-.09.16.07.06.26-.16-.1.01.05-.03.13-.04-.1.02-.11.03-.32.09-.64.19-.97.26l.81-.04h-.08c.11.04.23.1.34.16-.16-.12-.27-.34-.39-.51-.15-.21-.3-.42-.45-.63-.3-.42-.6-.84-.89-1.26s-.6-.84-.89-1.26c-.13-.18-.28-.36-.39-.55-.04-.07-.06-.14-.09-.22-.05-.1.06-.12-.04-.04l-.44.27-.14.05-.3-1.11c-.09.03-.18.05-.28.08l.82.88c.32-.19.63-.38.95-.58.15-.09.3-.18.45-.27.07-.05.15-.09.22-.14.18-.11-.2.06.11-.05l-.58.15c-.61.1-.43-.4-.57-.02-.03.08-.05.16-.06.24-.02.23.02.43.1.64.17.44.36.87.54,1.3.37.88.73,1.75,1.1,2.63l2.1-.72c-1.3-1.19-2.44-2.54-3.42-4.01-.1-.15-.44-.19-.59-.2-.27,0-.6.05-.85.17-.33.15-.85.47-.58.88.97,1.47,2.12,2.81,3.42,4.01.33.31.92.21,1.3.08.25-.09.96-.41.8-.8-.31-.74-.61-1.47-.92-2.21-.16-.38-.32-.76-.47-1.13-.12-.28-.38-.7-.33-1.02.02-.14.1-.24.11-.39.02-.21-.07-.36-.23-.49-.47-.37-1.21-.23-1.72-.04-.39.15-.74.39-1.1.61s-.75.45-1.12.68c-.23.14-.58.48-.33.76s.84.22,1.16.13c.09-.03.18-.05.28-.08.32-.09,1.06-.38.94-.84s-.93-.33-1.23-.26c-.62.13-1.35.61-1.27,1.32.03.26.2.5.35.72.17.25.35.49.52.73.7.98,1.39,1.96,2.09,2.94.19.26.31.49.66.57.41.09.82,0,1.22-.11.61-.17,1.26-.3,1.8-.65s.77-.83.76-1.44c-.02-.51-.18-1.02-.31-1.51-.34-1.28-.77-2.53-1.25-3.76-.17-.44-.88-.37-1.23-.26-.27.08-1.11.41-.94.84h0Z"/>
  <path class="st0" d="M252.59,483.01c-3.51,1.28-11.77,4.1-10.12-1.9-1.89-2.99-.65-8.58-1.08-9-.02-.02-.07-.04-.14-.05,0,0-.01,0-.02,0-1.12-.22-7.34.38-8.83.15.23,3.97-.17,8.06.12,12.02.07.89-.19,2.45.03,3,7-1.52,12.95-.55,19.95-.2,1.81-.68,2.35,0,2.96-3.03-1.09.16-2.05-.17-2.88-.97Z"/>
  <path class="st0" d="M242.46,481.11c-1.65,6,6.62,3.18,10.12,1.9.82.81,1.78,1.13,2.88.97-2.01-7.76-9.3,2.97-13-2.88Z"/>
  <path class="st31" d="M242.46,481.11c-.02-3-.08-6.01-.09-9.01-.19.75-.32,1.51-.4,2.27l.49,6.74Z"/>
  <path class="st31" d="M241.98,474.36l-.16-2.15c-.04-.05-.26-.11-.58-.17.07.01.12.03.14.05.44.43-.81,6.01,1.08,9-.52-2.23-.73-4.5-.49-6.74Z"/>
  <path class="st31" d="M232.39,472.19c1.48.24,7.7-.36,8.83-.15-2.05-.38-8.68-.84-8.97-.55-1.03,1.03-1.03,10.43.27,12.72-.29-3.96.1-8.05-.12-12.02Z"/>
  <path class="st31" d="M242.46,481.11l-.49-6.74c-.24,2.25-.03,4.51.49,6.74Z"/>
  <path class="st43" d="M232.55,487.21c.96,2.42,5.87.26,7.66.3,4.97.12,7.04,1.46,12.3-.5-6.71.21-13.36.27-19.95.2Z"/>
  <path class="st43" d="M232.55,487.21c6.59.08,13.24.01,19.95-.2-7-.35-12.95-1.33-19.95.2Z"/>
  <path class="st35" d="M242.38,472.1c0-.49,1.78-.61-.02-2-.52.67-.51,1.34.02,2Z"/>
  <path class="st35" d="M242.86,472.32c-.86-.67-.87-1.34-.02-2l-10.98.61,11,1.39Z"/>
  <path class="st35" d="M242.39,473.24c-.53-.67-.54-1.33-.02-2-.85.66-.84,1.33.02,2Z"/>
  <path class="st33" d="M233.95,474.33c.8,0,.81-1.25,0-1.25s-.81,1.25,0,1.25h0Z"/>
  <path class="st33" d="M237.17,477.16c.8,0,.81-1.25,0-1.25s-.81,1.25,0,1.25h0Z"/>
  <path class="st33" d="M239.79,474.38c.8,0,.81-1.25,0-1.25s-.81,1.25,0,1.25h0Z"/>
  <path class="st33" d="M239.52,480.77c.8,0,.81-1.25,0-1.25s-.81,1.25,0,1.25h0Z"/>
  <path class="st33" d="M233.8,480.82c.8,0,.81-1.25,0-1.25s-.81,1.25,0,1.25h0Z"/>
  <path class="st33" d="M233.84,484.89c.8,0,.81-1.25,0-1.25s-.81,1.25,0,1.25h0Z"/>
  <path class="st33" d="M237.24,483.54c.8,0,.81-1.25,0-1.25s-.81,1.25,0,1.25h0Z"/>
  <path class="st33" d="M241.44,485.59c.8,0,.81-1.25,0-1.25s-.81,1.25,0,1.25h0Z"/>
  <path class="st33" d="M245.5,484.67c.8,0,.81-1.25,0-1.25s-.81,1.25,0,1.25h0Z"/>
  <path class="st33" d="M248.48,486.07c.8,0,.81-1.25,0-1.25s-.81,1.25,0,1.25h0Z"/>
  <path class="st33" d="M251.32,483.62c.8,0,.81-1.25,0-1.25s-.81,1.25,0,1.25h0Z"/>
  <path class="st33" d="M253.1,485.36c.8,0,.81-1.25,0-1.25s-.81,1.25,0,1.25h0Z"/>
  <path class="st0" d="M232.49,472.33c.39,2.93.49,5.9.3,8.85-.13,1.94-.38,3.92.02,5.83"/>
  <path class="st0" d="M252.58,487.09c-4.02-.62-8.1-.9-12.17-.86-1.16.01-2.33.05-3.49.16-1.35.13-2.7.35-4.02.66"/>
  <path class="st12" d="M255.19,472.47c-.1.28-.18.55-.2.82.21-.3.26-.58.2-.82Z"/>
  <path class="st7" d="M244.02,473.4c.24.66.4,1.38.51,2.13.04-.77.08-1.54.16-2.32l6.31-.88c-2.19.29-5.58-.87-6.97,1.07Z"/>
  <path class="st7" d="M244.11,483.41c.07.85.04,1.73,1.02,1.99-.3-1.68-.48-3.38-.58-5.08-.11,1.08-.26,2.13-.43,3.09Z"/>
  <path class="st7" d="M244.53,475.53c-.11-.75-.27-1.47-.51-2.13.33,3.25-.18,6.75.1,10.01.17-.96.33-2.01.43-3.09-.09-1.59-.1-3.18-.02-4.79Z"/>
  <path class="st7" d="M245.01,473.38l5.98-1.06-6.31.88c-.08.78-.12,1.55-.16,2.32.22,1.53.18,3.19.02,4.79.1,1.71.28,3.4.58,5.08-.39-3.89.17-8.09-.12-12.02Z"/>
  <path class="st7" d="M244.55,480.32c.16-1.6.19-3.26-.02-4.79-.08,1.61-.07,3.21.02,4.79Z"/>
  <path class="st7" d="M250.99,472.33c-1-.25-1.88-.43-2.66-.54.99.23,1.93.42,2.66.54Z"/>
  <path class="st41" d="M245.12,472.16c.08-.06.17-.11.26-.15l-.27-.02c0,.06,0,.11,0,.17Z"/>
  <path class="st41" d="M245.12,472.16c0-.06,0-.11,0-.17l-.34-.02-.23-1.49c-2.53.87,0,2.64.03,3-.06-.59.12-1.03.54-1.33Z"/>
  <path class="st41" d="M245.39,472.01c.71-.34,1.88-.38,3.51-.14-1.59-.37-3.29-.86-4.34-1.39.35.54.54,1.04.56,1.51l.27.02Z"/>
  <path class="st41" d="M245.12,472c-.03-.47-.21-.97-.56-1.51l.23,1.49.34.02Z"/>
  <path class="st41" d="M244.58,473.49c.35-.41.53-.85.54-1.33-.41.3-.6.74-.54,1.33Z"/>
  <path class="st33" d="M246.73,476.14c.8,0,.81-1.25,0-1.25s-.81,1.25,0,1.25h0Z"/>
  <path class="st33" d="M249.28,477.98c.8,0,.81-1.25,0-1.25s-.81,1.25,0,1.25h0Z"/>
  <path class="st33" d="M246.89,480.87c.8,0,.81-1.25,0-1.25s-.81,1.25,0,1.25h0Z"/>
  <path class="st33" d="M250.53,482.48c.8,0,.81-1.25,0-1.25s-.81,1.25,0,1.25h0Z"/>
  <path class="st33" d="M246.94,486.15c.8,0,.81-1.25,0-1.25s-.81,1.25,0,1.25h0Z"/>
  <path class="st33" d="M259.37,485.7c.8,0,.81-1.25,0-1.25s-.81,1.25,0,1.25h0Z"/>
  <path class="st33" d="M265.44,487.51c.8,0,.81-1.25,0-1.25s-.81,1.25,0,1.25h0Z"/>
  <path class="st33" d="M263.55,485.43c.8,0,.81-1.25,0-1.25s-.81,1.25,0,1.25h0Z"/>
  <path class="st33" d="M265.94,483.21c.8,0,.81-1.25,0-1.25s-.81,1.25,0,1.25h0Z"/>
  <path class="st0" d="M267.54,482.05c-1.99-3.08-10.27,3.21-11.48,2.17-.7-3.65-1.46-7.23-1.12-11-.75-1.6-2.78-.75-4-.96l-5.98,1.06c.29,3.93-.26,8.13.12,12.02.06.63-.14,1.63.02,2,6.71-.94,13.42-1.79,19.96.8,3.61-.56,3.65-2.9,2.47-6.08Z"/>
  <path class="st4" d="M250.99,472.33c1.22.21,3.25-.64,4,.96.02-.27.1-.54.2-.82-.3-1.28-3.77-1.63-4.2-.14Z"/>
  <path class="st21" d="M245.3,487.28c1.06,2.42,5.75.26,7.66.3,3.91.08,8.24,1.13,12.31.5-6.67-.92-13.32-1.19-19.96-.8Z"/>
  <path class="st21" d="M245.27,487.33c6.64-.38,13.29-.11,19.96.8-6.54-2.59-13.25-1.74-19.96-.8Z"/>
  <path class="st41" d="M245.12,472.16c-.01.48-.19.92-.54,1.33,1.39-1.94,4.78-.78,6.97-1.07l-6.17-.41c-.1.05-.18.09-.26.15Z"/>
  <path class="st41" d="M245.39,472.01l6.17.41c-.73-.13-1.67-.31-2.66-.54-1.63-.24-2.8-.2-3.51.14Z"/>
  <path class="st33" d="M252.11,475.1c.8,0,.81-1.25,0-1.25s-.81,1.25,0,1.25h0Z"/>
  <path class="st33" d="M252.82,479.71c.8,0,.81-1.25,0-1.25s-.81,1.25,0,1.25h0Z"/>
  <path class="st33" d="M253.86,485.09c.8,0,.81-1.25,0-1.25s-.81,1.25,0,1.25h0Z"/>
  <path class="st0" d="M245.2,473.56c2.44-.64,4.9-1.29,7.42-1.34.48,0,.98,0,1.41.22s.77.68.69,1.15"/>
  <path class="st33" d="M246.89,475.77c.8,0,.81-1.25,0-1.25s-.81,1.25,0,1.25h0Z"/>
  <path class="st33" d="M249.69,478.2c.8,0,.81-1.25,0-1.25s-.81,1.25,0,1.25h0Z"/>
  <path class="st33" d="M246.62,480.91c.8,0,.81-1.25,0-1.25s-.81,1.25,0,1.25h0Z"/>
  <path class="st33" d="M250.18,483.66c.8,0,.81-1.25,0-1.25s-.81,1.25,0,1.25h0Z"/>
  <path class="st33" d="M247.31,486.04c.8,0,.81-1.25,0-1.25s-.81,1.25,0,1.25h0Z"/>
  <path class="st33" d="M260.89,484.83c.8,0,.81-1.25,0-1.25s-.81,1.25,0,1.25h0Z"/>
  <path class="st33" d="M264.66,486.94c.8,0,.81-1.25,0-1.25s-.81,1.25,0,1.25h0Z"/>
  <path class="st33" d="M265.27,484.15c.8,0,.81-1.25,0-1.25s-.81,1.25,0,1.25h0Z"/>
  <path class="st33" d="M257.69,485.94c.8,0,.81-1.25,0-1.25s-.81,1.25,0,1.25h0Z"/>
  <path class="st32" d="M234.75,462.08l.46,8.36c0,.17.33.19.44.2.6.02,2.2.28,2.38-.58.08-.4-.04-.91-.06-1.32-.03-.5-.06-1-.09-1.49-.06-.94-.11-1.88-.17-2.82s-.07-1.88-.35-2.77c-.15-.48-1.59-.07-1.45.39.4,1.27.35,2.7.43,4.02.04.69.08,1.38.12,2.08.02.33.04.66.06,1,.02.38.1.8.06,1.18l.15-.2-.06.05.49-.24c.27-.02.28-.03.05-.03h-.33c-.22-.02-.44-.03-.66-.03l.44.2-.46-8.36c-.02-.43-1.48-.14-1.45.39h0Z"/>
  <path class="st32" d="M235.88,462.22c.46,0,1.56-.69.6-.69-.46,0-1.56.69-.6.69h0Z"/>
  <path class="st32" d="M235.74,462.07h.37c.09,0,.19-.02.28-.05.1-.02.19-.05.29-.08.08-.03.16-.07.23-.11.06-.03.12-.07.17-.12l.06-.08c.02-.05.01-.1-.04-.13l-.09-.04c-.09-.02-.19-.03-.28-.02h-.37c-.09,0-.19.02-.28.05-.1.02-.19.05-.29.08-.08.03-.16.07-.23.11-.06.03-.12.07-.17.12l-.06.08c-.02.05-.01.1.04.13l.09.04c.09.02.19.03.28.02h0Z"/>
  <path class="st32" d="M245.26,458.64c-.24,2.15.51,4.27,1.04,6.33.57,2.22,1.14,4.43,1.71,6.65.12.48,1.57.1,1.45-.39-.55-2.14-1.1-4.27-1.65-6.41s-1.34-4.24-1.11-6.38c.06-.55-1.39-.27-1.45.19h0Z"/>
  <path class="st32" d="M249.04,471.49l.33.12.38-.6.07.02-.72.83c.19,0,.38,0,.57-.01.34,0,1.04-.16,1-.62-.09-1.07-.56-2.09-.84-3.11s-.52-2.09-.74-3.14c-.44-2.1-.86-4.21-1.58-6.24-.19-.53-1.63-.11-1.45.39.72,2.03,1.14,4.14,1.58,6.24.22,1.05.45,2.1.74,3.14s.75,2.05.84,3.11l1-.62c-.19,0-.38,0-.57.01-.3,0-.72.08-.91.35-.15.2-.11.44.19.48.49.07.95.03,1.39-.2.13-.07.66-.39.38-.6-.35-.27-.67-.39-1.12-.39-.3,0-.81.1-.95.4s.12.45.4.45h0Z"/>
  <path class="st32" d="M246.18,458.74c.59,0,1.52-.9.54-.9-.59,0-1.52.9-.54.9h0Z"/>
  <path class="st32" d="M246.64,459.04c.8,0,1.13-1,.14-1-.8,0-1.13,1-.14,1h0Z"/>
  <path class="st45" d="M226.96,385.29c1.2-.05,2.4-.12,3.6-.16.92-.03,1.84,0,2.43.8.47.65.69,1.45,1.13,2.12.55.83,1.43,1.32,2.41,1.46l-.37-.78c-1.13,1.13-2.83.84-4.22.43-1.53-.45-2.89-1.37-4.49-1.57-.34-.04-.8.11-.94.45s.13.6.45.64c.92.12,1.75.53,2.6.9.89.39,1.82.7,2.78.88,1.86.36,3.67.1,5.05-1.28.33-.33,0-.73-.37-.78-2.03-.28-1.91-2.74-3.34-3.78-.82-.59-1.87-.64-2.84-.61-1.25.04-2.51.11-3.76.17-.33.01-.76.24-.79.6s.38.52.68.51h0Z"/>
  <path class="st45" d="M224.88,388.45l1.8-.12c.2-.01.38-.04.57-.12.13-.05.31-.15.39-.27.05-.09.09-.2,0-.28-.1-.09-.26-.12-.39-.11l-1.8.12c-.2.01-.38.04-.57.12-.13.05-.31.15-.39.27-.05.09-.09.2,0,.28.1.09.26.12.39.11h0Z"/>
  <path class="st45" d="M224.8,388.74c.6-.08,1.2-.12,1.8-.13.18,0,.4-.09.55-.2.11-.08.25-.22.26-.36.03-.37-.38-.43-.66-.43-.6.01-1.2.06-1.8.13-.19.03-.39.08-.55.2-.11.08-.25.22-.26.36-.02.34.38.46.66.43h0Z"/>
  <path class="st45" d="M225.91,388.08l1.67-2.88c.16-.27-.1-.49-.34-.54-.32-.06-.72.04-.94.29-.72.81-1.31,1.74-1.69,2.75-.05.13-.07.25.02.37.09.11.27.18.41.18.19.01.4-.02.57-.1.14-.07.32-.17.38-.33.18-.47.4-.93.66-1.36.06-.11.13-.21.2-.32.04-.06.08-.11.11-.17.04-.05.04-.05,0,0,.01-.02.03-.04.04-.06.16-.21.32-.41.49-.6l-1.29-.25-1.67,2.88c-.18.3.15.54.43.56.35.02.76-.11.95-.43h0Z"/>
  <path class="st45" d="M226.26,384.61c-.85,1.06-1.47,2.29-1.83,3.59-.09.33.44.38.64.35.3-.04.72-.18.82-.52.34-1.23.94-2.36,1.74-3.37.22-.27-.19-.47-.41-.48-.36-.01-.72.12-.95.41h0Z"/>
  <path class="st45" d="M226.61,388.16c.91-.85,1.79-1.75,2.63-2.68l-.86.32c.77.11,1.55.16,2.33.15.38,0,.78-.01,1.16-.06.17-.02.11-.04.12-.03.06.07.06.25.07.33.09.62.2,1.01.73,1.39.6.43,1.1.92,1.51,1.53l.72-.89c-1.13.02-2.27.06-3.41.02-.51-.02-.98-.1-1.45-.29-.24-.1-.46-.21-.69-.33-.08-.05-.61-.29-.63-.38l-.03.3c.07-.17.32-.41.45-.57.19-.23.37-.46.56-.7l-1.35-.19c-.08.59.13,1.14.56,1.55s.73.95,1.22,1.32c1.1.83,2.52.99,3.85,1.11.51.05,1.35-.46.8-.99-1.23-1.17-2.28-2.53-3.11-4.01-.32-.56-1.52-.12-1.39.52s-.14,1.27,0,1.91c.12.54.47.99,1.01,1.17.33.11.72.04.96-.21.2-.2.28-.54,0-.74-.77-.54-1.42-1.24-1.82-2.1-.16-.34-.52-.43-.87-.34-.25.07-.74.39-.58.73.49,1.05,1.21,1.92,2.17,2.59l.96-.95c-.34-.11-.41-.53-.4-.85.02-.54.13-1.05.02-1.59l-1.39.52c.89,1.58,2.02,2.98,3.33,4.23l.8-.99c-1.05-.1-2.21-.17-3.11-.79-.4-.28-.59-.65-.91-1.01-.35-.38-.69-.59-.62-1.17.09-.73-1.06-.55-1.35-.19s-.54.67-.82,1.01c-.23.29-.53.6-.34,1,.16.34.61.51.92.69.38.21.77.42,1.18.57.81.29,1.65.31,2.51.32.95,0,1.9,0,2.85-.03.4,0,1.02-.44.72-.89s-.67-.87-1.08-1.24c-.32-.29-.88-.51-.97-.95-.08-.37-.05-.77-.29-1.09-.32-.44-.9-.46-1.39-.42-.6.05-1.2.07-1.79.04s-1.38-.3-1.88.03c-.25.16-.44.44-.64.65s-.41.44-.61.65c-.43.45-.87.88-1.33,1.3-.71.67.41,1.25.98.72h0Z"/>
  <path class="st19" d="M226.78,384.45l3.77-.17c1.26-.06,2.4-.07,3.31.92.64.7.99,1.59,1.54,2.35.22.31.47.6.77.84.14.11.29.21.45.3.07.04.54.19.55.21.08.21-.65.87-.8,1-.6.55-1.31.76-2.12.72-1.13-.06-2.18-.52-3.19-.99-.88-.41-1.76-.85-2.72-1.07-.5-.12-1-.17-1.52-.17-.26,0-2.12.17-1.96-.22.06-.14-.64-.07-.72.12-.16.39.4.48.68.48.91.02,1.79-.15,2.7.02,1.42.28,2.67,1.06,4,1.59,1.16.46,2.43.71,3.66.43s2.03-1.08,2.78-2.04c.04-.05.05-.11-.03-.12-2.14-.45-2.33-3.09-3.96-4.21-.81-.55-1.79-.53-2.72-.49-1.39.06-2.77.12-4.16.18-.21,0-.79.33-.31.31h0Z"/>
  <path class="st3" d="M205.13,373.38c1.64-.48,3.24-1.08,4.78-1.81.15-.07.62-.31.4-.54-.2-.21-.73-.09-.95,0-.73.35-1.47.66-2.22.95s-1.39.5-2.18.73c-.19.06-.71.24-.64.52s.64.18.81.13h0Z"/>
  <path class="st3" d="M218.11,370.99c-1.48.14-2.87.74-4,1.7-.24.21-.13.54.16.61.37.09.74-.04,1.02-.27q.06-.05,0,0s.06-.05.09-.07c.06-.05.12-.09.18-.13.12-.09.24-.17.37-.25.03-.02.24-.15.08-.05.05-.03.1-.05.15-.08.13-.07.27-.13.4-.19.07-.03.14-.05.21-.08.08-.03.07-.03-.03.01.03-.01.07-.02.11-.04.12-.04.25-.08.37-.11.07-.02.14-.04.22-.05.04,0,.07-.02.11-.02-.11.02-.12.02-.03,0,.15-.02.29-.04.44-.06.29-.03.76-.2.81-.54s-.41-.42-.65-.39h0Z"/>
  <path class="st3" d="M211.96,396.82l3.51-.37c.32-.03.74-.11.97-.36s-.19-.3-.35-.28l-3.51.37c-.32.03-.74.11-.97.36s.19.3.35.28h0Z"/>
  <path class="st3" d="M223.71,401.17c1.58.04,3.16-.32,4.56-1.06.15-.08.48-.32.16-.43s-.75.03-1.02.17c-.14.07-.27.14-.41.21-.19.09.12-.05-.08.03-.06.02-.12.05-.18.07-.08.03-.17.06-.25.09-.16.06.11-.03-.06.02-.14.04-.27.08-.41.11-.03,0-.06.02-.1.02.09-.02.09-.02,0,0-.06.01-.13.02-.19.04s-.13.02-.2.03c-.04,0-.09.01-.13.02-.07,0-.09.01-.04,0,.05,0,.03,0-.04,0-.04,0-.09,0-.13.01-.07,0-.13,0-.2.01s-.13,0-.2,0c-.04,0-.09,0-.13,0,.05,0,.03,0-.04,0-.35,0-.74.07-1.02.27-.07.05-.19.14-.16.24s.18.13.26.13h0Z"/>
  <path class="st3" d="M216.42,408.44c1.58-.07,3.17-.5,4.56-1.26.14-.07.48-.31.17-.41-.3-.09-.75.03-1.02.18-.14.08-.28.15-.42.22-.07.03-.14.07-.22.1-.04.02-.04.02.01,0-.04.02-.08.03-.13.05-.15.06-.3.11-.45.17-.03.01-.22.07-.07.02-.08.02-.15.05-.23.07-.14.04-.28.08-.43.11.17-.04-.11.02-.14.03-.07.01-.13.02-.2.03s-.13.02-.2.03c-.08.01-.09.01-.02,0-.05,0-.09,0-.14.01-.16.02-.32.03-.48.03-.31.01-.75.12-.97.36s.2.28.35.27h0Z"/>
  <path class="st3" d="M226,410.43l4.82-.69c.23-.03.76-.16.84-.43s-.48-.21-.59-.19l-4.82.69c-.23.03-.76.16-.84.43s.48.21.59.19h0Z"/>
  <path class="st3" d="M219.78,421.11c1.67-.04,3.33-.42,4.87-1.06.23-.1.57-.41.36-.68s-.71-.18-.97-.07c-.39.16-.6.24-.97.36-.34.11-.69.2-1.04.27-.21.04-.21.05-.41.08-.18.03-.35.05-.53.07-.38.04-.77.07-1.15.08-.29,0-.76.22-.81.55-.05.36.41.41.65.4h0Z"/>
  <path class="st3" d="M235.22,422.14c-2.06,0-4.11.58-5.85,1.7-.05.03-.19.13-.17.22s.19.11.26.11c.34.02.74-.09,1.02-.27.31-.2.63-.38.96-.53.18-.08.27-.12.45-.19.08-.03.16-.06.24-.08.05-.02.11-.04.16-.05-.04.01-.04.01,0,0,.39-.12.59-.16.99-.22.3-.05.66-.07,1-.07s.73-.08,1.02-.27c.21-.14.21-.33-.09-.33h0Z"/>
  <path class="st3" d="M225.12,433.06c1.17-.39,2.32-.81,3.47-1.26.2-.08.6-.36.38-.6s-.71-.13-.96-.03c-.53.21-1.06.41-1.6.61-.26.09-.52.19-.78.28-.02,0-.24.08-.15.05s-.13.04-.15.05c-.14.05-.28.09-.42.14-.22.07-.71.26-.62.57.08.3.62.25.83.19h0Z"/>
  <path class="st3" d="M234.8,435.66c1.38-.39,2.76-.77,4.14-1.16.16-.05.71-.2.65-.46s-.67-.1-.8-.07l-4.14,1.16c-.16.05-.71.2-.65.46s.67.1.8.07h0Z"/>
  <path class="st3" d="M224.24,395.44l2.42-.02c.34,0,.74-.09,1.02-.27.06-.04.2-.11.17-.2s-.19-.09-.25-.09l-2.42.02c-.34,0-.74.09-1.02.27-.06.04-.2.11-.17.2s.19.09.25.09h0Z"/>
  <path class="st3" d="M206.98,380.23l2.96-.03c.18,0,.4-.09.55-.2.11-.08.25-.23.26-.37.02-.37-.37-.45-.66-.45l-2.96.03c-.18,0-.4.09-.55.2-.11.08-.25.23-.26.37-.02.37.37.45.66.45h0Z"/>
  <path class="st9" d="M236.96,377.4c.57,4.54-6.7,5.51-9.81,5.69-1.91.11-3.84.11-5.75.03-1.73-.07-3.6-.28-4.83-1.63-.45-.49-1.82.1-1.33.64,1.42,1.56,3.47,1.96,5.5,2.05,2.46.12,4.97.13,7.42-.1,3.75-.36,10.88-1.96,10.24-7.07-.08-.68-1.54-.32-1.45.39h0Z"/>
  <path class="st9" d="M228.56,374.44c-1.1-.01-2.21.01-3.31.07-.14,0-.32.05-.43.14-.05.04-.14.13-.02.15,1.48.24,2.98.07,4.46-.11.14-.02.39-.05.48-.17s-.08-.13-.17-.12c-1.38.17-2.79.34-4.18.12l-.45.28c1.05-.05,2.1-.07,3.15-.06.17,0,.37-.04.51-.14.1-.07.11-.16-.04-.16h0Z"/>
  <path class="st9" d="M217.88,374.93c-.44.02-.88.1-1.3.22-.09.03-.18.07-.24.13-.04.04-.09.12-.06.19.06.16.29.17.42.13.1-.03.19-.05.29-.08.05-.01.1-.02.15-.03.03,0,.05-.01.08-.02h-.05s.03,0,.05,0c.2-.03.4-.05.6-.06.09,0,.2-.05.27-.1.05-.04.13-.11.13-.18.01-.18-.19-.22-.33-.21h0Z"/>
  <path class="st9" d="M216.5,381.64l-.73-.68s-.14-.03-.18-.02c-.09,0-.2.03-.28.06-.07.03-.15.06-.2.11-.03.03-.05.06-.01.1l.73.68s.14.03.18.02c.09,0,.2-.03.28-.06.07-.03.15-.06.2-.11.03-.03.05-.06.01-.1h0Z"/>
  <path class="st9" d="M216.58,381.5c-1.04-1.15-1.61-2.69-1.58-4.24,0-.09-.72,0-.72.19-.03,1.58.56,3.12,1.62,4.29.11.12.78-.14.68-.24h0Z"/>
  <path class="st9" d="M216.9,375.35c.75-.48,1.65-.54,2.53-.61.14-.01.38-.1.41-.26.03-.17-.21-.18-.32-.18-1.06.09-2.16.22-3.08.8-.11.07-.21.22-.06.31s.38.02.51-.06h0Z"/>
  <path class="st45" d="M227.39,385.94c.54,0,1.54-.81.57-.81-.54,0-1.54.81-.57.81h0Z"/>
  <path class="st45" d="M227.36,387.8c.56,0,1.53-.84.56-.84-.56,0-1.53.84-.56.84h0Z"/>
  <path class="st45" d="M235.35,389.43c.45,0,1.57-.67.61-.67-.45,0-1.57.67-.61.67h0Z"/>
  <path class="st45" d="M235.25,390.27c.47,0,1.56-.7.6-.7-.47,0-1.56.7-.6.7h0Z"/>
  <path class="st45" d="M234.99,389.84s0,.01,0,.02v-.12s0,.05-.02.08l.04-.13s-.02.04-.03.06l.09-.12s-.02.02-.03.04l.13-.11s-.02.01-.03.02l.16-.09s0,0,0,0c-.08.03-.16.08-.23.15-.06.05-.12.1-.15.17-.04.06-.05.12-.04.19,0,.06.01.12.06.17l.1.09c.09.05.19.08.3.09h.19c.13-.02.26-.05.39-.1,0,0,0,0,0,0l.16-.09s0,0,0,0c0,0,0,0,.01,0,.05-.04.1-.08.15-.13,0,0,.02-.02.02-.03.03-.03.08-.1.11-.15.02-.03.02-.06.04-.09s.02-.06.03-.09c0-.01,0-.02,0-.03,0-.05,0-.1,0-.16-.02-.07-.05-.12-.11-.15-.05-.05-.11-.09-.19-.1-.08-.03-.17-.04-.26-.03-.1,0-.19,0-.29.04l-.19.07c-.11.05-.21.11-.29.2l-.09.12c-.05.08-.06.16-.04.25h0Z"/>
  <path class="st45" d="M235.22,389.47c-.07.03-.14.06-.21.09l.19-.07c-.11.04-.22.07-.33.09l.2-.03c-.12.02-.24.03-.36.03h.19c-.06,0-.11,0-.17,0-.19-.02-.4.02-.57.1-.09.04-.16.09-.22.15-.06.05-.11.11-.15.19-.05.13-.07.28.03.4.1.12.25.19.41.21.56.06,1.14-.04,1.65-.3.15-.07.3-.19.37-.34.06-.12.06-.29-.03-.4-.1-.12-.26-.19-.41-.21-.19-.02-.4.01-.57.1h0Z"/>
  <path class="st45" d="M215.63,388.83l.32-.49c.06-.06.09-.13.1-.21.03-.07.03-.15,0-.22-.02-.08-.06-.14-.12-.19-.05-.06-.12-.11-.2-.13l-.17-.04c-.13-.02-.26,0-.39.03l-.19.07c-.11.05-.2.13-.28.22l-.32.49c-.06.06-.09.13-.1.21-.03.07-.03.15,0,.22.02.08.06.14.12.19.05.06.12.11.2.13l.17.04c.13.02.26,0,.39-.03l.19-.07c.11-.05.2-.13.28-.22h0Z"/>
  <path class="st45" d="M225.18,387.79s.03-.03.04-.04l-.1.08s.03-.02.04-.03l-.14.08s.03-.01.04-.02l-.17.07s.02,0,.03-.01l-.19.06s.03,0,.04-.01l-.2.04s.03,0,.04,0l-.18.02s.03,0,.04,0h-.16s.05,0,.08,0l-.13-.02s.07.02.1.03l-.09-.04c.05.03.1.06.13.11l.81-.55c-.17.04-.34.07-.51.11s-.32.07-.47.14c-.05.02-.1.04-.15.08-.06.03-.12.07-.17.12-.04.04-.07.09-.06.16.02.04.05.07.09.08.05.03.11.04.17.04.09,0,.18,0,.27.01l.39-.58s-.02,0-.03,0l.2-.04c-.07.01-.13.03-.2.03l.18-.02c-.07,0-.15.01-.22.01h.16c-.07,0-.14,0-.21-.01-.17-.02-.37.02-.53.06-.09.02-.19.06-.27.1-.08.03-.15.07-.22.12l-.1.08s-.07.09-.06.16c.04.1.17.11.26.12.4.04.81-.01,1.2-.1.12-.03.25-.08.36-.13.1-.05.2-.11.26-.2.02-.02.04-.05.03-.08.01-.03,0-.05-.02-.07-.01-.03-.04-.05-.07-.05-.05-.03-.11-.04-.17-.04-.09,0-.18,0-.27-.01l-.59.62c.17-.04.34-.07.51-.11.24-.05.49-.11.69-.25.07-.04.12-.1.16-.16.02-.05.01-.1-.04-.14-.06-.08-.14-.12-.23-.15-.12-.05-.25-.06-.38-.06-.27,0-.54.06-.79.15-.13.05-.25.11-.36.18-.06.04-.12.09-.17.14-.06.07-.1.15-.02.22.05.03.1.05.15.05.07.02.15.02.22.01.19-.01.39-.05.57-.12.14-.06.3-.12.4-.23h0Z"/>
  <path class="st9" d="M349.66,373.92c3.86-.52,7.8-.55,11.7-.49,1.88.03,3.87.19,5.55,1.12,1.38.76,2.61,2.34,1.72,3.92-.75,1.33-2.65,2.5-3.99,3.16-1.87.92-4.03.63-6.05.61-3.46-.05-7.7.84-10.5-1.78-1.21-1.13-1.87-3.05-1.2-4.64.82-1.95,3.17-1.97,4.96-2.35.87-.19.71-.78-.16-.6-1.78.38-3.76.52-5.21,1.75-1.26,1.06-1.56,2.8-1.06,4.33,1.35,4.14,6.64,4.18,10.17,4.04,2.33-.09,4.74.21,7.05-.14,2.09-.32,3.79-1.35,5.46-2.59,1.26-.94,2.74-2.23,2.19-3.98s-2.6-2.72-4.3-3.13c-2.47-.6-5.1-.44-7.61-.41-2.83.03-5.66.14-8.47.52-.65.09-1.24.81-.23.68h0Z"/>
  <path class="st26" d="M374.08,435.95c-2.68-7.35-5.04-15.7-7.51-23.16-1.3-3.92-8.73-25.58-8.77-27.44-.03-1.62,1.47-2.02,1.78-3.32-2.13-.71-3.59.67-4.98,1.04,1.84.7,2.43,3.15,3.04,4.98,5.33,15.87,9.72,32.15,15.44,47.9.04-.03.79.95,1,0Z"/>
  <path class="st45" d="M355.66,383.33c-1.17-.03-2.35-.08-3.52-.09-.99-.01-2.04.08-2.86.69-.68.51-1.02,1.26-1.33,2.02-.29.71-.66,1.65-1.52,1.8-.23.04-1.13.38-.75.77,1.29,1.32,3.02,1.41,4.73,1.02.87-.2,1.72-.52,2.53-.91.73-.36,1.46-.81,2.28-.94.29-.04.76-.19.81-.54s-.4-.44-.65-.4c-1.54.24-2.77,1.15-4.22,1.65s-2.98.71-4.14-.47l-.75.77c.97-.16,1.84-.6,2.43-1.42.48-.66.67-1.47,1.06-2.18.17-.31.38-.62.72-.76.37-.16.82-.15,1.22-.14,1.15.02,2.3.06,3.45.09.33,0,.79-.1.95-.42.15-.3-.13-.52-.42-.53h0Z"/>
  <path class="st45" d="M357.48,386.71l-1.69-.08c-.18,0-.4.05-.57.12-.12.05-.31.15-.39.27-.05.08-.1.19,0,.28.1.09.25.1.39.11l1.69.08c.18,0,.4-.05.57-.12.12-.05.31-.15.39-.27.05-.08.1-.19,0-.28-.1-.09-.25-.1-.39-.11h0Z"/>
  <path class="st45" d="M357.75,386.85c-.56-.07-1.12-.1-1.69-.1-.19,0-.39.03-.57.11-.13.06-.31.16-.39.29-.05.1-.09.22,0,.31.1.1.26.14.39.14.56,0,1.13.03,1.69.1.17.02.41-.04.57-.11.13-.06.31-.16.39-.29.05-.1.09-.22,0-.31-.11-.11-.25-.12-.39-.14h0Z"/>
  <path class="st45" d="M357.81,386.74l-1.62-2.85-1.33.61c.33.38.62.78.88,1.21s.43.78.61,1.28c.12.32.56.34.84.25.17-.05.36-.13.48-.27.08-.1.18-.24.13-.37-.37-.99-.91-1.91-1.61-2.71-.38-.43-1.69-.01-1.33.61l1.62,2.85c.07.12.29.17.4.18.18.02.41-.02.57-.1.27-.13.53-.38.36-.69h0Z"/>
  <path class="st45" d="M354.79,383.98c.78,1,1.35,2.15,1.69,3.37.08.27.63.16.81.11s.35-.11.49-.23c.08-.06.19-.16.15-.27-.36-1.28-.97-2.47-1.79-3.52-.07-.09-.29-.09-.38-.09-.18,0-.4.05-.57.12s-.59.27-.41.51h0Z"/>
  <path class="st45" d="M356.97,386.55c-.46-.44-.9-.88-1.33-1.34-.2-.21-.39-.42-.59-.64-.17-.19-.35-.48-.57-.62-.28-.17-.64-.06-.95-.01s-.62.07-.93.09c-.57.03-1.12-.02-1.69-.03-.53-.02-1.13.15-1.42.62-.21.33-.18.71-.24,1.07-.08.44-.59.67-.89.97-.39.39-.73.83-1.01,1.3-.18.29.15.53.42.53.87,0,1.75,0,2.62-.03s1.73-.06,2.56-.39c.37-.15.73-.34,1.07-.55s.74-.4.98-.71.14-.56-.08-.84c-.29-.37-.59-.75-.88-1.12-.33-.42-1.47-.08-1.39.5.07.5-.19.74-.49,1.09s-.45.74-.81,1.03c-.73.59-1.74.67-2.64.78l.52.65c1.21-1.28,2.23-2.73,3.03-4.3l-1.41.02c-.1.53.04,1.03.06,1.56,0,.17,0,.36-.06.52-.02.07-.06.15-.1.22-.07.09.15-.04-.07.04l.77.65c.89-.69,1.61-1.56,2.04-2.61.3-.72-1.15-.63-1.37-.11-.35.85-.88,1.59-1.61,2.16-.2.16-.38.41-.15.63s.65.13.92.02c.55-.2.92-.66,1.04-1.23.15-.66-.14-1.33-.02-1.99s-1.22-.37-1.41.02c-.75,1.49-1.7,2.85-2.85,4.06-.38.4.12.69.52.65,1.34-.16,2.75-.37,3.83-1.24.49-.39.74-.92,1.16-1.36s.65-.99.56-1.63l-1.39.5c.18.23.36.46.54.68.08.1.45.46.43.57l.13-.24c-.25.31-.78.55-1.14.72-.42.2-.83.28-1.3.3-1.02.05-2.06.05-3.08.04l.42.53c.33-.54.73-1,1.22-1.4.51-.42.74-.75.8-1.41.01-.11.04-.23.04-.33,0-.04.02-.08.03-.12-.4.1-.51.15-.32.16.31.1.75.05,1.06.05.76,0,1.52-.06,2.27-.18l-.59-.17c.76.87,1.56,1.71,2.39,2.51.25.24.67.21.97.07.19-.09.62-.43.36-.67h0Z"/>
  <path class="st19" d="M355.7,383.2c-1.3-.03-2.6-.07-3.9-.1-.88-.02-1.78,0-2.57.45s-1.23,1.19-1.64,1.95c-.48.91-1,2.18-2.11,2.45-.07.02-.4.12-.31.25.78,1.02,1.61,1.86,2.95,1.95,1.16.07,2.32-.31,3.36-.81,1.41-.68,2.7-1.55,4.32-1.57.24,0,2.73.26,2.38-.6-.08-.19-.79.04-.72.19.08.19-.72.1-.79.1-.24,0-.49,0-.73,0-.42.02-.84.07-1.26.17-.98.23-1.88.7-2.77,1.17-1.05.55-2.18,1.15-3.41,1.03s-1.95-.97-2.64-1.88l-.31.25c1.68-.41,2.22-1.95,3.02-3.3.25-.41.53-.84.93-1.13.6-.45,1.37-.37,2.08-.35,1.22.03,2.44.06,3.66.1.17,0,.83-.3.47-.31h0Z"/>
  <path class="st45" d="M359.55,384.22c1.2-.05,2.4-.12,3.6-.16.95-.03,1.85.05,2.44.87.47.65.69,1.45,1.13,2.12.55.83,1.42,1.27,2.39,1.4l-.33-.63c-1.16,1.16-2.79.85-4.22.43-1.53-.45-2.88-1.35-4.49-1.55-.31-.04-.8.12-.95.42-.16.32.14.48.42.51.93.12,1.77.56,2.62.93.89.39,1.81.69,2.77.86,1.83.33,3.68.09,5.04-1.27.32-.32.02-.58-.33-.63-2.01-.28-1.93-2.8-3.35-3.82-.81-.58-1.87-.6-2.83-.57-1.25.04-2.51.11-3.76.17-.28.01-.77.21-.81.54-.05.35.41.4.65.39h0Z"/>
  <path class="st45" d="M357.72,387.62l1.8-.12c.19-.01.4-.09.54-.2.11-.08.25-.24.25-.39.02-.36-.37-.5-.67-.48l-1.8.12c-.19.01-.4.09-.54.2-.11.08-.25.24-.25.39-.02.36.37.5.67.48h0Z"/>
  <path class="st45" d="M357.39,387.68c.29-.04.58-.07.88-.09.07,0,.14-.01.21-.01.04,0,.07,0,.11,0,.02,0,.05,0,.07,0h-.11c.15,0,.31,0,.46,0,.2,0,.39-.03.57-.11.13-.05.31-.16.39-.29.05-.1.09-.21,0-.3-.1-.1-.26-.13-.39-.13-.66.01-1.32.06-1.98.14-.19.02-.39.09-.55.19-.09.06-.26.18-.27.31-.04.32.41.35.63.32h0Z"/>
  <path class="st45" d="M358.55,386.92l1.67-2.88c.05-.09-.06-.15-.12-.16-.12-.03-.25-.02-.37,0-.16.02-.32.06-.47.11-.14.05-.3.11-.4.22-.71.8-1.28,1.71-1.66,2.71-.09.25.48.17.58.15.19-.04.38-.09.55-.17.1-.05.25-.12.3-.23.35-.94.87-1.81,1.54-2.56l-1.37.17-1.67,2.88c-.05.09.06.14.12.16.14.04.33.02.46,0,.19-.04.38-.09.55-.17.11-.06.23-.12.3-.23h0Z"/>
  <path class="st45" d="M358.94,383.46c-.89,1.11-1.53,2.38-1.91,3.75-.04.13.08.3.18.37.13.09.34.13.5.12.37-.04.7-.22.8-.59.02-.07.02-.08,0-.03.01-.04.02-.08.03-.12.02-.08.05-.15.07-.23.05-.15.11-.3.17-.45.11-.29.24-.57.39-.85s.3-.55.47-.82c-.05.08.07-.1.08-.12.05-.07.09-.13.14-.2.1-.13.2-.26.3-.39.2-.26.14-.61-.19-.71s-.79-.01-1.02.27h0Z"/>
  <path class="st45" d="M359.39,386.81c.87-.82,1.71-1.67,2.5-2.56l-1.12.36c.82.11,1.64.16,2.47.14.17,0,.33-.01.5-.02.18-.01.45-.09.62-.05.23.05.27.26.3.48.04.24.04.49.13.72.11.28.31.43.55.6.61.45,1.14.97,1.56,1.6l.98-.62c-.73.01-1.45.02-2.18.03-.68,0-1.4.06-2.07-.09s-1.3-.49-1.87-.85c-.09-.06-.27-.12-.28-.24,0-.05.27-.34.31-.38.24-.29.48-.59.71-.88l-1.38.13c-.07.57.11,1.02.53,1.41s.69.92,1.17,1.27c1.07.77,2.42.91,3.7,1.03.17.02,1.51-.25,1.13-.61-1.25-1.19-2.32-2.54-3.17-4.05-.21-.37-1.54-.05-1.45.39.21.97-.48,2.45.83,2.89.29.1.67,0,.94-.12.1-.05.55-.3.33-.46-.84-.58-1.51-1.34-1.95-2.27-.2-.43-1.61.05-1.45.39.46.98,1.15,1.8,2.04,2.42l1.26-.58c-1.01-.34-.4-1.9-.56-2.64l-1.45.39c.88,1.55,1.97,2.96,3.27,4.19l1.13-.61c-1.11-.1-2.32-.19-3.26-.87-.42-.3-.62-.71-.96-1.07-.37-.4-.73-.68-.65-1.29.07-.53-1.22-.07-1.38.13-.27.34-.54.67-.82,1.01-.17.21-.46.46-.27.74.18.27.67.45.94.6.36.2.73.38,1.12.5.8.26,1.63.25,2.46.25.89,0,1.79,0,2.68-.03.23,0,1.24-.23.98-.62-.32-.48-.7-.91-1.14-1.28-.41-.34-.85-.52-.95-1.08-.06-.33-.03-.74-.31-.99-.38-.34-.98-.21-1.44-.18-.61.04-1.22.04-1.82,0-.64-.05-1.36-.25-1.93.18-.45.34-.81.88-1.2,1.28-.45.47-.92.92-1.4,1.37-.25.24.22.33.37.33.35,0,.71-.13.96-.37h0Z"/>
  <path class="st19" d="M359.39,383.47l3.77-.17c1.26-.06,2.4-.07,3.31.92.64.7.99,1.59,1.54,2.35.22.31.47.6.77.84.14.11.29.21.45.3.07.04.54.19.55.21.08.21-.65.87-.8,1-.6.55-1.31.76-2.12.72-1.13-.06-2.18-.52-3.19-.99-.88-.41-1.76-.85-2.72-1.07-.5-.12-1-.17-1.52-.17-.26,0-2.12.17-1.96-.22.06-.14-.64-.07-.72.12-.16.39.4.48.68.48.91.02,1.79-.15,2.7.02,1.42.28,2.67,1.06,4,1.59,1.16.46,2.43.71,3.66.43s2.03-1.08,2.78-2.04c.04-.05.05-.11-.03-.12-2.14-.45-2.33-3.09-3.96-4.21-.81-.55-1.79-.53-2.72-.49-1.39.06-2.77.12-4.16.18-.21,0-.79.33-.31.31h0Z"/>
  <path class="st45" d="M360.02,385.03c.62,0,1.51-.93.53-.93-.62,0-1.51.93-.53.93h0Z"/>
  <path class="st45" d="M359.96,386.79c.5,0,1.55-.76.58-.76-.5,0-1.55.76-.58.76h0Z"/>
  <path class="st45" d="M367.96,388.45c.44,0,1.57-.65.61-.65-.44,0-1.57.65-.61.65h0Z"/>
  <path class="st45" d="M367.86,389.29c.46,0,1.56-.69.6-.69-.46,0-1.56.69-.6.69h0Z"/>
  <path class="st45" d="M367.6,388.87s0,.01,0,.02v-.13s0,.05-.02.08l.04-.13s-.02.04-.03.06l.09-.12s-.02.03-.03.04l.13-.11s-.02.01-.03.02l.16-.09s0,0-.01,0c-.08.04-.16.08-.22.15-.06.05-.11.11-.15.18-.04.06-.05.12-.04.19,0,.07.02.13.06.18l.1.09c.09.05.2.09.3.09h.19c.13-.01.26-.05.39-.1.06-.03.13-.07.19-.11,0,0,0,0,.01-.01.04-.04.09-.08.13-.11,0,0,0,0,0,0,0,0,.02-.02.02-.03.03-.04.08-.1.11-.15,0,0,0-.02.01-.03.01-.04.04-.11.05-.16,0-.01,0-.02,0-.03,0-.05,0-.11,0-.16-.02-.07-.05-.12-.11-.16-.05-.05-.11-.09-.19-.11-.08-.03-.17-.04-.26-.03-.1,0-.19,0-.29.04l-.19.07c-.11.05-.21.12-.29.2l-.09.12c-.05.08-.06.17-.04.26h0Z"/>
  <path class="st45" d="M367.72,388.78s-.06.03-.09.04l.17-.07s-.09.04-.14.06c0,0-.02,0-.03,0-.06.02-.01,0,.14-.05-.02,0-.05.01-.07.02s-.05.01-.07.02l.16-.03s-.02,0-.04,0c-.05,0-.1.02-.15.02l.18-.02c-.08,0-.16.01-.25,0h.16c-.05,0-.1,0-.15,0-.17-.02-.37.01-.53.06s-.36.11-.49.22c-.07.05-.2.15-.16.25s.17.13.26.14c.67.07,1.37-.09,1.96-.39.07-.03.13-.07.18-.13.05-.03.08-.08.1-.13.03-.1-.04-.17-.13-.19-.15-.05-.32-.04-.47-.01-.19.03-.38.09-.55.18h0Z"/>
  <path class="st45" d="M348.34,387.48l.32-.49s.02-.06,0-.08c-.02-.03-.06-.05-.11-.05-.07-.01-.13-.01-.2,0-.09,0-.17.01-.26.03-.19.04-.38.09-.55.17-.11.05-.24.1-.3.21l-.32.49s-.02.06,0,.08c.02.03.06.05.11.05.07.01.13.01.2,0,.09,0,.17-.01.26-.03.19-.04.38-.09.55-.17.11-.05.24-.1.3-.21h0Z"/>
  <path class="st45" d="M357.73,387.03s.02-.02.03-.03l-.13.11s.03-.03.05-.04l-.16.09s.04-.02.06-.03l-.19.07s.04-.01.06-.02l-.2.04s.05,0,.08,0h-.19s.05,0,.08,0l-.17-.03s.06.02.09.03l-.14-.06s.06.03.09.06l-.1-.09s.04.04.05.06l.55-.76c-.17.04-.34.07-.51.11l-.19.07c-.08.03-.16.08-.22.15-.09.07-.19.18-.2.3v.13s.04.08.06.11c.05.06.1.1.17.12.07.04.15.06.23.06.09,0,.18,0,.27.01l.14-.94s-.07.02-.1.02l.2-.04c-.11.02-.23.03-.34.03h.19c-.07,0-.15,0-.22-.01-.1-.01-.19,0-.28.02-.1.01-.2.04-.29.09-.08.03-.16.08-.22.15-.06.05-.12.11-.15.18-.05.12-.08.26.02.37.1.12.25.16.4.18.35.04.71,0,1.05-.08l.19-.07c.08-.03.16-.08.22-.15.09-.07.19-.18.2-.3v-.13s-.04-.08-.06-.11c-.05-.06-.1-.1-.17-.12-.07-.04-.15-.06-.23-.06-.09,0-.18,0-.27-.01l-.14.94c.17-.04.34-.07.51-.11.2-.04.4-.16.52-.33.05-.05.08-.12.09-.19.01-.09,0-.17-.06-.24-.04-.06-.1-.1-.16-.15-.03-.02-.05-.04-.08-.05-.15-.07-.3-.12-.47-.13-.09,0-.18,0-.27,0-.17.03-.29.06-.45.12-.08.03-.16.08-.24.13-.01,0-.02.02-.03.03-.05.04-.11.09-.16.14-.09.1-.16.24-.13.37s.17.23.3.26c.18.05.37.05.55,0s.35-.13.48-.27h0Z"/>
  <path class="st9" d="M254.53,472.57c.03,2.4.06,4.8.32,7.18.13,1.22.32,2.44.61,3.64.22.89.63,1.09,1.52.99.97-.1,1.92-.35,2.82-.72,1.03-.42,1.92-1.07,2.92-1.54.61-.29,1.25-.44,1.92-.5.59-.05,1.33-.15,1.89.05.97.36,1.15,1.83,1.29,2.73.11.73.13,1.6-.34,2.23-.43.57-1.12.72-1.8.76-1.37.07-2.78-.13-4.14-.21-.36-.02-.74.51-.25.54,1.25.08,2.51.2,3.76.22.89.02,1.85-.08,2.58-.63.82-.62,1.04-1.65.96-2.63-.07-.89-.26-1.97-.73-2.74-.51-.83-1.35-.92-2.24-.9-1.17.03-2.28.18-3.34.7-1.12.55-2.13,1.28-3.32,1.68-.58.19-1.31.44-1.92.43-.97-.02-.98-1.14-1.13-1.9-.58-3.11-.62-6.28-.66-9.43,0-.38-.74-.28-.73.05h0Z"/>
  <path class="st9" d="M266.25,487.52c-.19-.01-.38.05-.57.11-.03,0-.05.02-.07.03-.04.01-.03.01.02,0-.02,0-.03.01-.05.02-.06.02-.11.03-.17.04-.1.02.06,0-.02,0-.03,0-.05,0-.08.01-.04,0-.07,0-.11.01-.02,0-.1.02-.02,0-.06,0-.13,0-.19,0-.03,0-.05,0-.08,0-.02,0-.04,0-.05,0,.04,0,.04,0,0,0-.17-.01-.38.02-.51.14-.04.03-.09.08-.08.14.01.05.09.08.14.08.29.02.59.02.88-.04.15-.03.29-.06.44-.11.08-.03.16-.05.25-.09.03,0,.02,0-.03.01.02,0,.03,0,.05-.01-.03,0-.06.01-.09.01.02,0,.03,0,.05,0,.15,0,.39-.06.48-.19.1-.14-.09-.18-.19-.18h0Z"/>
  <path class="st9" d="M266.74,487.19c-.42.2-.87.34-1.33.4-.23.03-.47.03-.71.03-.28-.01-.56-.02-.84.07-.15.05-.34.18-.29.36.05.17.29.21.43.17.24-.08.51-.04.76-.04s.5-.01.74-.05c.54-.08,1.06-.24,1.56-.48.14-.07.27-.24.17-.39s-.35-.14-.49-.06h0Z"/>
  <path class="st9" d="M244.11,481.11c0,1.51.05,3.02.19,4.52.03.37.07.75.12,1.12.03.29.07.55.3.74.46.4,1.24.53,1.82.56.17.01.4-.05.47-.23.06-.16-.06-.31-.23-.32-.44-.03-1.42-.11-1.59-.62-.09-.26-.08-.59-.11-.86-.03-.33-.06-.66-.09-.99-.11-1.32-.15-2.65-.14-3.98,0-.39-.73-.29-.74.05h0Z"/>
  <path class="st9" d="M247.95,488.06c-.85.03-1.75-.18-2.31-.88-.29-.35-.36-.77-.42-1.21-.07-.52-.14-1.05-.21-1.57-.02-.16-.75-.01-.72.19.07.56.15,1.12.22,1.68.06.47.2.88.52,1.24.65.72,1.68.89,2.61.85.14,0,.39-.05.48-.18s-.08-.14-.18-.14h0Z"/>
  <path class="st9" d="M255.02,472.61c-1.29-.77-2.79-.66-4.22-.46-1.6.22-3.24.27-4.81.65-.08.02-.37.11-.32.24s.32.06.4.04c1.35-.33,2.75-.35,4.13-.54s2.88-.43,4.15.33c.19.12.82-.18.68-.26h0Z"/>
  <path class="st9" d="M253.76,472.29s.05,0,.07,0c.06,0-.08-.02-.02,0,.04.01.08.02.11.04l-.07-.03c.07.03.14.08.2.13l-.05-.05c.12.11.22.25.3.38.1.15.19.31.29.46.04.06.14.09.2.09.09,0,.2-.01.29-.05.13-.07.27-.2.18-.35-.29-.47-.6-1.12-1.25-1.13-.1,0-.19,0-.29.05-.07.03-.16.09-.19.16-.03.06-.04.13.01.19s.13.09.2.09h0Z"/>
  <path class="st9" d="M241.47,472.48c.2.72.14,1.46.08,2.2-.03.35.71.24.73-.06.06-.77.12-1.57-.09-2.33-.09-.31-.81-.12-.72.19h0Z"/>
  <path class="st9" d="M241.62,479.08c0,.81.17,1.64.61,2.33.38.59.96,1.06,1.64,1.24.17.05.36,0,.51-.08.07-.04.24-.19.08-.23-1.51-.41-2.11-2.02-2.12-3.45,0-.17-.73-.05-.72.19h0Z"/>
  <path class="st9" d="M242.46,479.02l-.11-.64c-.01-.07-.09-.12-.15-.14-.07-.02-.15-.02-.23-.01s-.16.04-.22.09c-.05.04-.13.11-.13.19,0,.31,0,.62,0,.93,0,.08.02.13.09.17s.17.06.25.05c.1-.01.2-.04.27-.1.05-.04.13-.11.13-.19,0-.31,0-.62,0-.93l-.73.13.11.64c.01.07.09.12.15.14.08.03.19.03.27,0,.15-.04.33-.16.3-.34h0Z"/>
  <path class="st9" d="M241.59,477.48v1.22c-.02.42,0,.82.12,1.22.05.17.28.21.43.16.14-.04.35-.18.29-.36-.12-.37-.12-.74-.12-1.12v-1.17c.01-.18-.16-.27-.33-.25-.15.01-.39.12-.4.3h0Z"/>
  <path class="st9" d="M241.68,472.44c.13.88.01,1.76-.11,2.63-.04.3.69.17.73-.09.12-.91.24-1.83.11-2.74-.02-.16-.32-.12-.41-.09-.12.03-.33.13-.31.29h0Z"/>
  <path class="st9" d="M231.62,479.88c.16,1.77.32,3.53.48,5.3.04.44.08.87.12,1.31.03.36.06.72.28,1.02.41.57,1.18.65,1.82.69.16.01.39-.02.51-.14.09-.09.11-.19-.05-.2-.77-.05-1.58-.2-1.76-1.07-.16-.74-.15-1.54-.22-2.3-.14-1.6-.29-3.21-.43-4.81-.02-.18-.75-.03-.72.19h0Z"/>
  <path class="st9" d="M237.23,472.06l2.56-.06c.39,0,.82-.07,1.21.02.33.08.67.35.64.73l.72-.15c-.12-.21-.24-.42-.37-.62-.09-.15-.16-.32-.33-.39-.38-.14-.9-.01-1.26.13-.07.03-.23.09-.23.19s.14.1.21.09c.59-.02,1.19.33,1.19.98,0,.16.72.04.72-.19,0-.85-.91-1.15-1.62-1.13l-.02.28c.1-.04.19-.06.3-.06.14,0,.18.09.26.21.14.23.27.47.41.7.1.16.71.04.72-.15.07-.97-1.14-1.01-1.82-.99l-3.01.06c-.14,0-.4.05-.48.18s.07.16.18.16h0Z"/>
  <path class="st9" d="M242.54,472.23c-.35-1.13-2.03-.85-2.92-.84-1.35.01-2.69.03-4.04.04-.14,0-.41.05-.48.19s.06.19.19.19c1.17-.01,2.33-.02,3.5-.04.58,0,1.16-.02,1.74-.02.52,0,1.11.09,1.29.66.07.23.79.03.72-.19h0Z"/>
  <path class="st40" d="M249.07,472.38c.63-.22,1.27-.43,1.89-.68.54-.22,1.05-.49,1.58-.74.4-.19.9-.47,1.36-.43.4.03.82.45.67.87l.14-.24-.05.06.29-.19c.45,0,.57-.04.35-.1l-.11-.04c-.11-.04-.22-.07-.33-.09-.24-.06-.49-.09-.73-.12-.44-.05-.9-.06-1.35-.05-.5.02-.96.15-1.41.36-.36.18-.71.33-1.11.39-.29.04-.76.19-.81.53s.41.42.64.38c.55-.08,1.08-.22,1.59-.46.19-.09.38-.22.58-.27.14-.04.31-.02.46-.02.46.01.93.02,1.38.14.23.06.45.17.69.19.32.02.65-.05.91-.23.4-.27.44-.76.23-1.17s-.56-.65-.97-.78c-1.01-.32-2.12.12-3.03.55-1.02.48-2.02.92-3.09,1.29-.24.08-.69.28-.61.61.08.31.61.3.84.23h0Z"/>
  <path class="st40" d="M253.55,470.86c.48,0,1.56-.73.59-.73-.48,0-1.56.73-.59.73h0Z"/>
  <path class="st40" d="M253.81,471.15c.44,0,1.57-.65.61-.65-.44,0-1.57.65-.61.65h0Z"/>
  <path class="st40" d="M245.33,471.08v-.07c-.13.16-.27.32-.4.48-.29.05-.34.09-.12.11.1.02.2.05.29.08.19.06.39.12.58.18.34.11.67.24,1,.35.79.26,1.59.4,2.42.4.76,0,1.67,0,2.36-.32.33-.15.57-.38.83-.62.22-.2.38-.34.69-.31.34.03.8-.11.94-.44s-.13-.57-.44-.61c-.94-.1-1.69.26-2.36.89-.29.27-.51.28-.91.31-.48.04-.97.07-1.45.01-.88-.09-1.7-.47-2.54-.73-.64-.2-2.21-.69-2.36.4-.1.73,1.37.54,1.47-.11h0Z"/>
  <path class="st33" d="M383.25,470.56c.8,0,.81-1.25,0-1.25s-.81,1.25,0,1.25h0Z"/>
  <path class="st33" d="M389.13,471.08c.8,0,.81-1.25,0-1.25s-.81,1.25,0,1.25h0Z"/>
  <path class="st33" d="M382.87,476.01c.8,0,.81-1.25,0-1.25s-.81,1.25,0,1.25h0Z"/>
  <path class="st33" d="M389.47,476.09c.8,0,.81-1.25,0-1.25s-.81,1.25,0,1.25h0Z"/>
  <path class="st33" d="M386.28,473.25c.8,0,.81-1.25,0-1.25s-.81,1.25,0,1.25h0Z"/>
  <path class="st33" d="M384.07,480.87c.8,0,.81-1.25,0-1.25s-.81,1.25,0,1.25h0Z"/>
  <path class="st33" d="M389.94,480.53c.8,0,.81-1.25,0-1.25s-.81,1.25,0,1.25h0Z"/>
  <path class="st33" d="M386.19,478.42c.8,0,.81-1.25,0-1.25s-.81,1.25,0,1.25h0Z"/>
  <path class="st33" d="M395.82,480.61c.8,0,.81-1.25,0-1.25s-.81,1.25,0,1.25h0Z"/>
  <path class="st33" d="M399.85,482.01c.8,0,.81-1.25,0-1.25s-.81,1.25,0,1.25h0Z"/>
  <path class="st33" d="M401.54,479.12c.8,0,.81-1.25,0-1.25s-.81,1.25,0,1.25h0Z"/>
  <path class="st33" d="M402.57,481.7c.8,0,.81-1.25,0-1.25s-.81,1.25,0,1.25h0Z"/>
  <path class="st33" d="M358.43,469.23c.8,0,.81-1.25,0-1.25s-.81,1.25,0,1.25h0Z"/>
  <path class="st33" d="M363.73,468.89c.8,0,.81-1.25,0-1.25s-.81,1.25,0,1.25h0Z"/>
  <path class="st33" d="M361.9,471.77c.8,0,.81-1.25,0-1.25s-.81,1.25,0,1.25h0Z"/>
  <path class="st33" d="M358.34,474.1c.8,0,.81-1.25,0-1.25s-.81,1.25,0,1.25h0Z"/>
  <path class="st33" d="M364.64,473.9c.8,0,.81-1.25,0-1.25s-.81,1.25,0,1.25h0Z"/>
  <path class="st33" d="M358.67,478.83c.8,0,.81-1.25,0-1.25s-.81,1.25,0,1.25h0Z"/>
  <path class="st33" d="M365.4,478.34c.8,0,.81-1.25,0-1.25s-.81,1.25,0,1.25h0Z"/>
  <path class="st33" d="M361.8,476.36c.8,0,.81-1.25,0-1.25s-.81,1.25,0,1.25h0Z"/>
  <path class="st33" d="M370.71,478.28c.8,0,.81-1.25,0-1.25s-.81,1.25,0,1.25h0Z"/>
  <path class="st33" d="M373.88,479.97c.8,0,.81-1.25,0-1.25s-.81,1.25,0,1.25h0Z"/>
  <path class="st33" d="M377.29,477.21c.8,0,.81-1.25,0-1.25s-.81,1.25,0,1.25h0Z"/>
  <path class="st33" d="M377.46,479.94c.8,0,.81-1.25,0-1.25s-.81,1.25,0,1.25h0Z"/>
  <path class="st9" d="M391.14,468.29c.12,2.95.38,5.88.81,8.8.12.84.01,2.56,1.17,2.66s2.3-.8,3.26-1.24c1.3-.6,2.63-1.15,4.03-1.5.77-.19,1.62-.36,2.42-.35.97.02,1.11.64,1.33,1.45.17.64.3,1.3.37,1.96.1.89.06,1.5-.66,2.11-1.39,1.18-3.21.81-4.83.45-.22-.05-.85.29-.45.38,2,.44,4.18.7,5.86-.73.82-.7.92-1.38.81-2.41-.1-.95-.23-2.28-.78-3.1-.49-.73-1.63-.53-2.37-.44-1.12.12-2.21.41-3.28.77-1.18.4-2.32.92-3.45,1.46-.28.14-.56.27-.84.41-.11.06-.24.14-.37.17-.17.04-.98-.01-1.12-.16-.14-.16-.13-.62-.17-.82-.06-.38-.12-.75-.17-1.13-.44-2.96-.71-5.95-.83-8.94,0-.22-.74-.08-.72.19h0Z"/>
  <path class="st9" d="M380.73,471.29c-.29,2.59-.26,5.21.12,7.79.22,1.47.52,5.07,2.88,4.3.43-.14.33-.55-.11-.41-1.12.36-1.51-1.32-1.68-2.06-.23-1.04-.4-2.09-.51-3.15-.23-2.18-.22-4.37.03-6.54.04-.32-.7-.2-.73.08h0Z"/>
  <path class="st9" d="M355.15,473.34c-.07,1.52.19,3.02.46,4.51.24,1.37.54,2.73,1.24,3.96.09.16.36.1.49.05.12-.05.23-.09.35-.14.2-.08.31-.37.05-.45-.28-.08-.34-.64-.4-.88-.09-.34-.19-.67-.28-1.01-.19-.7-.39-1.39-.58-2.09-.09-.33-.82-.14-.72.19.24.85.47,1.7.71,2.55.15.54.21,1.52.86,1.71l.05-.45c-.12.05-.23.09-.35.14l.49.05c-.67-1.18-.94-2.51-1.18-3.83-.26-1.45-.52-2.9-.45-4.37.02-.37-.72-.27-.73.06h0Z"/>
  <path class="st9" d="M365.91,472.37c.02.9.09,1.86.63,2.62s1.48,1.21,2.32,1.45c2.12.6,4.53-.7,6.5-1.29,1.17-.35,2.81-.82,3.56.49.55.97.46,2.43.35,3.51-.35,3.33-4.38,1.6-6.46,1.63-.3,0-.76.46-.27.46,1.89-.02,3.8.91,5.65.18s1.86-2.4,1.83-4.11c-.02-.83-.11-1.74-.72-2.36-.55-.57-1.34-.69-2.1-.64-1.94.14-3.72,1.14-5.6,1.58-1.33.31-2.55.23-3.71-.54-1.04-.69-1.23-1.89-1.26-3.06,0-.33-.73-.19-.73.08h0Z"/>
  <path class="st9" d="M354.89,475.82c.17,2.04.8,4.02,1.83,5.79.13.23.83-.02.72-.19-1.03-1.77-1.65-3.75-1.83-5.79-.02-.22-.75-.07-.72.19h0Z"/>
  <path class="st10" d="M366.31,463.44c-2.24.2-4.5.27-6.75.22-1.1-.02-2.21-.08-3.31-.17-.84-.07-1.68-.21-2.49.09-.51.19-1.16.66-.76,1.27.44.67,1.59.45,2.25.41,2.23-.12,4.47-.24,6.7-.36.28-.02,1.56-.52.75-.71-2.59-.61-5.26-.47-7.89-.32-.29.02-.72.09-.91.33-.16.19-.11.34.16.38l.42.06c.31.04.79-.05,1.02-.27.19-.19.21-.38-.11-.43l-.42-.06-.75.71c2.53-.15,5.08-.29,7.58.3l.75-.71c-1.74.09-3.47.19-5.21.28-.45.02-.91.05-1.36.07-.37.02-1,.17-1.35.02-.19-.09-.2-.25-.28-.4-.07-.14-.16-.04,0-.05.43-.04.93.08,1.36.11,3.46.25,6.92.21,10.37-.1.2-.02.82-.18.83-.45.01-.3-.41-.25-.61-.23h0Z"/>
  <path class="st10" d="M354.88,464.87l1.9-.02c.18,0,.4-.09.54-.2.11-.09.24-.25.25-.4.01-.38-.36-.51-.68-.51l-1.9.02c-.18,0-.4.09-.54.2-.11.09-.24.25-.25.4-.01.38.36.51.68.51h0Z"/>
  <path class="st10" d="M365.82,464.4c.31-.02.62-.06.93-.06h-.19s.06,0,.09,0l-.17-.03s.05.01.08.02l-.14-.06s.05.03.07.04l-.1-.09s.07.07.09.12l-.06-.11c.06.12.08.25.08.38v-.13s0,.02,0,.03c-.01.07,0,.13.04.19.02.06.07.11.13.15.13.09.34.11.49.09.19-.02.39-.08.55-.2l.13-.11c.07-.07.11-.15.13-.25,0-.16,0-.34-.07-.49-.04-.09-.08-.18-.15-.25-.11-.11-.22-.18-.36-.23-.27-.09-.57-.05-.84-.03l-.57.04c-.18.01-.4.09-.55.2-.11.08-.25.22-.26.36-.02.36.38.45.66.43h0Z"/>
  <path class="st10" d="M382.27,467.1c2.59.31,5.19.62,7.81.61.65,0,6.09-.1,4.73-1.84-.58-.74-1.65-.97-2.53-1.05-1.13-.1-2.27-.07-3.4-.07-2.64,0-5.27.03-7.88-.39l.05.89c.39-.19,1.2.37,1.55.52.44.19.88.37,1.33.53.95.33,1.94.58,2.93.75,2.02.34,4.09.33,6.11-.02.31-.05,1.07-.36.74-.81-.55-.74-1.52-.74-2.34-.56-1.19.25-2.14.29-3.21-.38l-.25.8c.81-.37,1.63-.72,2.48-.96.37-.11.77-.23,1.16-.27.19-.02.48-.07.62.12l.05.14c-.04.27.09.25.4-.06-.32-.18-.75-.11-1.04.1-.22.16-.41.53-.09.7.66.37,1.63.4,2.06-.35.34-.59.04-1.25-.55-1.51-.82-.36-1.82-.08-2.64.14-1.06.28-2.09.7-3.09,1.16-.28.13-.64.55-.25.8.79.49,1.68.78,2.61.8.43,0,.85-.03,1.26-.12.5-.1,1.11-.41,1.48.08l.74-.81c-2.24.39-4.53.35-6.74-.18-1.11-.27-2.19-.65-3.22-1.14-.91-.43-1.77-.71-2.73-.25-.5.24-.56.79.05.89,2.04.33,4.1.39,6.16.4,1.03,0,2.06,0,3.08,0,.9,0,1.88-.05,2.76.18.22.06.97.28.99.56.12-.12.06-.12-.18,0l-.24.05c-.25.05-.51.08-.77.1-1.06.09-2.14.09-3.2.05-2.11-.08-4.21-.33-6.31-.59-.68-.08-1.49.88-.52,1h0Z"/>
  <path class="st10" d="M237.35,470.64c-.57-.01-1.15,0-1.72.03-.19.01-.39.06-.56.13-.12.05-.31.12-.4.22-.05.06-.11.14-.03.2.1.07.26.06.37.05.13,0,.26-.01.38-.02.07,0,.13,0,.2,0,.05,0,.27,0,.06,0,.26,0,.51,0,.77,0,.18,0,.36-.02.53-.07.16-.04.36-.11.49-.21.06-.04.21-.13.17-.22s-.17-.11-.26-.11h0Z"/>
  <path class="st10" d="M243.29,471.32c.35-1.18-1.15-1.32-1.94-1.19-.62.1-1.21.23-1.84.26-.72.04-1.44.08-2.16.1-1.43.05-2.75-.13-4.16-.37-.57-.1-1.17-.21-1.74-.09-.38.08-1,.23-1.05.68l.04.05c.7.51,1.53.68,2.37.76.46.04,1.01-.02,1.46.09.2.05.34.16.55.19.19.02.38,0,.58-.02,1.13-.09,2.27-.22,3.4-.33.97-.09,2.06-.34,2.87.35.28.25,1.56-.32,1.37-.49-.63-.55-1.49-.59-2.28-.54-1.08.06-2.16.2-3.24.3-.23.02-.45.04-.68.07-.26.03-.65.14-.91.09-.31-.06-.55-.18-.88-.2-.93-.06-1.93-.03-2.78-.47-.1-.05-.21-.11-.3-.18-.96.1-1.15.16-.57.19.21.03.41.06.62.09.55.09,1.09.22,1.65.29.99.14,1.98.14,2.98.1s2.02-.05,3.01-.16c.45-.05.92-.24,1.37-.25.51,0,1.03.39.86.94-.08.26,1.32.09,1.43-.26h0Z"/>
  <path class="st3" d="M336.47,370.27c1.78-.23,3.5-.81,5.05-1.72.2-.12.43-.41.13-.56s-.75-.02-1.03.14c-1.25.74-2.55,1.17-3.95,1.35-.27.03-.76.18-.82.49s.44.33.62.31h0Z"/>
  <path class="st3" d="M350.62,369.31l-3.93.04c-.31,0-.76.11-.96.38s.18.36.37.35l3.93-.04c.31,0,.76-.11.96-.38s-.18-.36-.37-.35h0Z"/>
  <path class="st3" d="M339.67,379.74l2.62-.03c.2,0,.38-.02.57-.11.13-.06.31-.17.38-.31.05-.11.08-.25-.01-.35s-.26-.17-.4-.16l-2.62.03c-.2,0-.38.02-.57.11-.13.06-.31.17-.38.31-.05.11-.08.25.01.35s.26.17.4.16h0Z"/>
  <path class="st3" d="M344.75,396.45c1.68.04,3.35-.33,4.82-1.15.24-.13.57-.42.35-.71-.2-.27-.72-.24-.98-.09-.31.17-.62.32-.95.46-.02,0-.29.11-.16.06-.07.02-.14.05-.21.07-.17.05-.34.1-.5.14s-.34.08-.51.11c.14-.03-.09.01-.1.01-.1.01-.2.03-.3.04-.17.02-.35.03-.52.04-.07,0-.15,0-.22,0-.09,0-.1,0-.04,0-.05,0-.1,0-.15,0-.34,0-.78.1-.95.43-.15.3.13.57.43.57h0Z"/>
  <path class="st3" d="M358.86,395.65l-4.25.72c-.26.04-.75.17-.83.48s.45.31.62.29l4.25-.72c.26-.04.75-.17.83-.48s-.45-.31-.62-.29h0Z"/>
  <path class="st3" d="M348.14,406.26c1.29.15,2.58-.17,3.67-.88.26-.17.36-.58.07-.77-.33-.21-.73-.11-1.04.08-.07.04-.06.04.03-.02-.03.02-.06.03-.09.05-.05.03-.1.06-.15.08-.11.06-.22.11-.34.16-.02,0-.05.02-.07.03-.05.02-.03.01.07-.03-.03-.01-.16.05-.19.06-.11.03-.22.07-.34.09-.06.01-.11.02-.17.04-.06.01-.03,0,.08-.01-.03,0-.07.01-.1.01-.11.02-.23.03-.35.03-.11,0-.24.03-.35,0,.1,0,.12,0,.04,0-.03,0-.07,0-.1,0-.07,0-.13-.01-.2-.02-.33-.04-.81.11-.94.45s.12.59.45.63h0Z"/>
  <path class="st3" d="M360.58,404.77c-1.38.1-2.76.48-3.98,1.14-.23.12-.58.41-.36.69.2.26.72.22.98.08s.53-.27.81-.39c.08-.03.16-.06.24-.09.06-.02.18-.07.05-.02.14-.06.31-.1.46-.15.14-.04.29-.08.43-.11.07-.02.15-.03.22-.05.02,0,.25-.05.15-.03s.13-.02.15-.02c.07-.01.15-.02.22-.03.16-.02.32-.03.48-.04.3-.02.76-.21.81-.56s-.4-.44-.66-.42h0Z"/>
  <path class="st3" d="M351.82,417.59c1.88-.11,3.71-.5,5.47-1.18.18-.07.61-.33.39-.57s-.72-.1-.96,0c-1.37.53-2.82.86-4.33.95-.33.02-.76.1-.96.39-.18.27.15.43.39.41h0Z"/>
  <path class="st3" d="M365.98,417.94c-1.81-.28-3.65-.03-5.32.73-.21.09-.59.37-.37.63s.72.16.97.04c.17-.08.35-.15.52-.22,0,0,.23-.08.12-.04.1-.03.21-.07.31-.1.38-.11.58-.15.91-.2.68-.1,1.3-.11,1.99,0,.35.05.76-.01,1.02-.27.2-.2.17-.52-.15-.57h0Z"/>
  <path class="st3" d="M357.25,429.66l4.52-1.22c.18-.05.71-.23.64-.51s-.64-.17-.81-.12l-4.52,1.22c-.18.05-.71.23-.64.51s.64.17.81.12h0Z"/>
  <path class="st3" d="M370.48,432.19c-2.22-.65-4.68-.32-6.66.85-.18.11-.44.36-.14.5s.77,0,1.02-.15c1.39-.82,3.03-1.02,4.62-.55.33.1.72.02,1.02-.15.15-.08.48-.4.14-.5h0Z"/>
</svg>