<?xml version="1.0" encoding="UTF-8"?>
<svg id="Layer_1" xmlns="http://www.w3.org/2000/svg" version="1.1" viewBox="0 0 595.28 841.89">
  <!-- Generator: Adobe Illustrator 29.0.1, SVG Export Plug-In . SVG Version: 2.1.0 Build 192)  -->
  <defs>
    <style>
      .st0 {
        fill: #1f2020;
      }

      .st1 {
        fill: #3c3c3c;
      }

      .st2 {
        fill: #d25d58;
      }

      .st3 {
        fill: #2c2d2d;
      }

      .st4 {
        fill: #151112;
      }

      .st5 {
        fill: #292929;
      }

      .st6 {
        fill: #231f20;
      }

      .st7 {
        fill: #2f3030;
      }

      .st8 {
        fill: #ed1c24;
      }

      .st9 {
        fill: #2d2e2e;
      }

      .st10 {
        fill: #373737;
      }

      .st11 {
        fill: #303030;
      }

      .st12 {
        fill: #252525;
      }

      .st13 {
        fill: #353636;
      }

      .st14 {
        fill: #fff;
      }

      .st15 {
        fill: #282828;
      }

      .st16 {
        fill: #9e5c9f;
      }

      .st17 {
        fill: #2f1e2e;
      }

      .st18 {
        fill: #1e1f1f;
      }

      .st19 {
        fill: #2a292a;
      }

      .st20 {
        fill: #af87ae;
      }

      .st21 {
        fill: #2e2f2e;
      }

      .st22 {
        fill: #f6f6f5;
      }

      .st23 {
        fill: #383838;
      }

      .st24 {
        fill: #c35c82;
      }

      .st25 {
        fill: #2a2a2a;
      }

      .st26 {
        fill: #c82429;
      }

      .st27 {
        fill: #202020;
      }

      .st28 {
        fill: #191919;
      }

      .st29 {
        fill: #4b4444;
      }

      .st30 {
        fill: #343535;
      }

      .st31 {
        fill: #ef4136;
      }

      .st32 {
        fill: #e6e7e8;
      }

      .st33 {
        fill: #c82428;
      }

      .st34 {
        fill: #be90bb;
      }

      .st35 {
        fill: #2e2e2e;
      }

      .st36 {
        fill: #c7a3ca;
      }
    </style>
  </defs>
  <g>
    <path class="st26" d="M188.71,481.68c-6.42,1.23,1.28,10.92.57,15.02l6.36.89v-3.99c6.4-.57,11.09,5.76,17.83,1.99v-1.99c-7.36-.6-14.07-4.79-19.81-8.94-.97-.7-4.41-1.2-4.95-2.98Z"/>
    <path class="st33" d="M178.27,481.66c-.26.33-2.02-1.28-2.07,2.42-.02,1.04,2.61,12.95,3.11,13.42.22.21,5.19.27,5.76-.08.77-.48.41-3.63,1.75-3.92,4.21-.9,11.26,6.78,16.2,1.56l-15.77-7.01c-1.44-.37-2.41-2.99-3.04-3.4-.88-.57-4.88-.46-5.94-2.98Z"/>
    <path class="st22" d="M165.34,442.82c2.89-3.58,4.3,3.75,5.94,1.98.97-1.05-2.62-4.55.48-3.96l7.92,3.98c1.05.05.27-1.35.51-2-1.9-2.54-2.13-5.21-2.97-7.95-2.35-3.79-3.19-6.06-4.95-9.94-.29-.64-.67-1.21-.99-1.99-.9-2.18-1.49-4.71-1.98-5.96-.65-1.65-1.37-3.3-1.98-4.97-2.58-1.56-3.86-5.06-3.96-7.95-.18-.31-.73-.59-.99-.99-1.08-1.68-1.62-3.88-2.95-5.48l.97-.48c-.74-1.27-1.29-2.67-1.98-3.97-1.91-3.61-2.55-5.38-3.96-8.94-.77-1.93-1.27-3.99-1.98-5.96-4.23-.72-3.58-3.68-3.96-6.96-5.08-2.61-4.06-1.23-8.91-1.99-1.77-.28-6.18-1.92-5.77-4.25.35-2,2.91-7.89,5.77-6.67l.99,2.97c2.83-4.03-.2-4.82,0-8.94-1.13-2.16-2.9-3.72-2.97-3.97-.64.06-1.35-.09-1.98,0-4.51.68-8.24-.07-10.89,3.97.89,1.47,1.3,2.71,1.98,3.97,1.85,3.42,4.97,6.72,4.95,10.93.15.27.75.55.99.99,1.64,2.95,2.07,6.4,2.97,8.94,2.13,3.84,3.15,5.76,4.95,9.94.27.62.68,1.17.99,1.99,1.05,2.81,1.96,4.95,2.97,7.95,2.81,4.97,3.42,6.67,4.95,11.92,3.08,5.31,3.17,4.88,4.95,10.93,1.9,3.56,3.31,6.15,4.95,9.94,1.93,4.46,2.57,6.46,3.96,10.93.38.68,1.57,1.3,1.98,1.99Z"/>
    <path class="st22" d="M144.55,397.12c-.22-.38-.47-.76-.75-1.14.23.38.48.76.75,1.14Z"/>
    <path class="st22" d="M176.24,459.71c3.37-.56,7.88-2.45,10.89-1.99-.19-1.17-.73-2.02-.99-2.98l-4.95-8.94c-1.81,1.46-6.3-1.94-7.23-1.81-1.33.19-4.27,3.17-6.63,2.8.2.86-.23,2.22,0,2.98,1.76,3.24,4.24,6.17,4.95,9.94,1.16-.1,1.88.35,3.96,0Z"/>
    <path class="st16" d="M186.63,468.58c2-.66,4.01-.46,6.44-.08h.91c-.62-1.28-1.27-2.54-1.9-3.81-1.48,2.55-5.07.56-5.8,1.14-.55.44.54,2.26-1.12,1.83l-.99-3.97c3.44,2.16,1.58-.75,2.21-2.49.55-1.51,1.57,1.54.76-3.47-1.72,2.31-9.49,5.04-10.89,1.99,1.08,3.35-3.06,2.44-.99,4.96h-1.98c.57,1.63.65,2.44.99,3.98,0,.02.02.05.02.08l12.35-.16Z"/>
    <path class="st16" d="M194.06,468.65c-.03-.06-.06-.11-.09-.17h-.91c.32.06.65.12,1,.17Z"/>
    <path class="st16" d="M180.2,469.66c1.67-.7,2.43.81,2.97.98,1.2-1.05,2.33-1.69,3.46-2.07l-12.35.16c.22.81,1.14,1.9.97,2.9,1.09-.15,2.22.9,2.97.99,3.65.47,3.33.05,1.98-2.97Z"/>
    <path class="st16" d="M176.24,459.71c1.4,3.05,9.18.32,10.89-1.99-3.01-.46-7.52,1.42-10.89,1.99Z"/>
    <path class="st17" d="M186.63,468.58l6.44-.08c-2.43-.38-4.44-.57-6.44.08Z"/>
    <path class="st4" d="M174.26,468.65s-.07.05-.1.08h.02s.05-.05.08-.08Z"/>
    <path class="st4" d="M174.28,468.73s-.02-.05-.02-.08c-.03.03-.05.05-.08.08h.1Z"/>
    <path class="st2" d="M135.63,348.43l-6.93-2.98c-2.42.49-5.07-.17-6.93,2.5-.5,1.9,2.13,1.88,2.71,2.74.47.69.13,1.52.25,1.72-.03-4.94,3.6-6.27,10.89-3.97Z"/>
    <path class="st2" d="M135.63,348.43c-7.29-2.29-10.93-.97-10.89,3.97,2.65-4.04,6.38-3.3,10.89-3.97Z"/>
    <path class="st25" d="M140.59,361.35v.99c4.37-.73,9.51.95,13.88-.5-3.89-.53-.54-2.95-1-3.47-1.49-1.67-2.95,2.87-3.47,3.01-3.12.8-2.04-1.84-2.97-2.03-2.66-.55-.4,2.04-2.46,1.99.23-3.67-2.54-6.19-3.97-8.94,3.14,5.73,3.14,8.72,0,8.94Z"/>
    <path class="st25" d="M140.59,361.35c3.14-.23,3.14-3.21,0-8.94-.2,4.12,2.83,4.92,0,8.94Z"/>
    <path class="st36" d="M183.17,470.64c-.08,3.74-3.41,5.14-4.95,1.99-1.91,6.16,10.68,1.44,12.87,0-4.29,1.43-6.93.77-7.92-1.99Z"/>
    <path class="st36" d="M183.17,470.64c-.54-.17-1.3-1.68-2.97-.98,1.35,3.02,1.67,3.44-1.98,2.97,1.54,3.16,4.87,1.75,4.95-1.99Z"/>
    <path class="st36" d="M191.09,472.63c-2.6-.53-5.36-1.17-7.92-1.99.99,2.76,3.63,3.42,7.92,1.99Z"/>
    <path class="st34" d="M189.08,460.94c-1.72,1.95-.72,3.2,3,3.74-1.51-3.08-1.92-6.49-4.95-6.96,1.12.74,1.59,1.96,1.95,3.21Z"/>
    <path class="st34" d="M186.37,461.19c-.63,1.74,1.23,4.65-2.21,2.49l.99,3.97c1.66.43.58-1.4,1.12-1.83.73-.59,4.32,1.4,5.8-1.14-3.72-.54-4.72-1.79-3-3.74-.36-1.25-.83-2.47-1.95-3.21.82,5.01-.21,1.96-.76,3.47Z"/>
    <path class="st35" d="M140.59,361.35c-5.95-.95-8.28,5.85-.99,7.95v-.99c-5.85-1.15-4.31-5.07.99-5.96-.86-.28-.85-.61,0-.99Z"/>
    <path class="st35" d="M140.59,361.35l-.99-2.97c-2.86-1.21-5.42,4.67-5.77,6.67-.4,2.32,4,3.97,5.77,4.25-7.29-2.1-4.96-8.9.99-7.95Z"/>
    <path class="st35" d="M140.59,362.34v-.99c-.85.38-.86.71,0,.99Z"/>
    <path class="st0" d="M145.54,366.31c1.29,1.38,11.59.64,8.91-1.97-.72-.71-10.09-2.44-8.91,1.97Z"/>
    <path class="st24" d="M135.63,348.43c.37-2.64,1.2-2.5,1.98,0-.06-.23,2.44-2.84-.65-3.82-3.39-1.07-5.64.3-8.27.84,4.5-.57,6.81.43,6.93,2.98Z"/>
    <path class="st24" d="M135.63,348.43c.63-.09,1.34.06,1.98,0-.78-2.5-1.61-2.64-1.98,0Z"/>
    <path class="st24" d="M128.7,345.45l6.93,2.98c-.12-2.55-2.43-3.55-6.93-2.98Z"/>
    <path class="st35" d="M154.45,419.97l-4.95-10.93c1.72,5.91,2.28,5.93,4.95,10.93Z"/>
    <path class="st35" d="M154.45,419.97c-1.78-6.05-1.87-5.62-4.95-10.93l4.95,10.93Z"/>
    <path class="st13" d="M186.14,454.74c-.98-3.59-1.05-8.55-4.94-10.93-.14.56.15,1.86,0,1.99,2.25,1.54,3.9,4.53,4.95,8.94Z"/>
    <path class="st13" d="M181.19,445.8l4.95,8.94c-1.05-4.42-2.7-7.4-4.95-8.94Z"/>
    <path class="st7" d="M149.5,409.04l-4.95-11.92c1.94,5.76,1.61,6.17,4.95,11.92Z"/>
    <path class="st7" d="M149.5,409.04c-1.53-5.25-2.14-6.95-4.95-11.92l4.95,11.92Z"/>
    <path class="st21" d="M158.41,429.9c1.83,4.42,2.41,6.42,4.95,10.93-1.75-3.61-3.07-7.25-3.96-10.93h-.99Z"/>
    <path class="st21" d="M163.36,440.83c-1.39-4.47-2.03-6.47-3.96-10.93.9,3.68,2.22,7.32,3.96,10.93Z"/>
    <path class="st23" d="M131.67,367.31c-1.86-3.58-3.51-7.23-4.95-10.93-.82,4.47,3.2,7.71,4.95,10.93Z"/>
    <path class="st23" d="M131.67,367.31c.02-4.21-3.1-7.51-4.95-10.93,1.44,3.7,3.09,7.35,4.95,10.93Z"/>
    <path class="st28" d="M139.6,369.3c1.12-.52,8.29-.25,8.64.37.25.45.29,1.01.27,1.62.23.12.67-.08.99,0-.85-3.91,4.18-.46,4.95-2.97-4.45-.61-10.7.81-14.85-.01.86.28.85.61,0,.99Z"/>
    <path class="st28" d="M148.24,369.67c-.35-.62-7.52-.89-8.64-.37,4.85.76,3.83-.62,8.91,1.99.02-.6-.02-1.17-.27-1.62Z"/>
    <path class="st28" d="M139.6,368.3v.99c.85-.38.86-.71,0-.99Z"/>
    <path class="st3" d="M176.44,430.22c-.26-.75-3.69-7.69-4.17-5.28,2.36,2.79,4.01,6.1,4.95,9.94-.34-1.12-.12-2.71-.78-4.65Z"/>
    <path class="st3" d="M172.27,424.94c1.76,3.88,2.6,6.14,4.95,9.94-.94-3.83-2.59-7.15-4.95-9.94Z"/>
    <path class="st20" d="M172.27,459.71c-.15.01-.6.83-.99.99.55,1.46,1.61,2.93,1.98,3.97,0-1.21.12-2.15.47-2.91-.61-.15-1.16-.8-1.46-2.05Z"/>
    <path class="st20" d="M172.27,459.71c.3,1.26.85,1.9,1.46,2.05.41-.9,1.15-1.55,2.5-2.05-2.08.35-2.8-.1-3.96,0Z"/>
    <path class="st20" d="M176.24,459.71c-.66,1.5-1.65,2.26-2.5,2.05-.35.77-.46,1.71-.47,2.91h1.98c-2.07-2.53,2.07-1.62.99-4.97Z"/>
    <path class="st20" d="M173.73,461.77c.85.21,1.84-.56,2.5-2.05-1.35.51-2.09,1.16-2.5,2.05Z"/>
    <path class="st30" d="M159.12,429.44c-1.86-2.93-3.42-6.08-4.67-9.47,1.42,4.81,2.24,5.77,3.96,9.94.21-.61.45-.75.71-.46Z"/>
    <path class="st30" d="M159.4,429.9c-1.64-3.78-3.05-6.38-4.95-9.94,1.25,3.39,2.81,6.55,4.67,9.47.09.1.19.25.28.46Z"/>
    <path class="st30" d="M159.12,429.44c-.26-.29-.5-.14-.71.46h.99c-.1-.15-.19-.31-.28-.46Z"/>
    <path class="st30" d="M159.12,429.44c.1.15.18.31.28.46-.1-.21-.19-.36-.28-.46Z"/>
    <path class="st12" d="M172.27,459.71c-1.86-3.04-3.52-6.35-4.95-9.94,1.28,4.21,2.43,6.83,3.96,10.93-.22-1.22-.18-1.54.99-.99Z"/>
    <path class="st12" d="M167.32,449.78c1.44,3.59,3.09,6.9,4.95,9.94-.71-3.76-3.19-6.7-4.95-9.94Z"/>
    <path class="st12" d="M172.27,459.71c-1.18-.54-1.21-.23-.99.99.39-.17.84-.98.99-.99Z"/>
    <path class="st19" d="M139.61,388.17l.98-.99c-1.99-2.91-3.65-6.22-4.95-9.94,1.3,3.66,2.39,7.36,3.97,10.93Z"/>
    <path class="st19" d="M140.59,387.18c-1.8-4.17-2.82-6.09-4.95-9.94,1.31,3.72,2.96,7.03,4.95,9.94Z"/>
    <path class="st10" d="M177.23,434.87c1.71,2.48,2.7,5.13,2.97,7.95,1.77-4.84-1.15-5.01-2.97-7.95Z"/>
    <path class="st10" d="M177.23,434.87c.84,2.74,1.07,5.4,2.97,7.95-.27-2.82-1.26-5.47-2.97-7.95Z"/>
    <path class="st5" d="M167.32,446.8c-.05-.22-1.68-3.47-1.98-3.97-.65.35-1.31-.31-1.98-1.99,1.52,4.9,1.69,4.76,3.96,8.94-.67-1.32-.67-2.31,0-2.98Z"/>
    <path class="st5" d="M165.34,442.82c-.41-.68-1.6-1.31-1.98-1.99.67,1.67,1.33,2.34,1.98,1.99Z"/>
    <path class="st5" d="M167.32,446.8c-.67.67-.67,1.66,0,2.98-.23-.77.2-2.12,0-2.98Z"/>
    <path class="st29" d="M148.51,371.28c.79,2.58,2.11,4.9,3.96,6.96-.84-2.33-1.71-4.82-2.97-6.96-.24.87-.57.85-.99,0Z"/>
    <path class="st29" d="M152.47,378.24c-1.85-2.05-3.17-4.37-3.96-6.96.39,3.28-.27,6.23,3.96,6.96Z"/>
    <path class="st29" d="M148.51,371.28c.42.85.75.87.99,0-.32-.08-.76.12-.99,0Z"/>
    <path class="st15" d="M163.36,404.07c.91,2.84,2.13,5.57,3.96,7.95-1.53-4.15-1.92-4.48-3.96-7.95Z"/>
    <path class="st15" d="M167.32,412.02c-1.83-2.38-3.05-5.11-3.96-7.95.1,2.89,1.38,6.39,3.96,7.95Z"/>
    <path class="st9" d="M154.45,384.2c1.92,2.66,3.21,5.77,3.96,8.94.2-3.04-1.49-7.04-3.96-8.94Z"/>
    <path class="st9" d="M154.45,384.2c1.41,3.56,2.05,5.33,3.96,8.94-.75-3.17-2.04-6.28-3.96-8.94Z"/>
    <path class="st11" d="M140.63,389.77c-.1,2.38,1.79,4.3,3.17,6.21-1.41-2.3-2.15-4.57-2.22-6.81l-.95.6Z"/>
    <path class="st11" d="M143.8,395.98c.27.38.53.76.75,1.14-1.01-3-1.92-5.14-2.97-7.95.07,2.24.82,4.51,2.22,6.81Z"/>
    <path class="st18" d="M135.63,377.24c-1.72-2.88-2.71-5.86-2.97-8.94-2.42,2.07,1.68,6.62,2.97,8.94Z"/>
    <path class="st18" d="M135.63,377.24c-.9-2.54-1.33-5.99-2.97-8.94.26,3.08,1.26,6.06,2.97,8.94Z"/>
    <path class="st27" d="M160.39,397.12c.89,1.3,1.55,3.29,1.98,5.96,3.04-2.35-1.29-4.78-1.98-5.96Z"/>
    <path class="st27" d="M162.37,403.08c-.43-2.68-1.09-4.66-1.98-5.96l-.97.48c1.33,1.6,1.87,3.8,2.95,5.48Z"/>
    <path class="st1" d="M171.28,422.95c2.25-1.43-.03-5.09-1.98-5.96,1.38,1.64,2.62,3.82,1.98,5.96Z"/>
    <path class="st1" d="M169.3,416.99c.49,1.25,1.09,3.79,1.98,5.96.64-2.14-.6-4.33-1.98-5.96Z"/>
    <path class="st6" d="M184.15,484.09c-.04-1.33-.98-2.41-2-3.17-.22-.16-.46-.31-.69-.45-.06-.04-.27-.21-.35-.2.19-.03.64.51.8.65-.12-.11-.07-.15,0,0-.19-.45-.4-.9-.59-1.36-.39-.94-.75-1.88-.96-2.88-.23-1.1-.39-2.22-.82-3.27s-1.78-1.77-2.78-2.03c-.64-.17-1.92-.26-1.49.78.37.89.47,1.84.67,2.78.24,1.1.61,2.16,1.03,3.19s.82,2.06,1.64,2.85c.32.31.67.57,1.04.81.14.09,1.15.76.38.18-.16-.08-.29-.19-.39-.32-.09-.1-.1-.11-.03-.02.06.08.06.08,0,0-.05-.08-.05-.07,0,.02,0,.03.08.32.08.49.01.41.42.86.69,1.11.44.43,1.05.82,1.62,1.05.45.18,2.19.78,2.15-.24h0Z"/>
    <path class="st6" d="M179.73,483.13c1.21,0,2.27-1.85.64-1.85-1.21,0-2.27,1.85-.64,1.85h0Z"/>
    <path class="st6" d="M177.42,478.96c.52,1.83,1.18,3.92,2.98,4.87.15.08.43.07.58.08.32.01.65,0,.96-.02.25-.02.51-.03.74-.11.05-.01.25-.07.12-.14-1.75-.93-2.39-3.01-2.89-4.78-.03-.09-.34-.1-.37-.11-.29-.03-.59-.03-.89-.02-.09,0-1.28.08-1.24.22h0Z"/>
    <path class="st6" d="M178.36,482.17c.38.35.83.61,1.31.79.2.07.43.04.63-.01.15-.04.3-.09.44-.15.16-.06.3-.13.45-.22l.25-.17c.13-.09.24-.21.34-.34.06-.11.14-.3-.03-.36-.49-.17-.93-.44-1.31-.79-.09-.04-.18-.05-.27-.04-.12,0-.25.01-.37.05-.15.04-.3.09-.44.15-.16.06-.3.13-.45.22l-.25.17c-.13.09-.24.21-.34.34l-.07.15c-.02.1.01.17.1.21h0Z"/>
    <path class="st6" d="M181.55,483.33s-.36-.03-.23-.01c.02,0,.04,0,.06,0,.17.02-.39-.05-.22-.03.02,0,.04,0,.06,0,.06,0-.4-.08-.26-.05.01,0,.03,0,.04,0,.13.03-.33-.09-.21-.05.03,0,.06.02.09.02,0,0,.01,0,.02,0,.08.02.01,0-.19-.06.01,0,.03,0,.04.01.06.02.13.05.19.08l-.18-.08c.14.06.27.14.39.23l-.11-.08s.05.04.07.05c.16.13.35.19.54.25.3.09.63.15.95.18l.3.02c.15,0,.31,0,.46-.03.06-.02.29-.08.16-.19-.29-.23-.61-.4-.96-.53-.7-.25-1.42-.37-2.16-.41-.12,0-.24,0-.36.01-.08,0-.16.02-.24.06-.06.03-.07.06-.04.1.02.06.06.1.13.12.22.12.48.19.72.24.32.07.63.1.96.12h0Z"/>
    <path class="st16" d="M183.77,470.88c1.14,0,2.51-.57,3.2-1.5.59-.78.32-1.56-.73-1.56-1.14,0-2.51.57-3.2,1.5-.59.78-.32,1.56.73,1.56h0Z"/>
    <path class="st16" d="M185.85,470.22c1.01,0,2.01.1,3,.34.19.05,2.12.53,1.96.81l.54-.31c-2.33,0-4.63-.39-6.84-1.13-.76-.26-1.09.95-.33,1.21,1.3.43,2.62.75,3.98.94.67.09,1.33.16,2.01.2.31.02.62.03.92.03.44,0,.75-.09.91-.54.2-.55-.03-1.15-.46-1.51-.46-.38-1.09-.55-1.66-.72-1.3-.38-2.66-.57-4.02-.57-.8,0-.81,1.25,0,1.25h0Z"/>
    <path class="st16" d="M186.1,470.62c1.34,0,2.68.1,3.99.32v-1.21c-.65.11-1.34.04-1.99-.2l-.17,1.23c.73,0,1.44.15,2.09.49l.32-1.16c-.62.02-1.24,0-1.85-.06-.28-.03-.52-.06-.79-.11-.16-.03-.32-.06-.48-.09-.08-.02-.16-.04-.24-.05l-.08-.02c.1.04.17.13.22.24v.33l.02-.04-.16.28.03-.03-.28.16c.08-.03,0,0-.03,0,.06,0,.14,0,.21,0h.37c.25,0,.49.01.74.01l-.44-1.07c.06-.05-.04.01-.06.03-.08.04.09,0-.06.02-.04,0-.09.01-.02,0-.07,0-.13,0-.19,0-.34-.03-.62.31-.62.62,0,.36.29.59.62.62.46.04.87-.13,1.23-.41.19-.15.22-.48.13-.68-.1-.23-.32-.38-.57-.38-.29,0-.58,0-.86-.01s-.64-.05-.91.1c-.38.22-.46.74-.19,1.08.21.27.52.34.83.4,1.14.23,2.3.34,3.46.3.59-.02.89-.87.32-1.16-.84-.44-1.77-.67-2.72-.66-.31,0-.58.24-.61.54-.04.32.15.58.45.69.86.31,1.77.35,2.66.2.6-.1.6-1.1,0-1.21-1.43-.24-2.87-.37-4.32-.37-.34,0-.62.29-.62.62s.29.63.62.62h0Z"/>
    <path class="st16" d="M181.74,469.71c.45.08.74.42,1.06.71.44.41.91.72,1.51.85.66.14,1.35.21,2.02.32.73.12,1.46.25,2.19.38.33.06.67-.09.77-.44.08-.3-.1-.71-.44-.77-.71-.13-1.41-.26-2.12-.37s-1.4-.18-2.09-.33c-1.04-.22-1.5-1.38-2.57-1.56-.33-.06-.67.09-.77.44-.08.3.1.71.44.77h0Z"/>
    <path class="st16" d="M186.98,468.94h4.53c-.18-.31-.36-.62-.54-.94l-.02.05.22-.22s.21-.03-.05,0c-.1.01-.2.02-.3.03-.18.02-.37.04-.55.06-.38.04-.77.08-1.15.12-.77.08-1.53.16-2.3.24l.17,1.23c1.61-.38,3.24.33,4.7.94.28.12.63-.1.74-.36.12-.3,0-.6-.26-.78l-.22-.16c-.28-.2-.7-.05-.86.22-.18.31-.05.66.22.86l.22.16.48-1.14c-1.7-.71-3.5-1.38-5.36-.94-.3.07-.49.39-.45.69s.3.57.61.54c.88-.09,1.76-.19,2.65-.28.43-.05.87-.09,1.3-.14s1.06,0,1.28-.48c.19-.42-.03-.94-.54-.94h-4.53c-.8,0-.81,1.25,0,1.25h0Z"/>
    <path class="st16" d="M189.79,472.32c.22-.01.43,0,.65.02l-.17-.02c.25.04.49.1.72.18l-.28-1.04s-.03.03-.05.05l.13-.1s-.05.03-.07.04l.15-.06s-.04.01-.06.02l.17-.02s-.09,0-.13,0l.17.02c-.08-.01-.16-.04-.24-.07l.15.06c-.23-.1-.45-.24-.69-.32-.26-.09-.55-.13-.82-.12l.44,1.07h.02s-.08.05-.13.08c.01,0,.02-.02.03-.02l-.15.06s.04-.01.06-.02l-.17.02s.03,0,.04,0l-.17-.02s.04,0,.06.02l-.15-.06s.02.01.04.02l-.13-.1s.02.02.03.03l-.1-.13v.02c.11.14.22.24.39.29.15.04.35.02.48-.06.27-.17.42-.57.22-.86-.15-.21-.34-.35-.59-.38s-.49.05-.68.22-.22.46-.13.68.32.39.57.38c.1,0,.21,0,.31.01l-.17-.02c.16.02.32.07.47.13l-.15-.06c.24.11.46.25.71.32.35.1.77.04,1.02-.25.15-.17.22-.38.16-.61s-.23-.36-.44-.44c-.48-.18-1.02-.26-1.53-.23-.17,0-.32.06-.44.18-.11.11-.19.29-.18.44.01.32.28.64.62.62h0Z"/>
    <path class="st16" d="M192.36,468.01c.25.45.47.92.64,1.4.09.24.17.49.24.73.04.13.07.26.11.39.02.07.03.13.05.2.04.15-.01.01.01-.06l.16-.28.05-.04.32-.09c-.33.04-.66,0-.99.08-.35.09-.66.28-.92.53-.22.22-.34.36-.63.49-.17.08-.55.17-.8.23-.33.08-.52.45-.44.77.09.34.44.51.77.44.52-.11.88-.52,1.12-.97.26-.49.47-1,.71-1.5.25-.53.58-1.08.6-1.69s-.34-1.15-.91-1.35c-.52-.18-.99.47-.71.92.45.72.52,1.51.22,2.3l1.14-.15c-.33-.6-.61-1.23-.83-1.89-.11-.32-.43-.53-.77-.44s-.5.44-.44.77c.05.31.18.6.35.86.19.28.55.4.86.22.28-.16.41-.57.22-.86-.13-.19-.18-.34-.22-.56l-1.21.33c.25.76.57,1.49.95,2.18.12.22.38.33.62.3.26-.04.43-.21.52-.45.4-1.06.26-2.31-.34-3.27l-.71.92s-.05-.02-.07-.05c.05.05.06.05.02,0,.03.06.04.07.02.01.01.04.03.08.03.12-.03-.13,0,.09,0,.09,0,.07-.04.16-.07.23-.14.38-.34.74-.51,1.1s-.34.76-.53,1.13c-.03.06-.06.11-.09.17-.01.02-.14.2-.08.13-.01.02-.17.19-.1.1-.07.03-.07.04-.01.02-.04.01-.08.02-.12.03l.33,1.21c.65-.15,1.29-.35,1.78-.83.11-.11.21-.24.34-.33.04-.03.14-.06.23-.09.13-.03.2-.04.37-.04.21,0,.4.02.6-.09.42-.23.44-.66.34-1.07-.08-.33-.17-.65-.28-.97-.23-.69-.53-1.36-.88-2-.16-.3-.57-.39-.86-.22s-.39.56-.22.86h0Z"/>
    <path class="st16" d="M193.64,470.47c-.17.08-.34.16-.52.24-.02.01-.05.02-.07.03-.06.03-.05.02.04-.02,0,0-.11.04-.11.05-.09.04-.18.07-.26.1-.35.14-.71.26-1.07.37-.31.1-.54.44-.44.77s.43.54.77.44c.79-.24,1.56-.55,2.3-.9.3-.14.4-.59.22-.86-.2-.3-.54-.38-.86-.22h0Z"/>
    <path class="st16" d="M190.03,472.4c.8,0,.81-1.25,0-1.25s-.81,1.25,0,1.25h0Z"/>
    <path class="st16" d="M187.71,471.61c.43.12.85.26,1.27.41.21.07.41.15.62.23.11.04.21.08.32.13.05.02.09.04.14.06.03.01.23.09.08.03.16.07.3.11.48.06.14-.04.3-.15.37-.29.14-.27.1-.72-.22-.86-.89-.38-1.79-.71-2.72-.97-.31-.09-.69.11-.77.44s.1.67.44.77h0Z"/>
    <path class="st6" d="M189.42,473.26l.46,4.14.23,2.07c.03.29.06.58.09.87.04.41.02-.32,0,.04-.04.17-.04.16.01-.02-.03.06-.07.12-.12.18l.25-.26c-.09.08-.18.14-.3.19l.34-.11s-.26.05-.26.05c.09-.15.8.36.83.39l.82.98.23.44.27,1.59c1-2.86.66-6.08-.54-8.83-.25-.57-.65-1.16-1.13-1.57-.28-.25-.85-.64-1.27-.57-1.08.19-.75,1.65-.45,2.33.06.13.11.26.16.39.03.07.05.13.07.2.1.24-.1-.27-.09-.25.16.24.2.67.26.95.01.07.03.14.04.21.05.23-.03-.19-.03-.19,0,.14.04.28.06.42.03.3.06.61.06.91,0,.16.03.34,0,.49,0-.01.02-.33,0-.12,0,.07,0,.14-.01.21-.03.3-.06.6-.12.9-.14.76-.52,1.52-.39,2.3.23,1.33,1.25,2.84,2.6,3.24.66.19,1.38-.03,1.78-.6.44-.62.41-1.5.34-2.22-.07-.66-.15-1.33-.22-1.99l-.53-4.7c-.07-.61-.28-1.19-.6-1.71-.29-.47-.75-1.04-1.26-1.3-.33-.17-.82-.4-1.17-.14s-.45.7-.4,1.11h0Z"/>
    <path class="st31" d="M188.31,481.71c-2.27.92-2.32,3.73-1.67,5.71.44,1.34,1.13,2.59,1.61,3.93.55,1.52.88,3.09,1.05,4.7.02.23.27.49.42.65.03.04.39.38.38.26-.14-1.39-.42-2.75-.83-4.08s-1.08-2.65-1.61-3.99c-.81-2.06-1.07-5.18,1.43-6.19.05-.02-.54-1.08-.78-.98h0Z"/>
    <path class="st31" d="M194.37,493.87c.11,1.2.16,2.4.15,3.6,0,.5,1.16.09,1.17-.35,0-1.2-.04-2.41-.15-3.6-.02-.27-.38-.25-.57-.19s-.62.27-.6.54h0Z"/>
    <path class="st31" d="M194.94,493.63c1.43-.6,3.02-.08,4.43.31s2.77.77,4.16,1.15l.86-.63-.38-.16-1.08.58c3.07,1.95,7.08,2.7,10.33.74.73-.44-.04-.47-.47-.21-2.69,1.62-6.38.4-8.82-1.15-.23-.14-1.24.42-1.08.58.27.28.46.31.84.26.13-.02,1.13-.55.86-.63-1.8-.5-3.6-1.06-5.42-1.49-1.39-.33-2.74-.42-4.08.14-.45.19-.93.83-.13.5h0Z"/>
    <path class="st31" d="M188.08,481.93c.32,1.2,1.19,2.1,2.18,2.79.48.34.94.68,1.54.76.66.1,1.33.16,1.99.02.19-.04-.28-1.14-.66-1.06-.52.11-1.07.05-1.59-.01-.25-.03-.51-.05-.74-.16-.2-.09-.37-.22-.55-.34-.33-.22-.66-.46-.95-.73-.13-.12-.24-.25-.34-.39,0,0-.04-.06-.07-.12-.02-.05-.05-.12-.07-.18-.08-.28-.24-.57-.47-.75-.17-.14-.33-.08-.26.16h0Z"/>
    <path class="st31" d="M189.58,483.11c.15,0-.76-.37-1.02-.37-.15,0,.76.37,1.02.37h0Z"/>
    <path class="st31" d="M188.15,482.99c.92,1.44,2.58,2.38,4.27,2.5.28.02.66-.06.75-.38.08-.29-.2-.54-.47-.56-.19-.01-.37-.03-.56-.07-.09-.02-.17-.03-.26-.06.09.02-.03,0-.05-.01-.05-.01-.09-.03-.14-.04-.18-.06-.35-.12-.53-.2-.05-.02-.09-.04-.13-.06-.02,0-.08-.04-.03-.01-.09-.05-.17-.09-.26-.15-.64-.38-1.13-.86-1.54-1.51-.16-.26-.63-.24-.86-.12-.28.15-.35.41-.18.66h0Z"/>
    <path class="st31" d="M192.73,485.01c3.33,2.22,6.68,4.43,10.36,6.05,1.69.74,3.44,1.36,5.21,1.87.98.28,1.98.52,2.98.72.24.05.95.07,1.11.26.21.23.05,1.07.05,1.39,0,.28,1.24.34,1.25.07.01-.51.25-1.38-.22-1.7-.16-.11-.44-.11-.62-.15-.6-.11-1.2-.23-1.8-.36-2.07-.47-4.1-1.11-6.07-1.91-3.99-1.63-7.59-4-11.17-6.38-.24-.16-1.38-.07-1.09.13h0Z"/>
    <path class="st31" d="M190.15,497.38c1.82-.09,3.59.53,5.4.44.39-.02-.15-1.11-.53-1.09-1.82.09-3.59-.53-5.4-.44-.39.02.15,1.11.53,1.09h0Z"/>
    <path class="st31" d="M189.35,496.53l-.05.18c-.02.07-.01.15.02.21.01.07.05.13.1.19.05.06.11.1.18.13.07.04.14.06.22.07h.17c.11-.02.21-.05.3-.12l.11-.1c.07-.07.11-.16.13-.26l.05-.18c.02-.07.01-.15-.02-.21-.01-.07-.05-.13-.1-.19-.05-.06-.11-.1-.18-.13-.07-.04-.14-.06-.22-.07h-.17c-.11.02-.21.05-.3.12l-.11.1c-.07.07-.11.16-.13.26h0Z"/>
    <path class="st31" d="M212.42,495.31c-1.26.55-2.65.74-4.01.55s-2.67-.76-3.92-1.34c-.14-.06-.33-.02-.47.04-.03.01-.33.16-.21.21,1.47.69,2.98,1.33,4.62,1.45,1.51.11,3.03-.19,4.41-.8.12-.05.19-.11.09-.2s-.41.05-.51.09h0Z"/>
    <path class="st31" d="M210.55,496.28c.41,0,.8-.12,1.19-.25.37-.12.73-.24,1.1-.36.1-.03.36-.12.32-.27-.04-.14-.32-.11-.41-.08-.34.11-.68.23-1.02.34-.16.05-.32.11-.49.16-.04.01-.09.02-.13.03-.01,0-.12.02-.05.01-.1.02-.14.02-.21.02-.16,0-.38.05-.48.2s.08.21.19.21h0Z"/>
    <path class="st31" d="M194.97,493.77c.65-.75,2.11-.64,3.02-.59.83.04,1.63.23,2.43.44,1.55.42,3.03.95,4.53,1.52,2.61.99,5.39,1.75,8.1.66.46-.19.05-.55-.32-.41-3.56,1.44-7.18-.86-10.53-1.86-1.42-.43-2.86-.85-4.35-.88-1.2-.02-2.63-.06-3.48.92-.3.34.4.44.6.2h0Z"/>
    <path class="st31" d="M194.31,493.83l.2.85c.01.06.09.08.14.09.08.02.19,0,.27-.02s.18-.06.24-.12c.04-.04.09-.09.07-.15l-.2-.85c-.01-.06-.09-.08-.14-.09-.08-.02-.19,0-.27.02s-.18.06-.24.12c-.04.04-.09.09-.07.15h0Z"/>
    <path class="st31" d="M189.39,496.13l-.07.88c0,.08-.02.16.03.23.05.07.15.08.23.09.16.03.33.04.5.05.09,0,.2-.02.28-.06.06-.03.16-.07.2-.13.09-.14-.08-.18-.19-.19-.02,0-.04,0-.06,0s-.08,0,0,0c-.04,0-.08,0-.12-.01-.04,0-.08-.01-.12-.02-.02,0-.04,0-.06-.01-.05,0,.05.02,0,0l.05.03s-.02-.02-.03-.03l.02.04s0-.04,0-.07v.05c.02-.32.05-.63.08-.95,0-.06-.01-.09-.07-.11-.07-.03-.17-.03-.24-.02-.09.01-.19.04-.27.09-.05.03-.14.08-.14.14h0Z"/>
    <path class="st31" d="M189.68,496.25c.17,0,.82-.31.46-.31-.17,0-.82.31-.46.31h0Z"/>
    <path class="st31" d="M190.07,496.5c.24,0,.78-.37.29-.37-.24,0-.78.37-.29.37h0Z"/>
    <path class="st31" d="M188.94,493.94l1.08,2.85c.08.22.8,0,.72-.19l-1.08-2.85c-.08-.22-.8,0-.72.19h0Z"/>
    <path class="st31" d="M186.38,483.47c-.24.86-.26,1.78-.04,2.64.06.23.78.04.72-.19-.21-.84-.2-1.71.04-2.55.07-.23-.66-.13-.72.1h0Z"/>
    <path class="st31" d="M187.86,482.01c-.18.03-.33.09-.48.2-.06.04-.12.09-.18.14-.13.11-.25.23-.35.36-.2.24-.37.52-.48.81-.02.05.03.09.07.11.07.03.17.03.24.01.14-.02.36-.08.42-.23.02-.06.05-.12.08-.18.01-.03.03-.06.04-.08,0-.02.02-.03.02-.05.01-.02,0,.01,0-.02.07-.11.14-.22.22-.33.04-.05.08-.1.12-.14.02-.03.05-.05.07-.08,0,0,.02-.02.03-.03.05-.05-.02.02,0,0,.05-.04.1-.09.15-.13.03-.02.05-.04.08-.06,0,0,.03-.02.03-.03-.03.02-.04.03-.02.01.07-.04,0-.02-.18.06.09-.02.19-.04.27-.09.05-.03.13-.08.14-.14.04-.15-.23-.14-.3-.12h0Z"/>
    <path class="st31" d="M188.21,481.61c-.37.18-.75.36-1.08.6s-.57.57-.73.96c-.3.73-.35,1.54-.14,2.3.09.3.81.11.72-.19-.18-.65-.17-1.36.07-1.99.12-.31.27-.59.54-.79.28-.21.61-.36.92-.51.12-.06.28-.2.18-.34s-.36-.1-.49-.04h0Z"/>
    <path class="st31" d="M187.95,481.9c0,.07.03.13.06.19s.06.12.09.17c.07.12.16.23.25.33.02.01.05.02.07.01.04,0,.07,0,.11,0,.09,0,.19-.03.28-.07.07-.02.15-.05.2-.1l.03-.03s0-.04-.01-.05c-.01-.01-.02-.02-.03-.03l.02.02c-.08-.09-.15-.19-.22-.29-.03-.05-.06-.1-.08-.16-.03-.06-.05-.12-.05-.18,0-.04-.11-.04-.12-.04-.09,0-.18.02-.26.04s-.17.05-.25.1c-.03.02-.09.05-.09.1h0Z"/>
    <path class="st31" d="M187.95,481.89c.17.26.36.52.55.78.03.04.15.03.19.03.09,0,.2-.03.28-.06.07-.03.15-.06.2-.12l.03-.04s0-.05-.02-.07c-.06-.08-.11-.15-.17-.23l.02.03c-.12-.17-.24-.34-.35-.52,0-.02-.02-.04-.04-.04-.03-.01-.05-.02-.09-.02-.09,0-.19,0-.27.03s-.18.05-.25.11l-.05.04s-.04.05-.03.08h0Z"/>
    <path class="st31" d="M192.72,484.85c.52.33,1.04.67,1.55,1.02s1.03.66,1.5,1.05c.25.21.88-.16.56-.42-.47-.38-.99-.71-1.5-1.05s-1.03-.68-1.55-1.02c-.16-.1-.38-.07-.52.04-.12.09-.19.28-.04.38h0Z"/>
    <path class="st31" d="M195.61,486.8c.06.06.12.12.18.17.04.04.09.08.14.11.03.02.07.04.11.04.04.01.09.02.14.01.05,0,.1-.01.15-.03.05-.01.09-.04.13-.07l.06-.06s.06-.08.06-.13v-.07s-.05-.08-.09-.11c-.06-.04-.12-.09-.17-.15l.05.05s-.06-.06-.09-.09c-.02-.03-.05-.05-.09-.07-.04-.02-.08-.03-.12-.04-.05,0-.1,0-.14,0-.05,0-.1.02-.14.04l-.08.05s-.08.07-.11.12l-.02.07s0,.09.04.13h0Z"/>
    <path class="st31" d="M195.68,486.82c.11.1.22.2.34.3.03.02.07.03.11.04.04.01.09.01.13,0,.05,0,.1-.02.15-.03.05-.01.09-.03.13-.06l.06-.05s.06-.08.07-.12v-.06s-.04-.08-.08-.1c-.05-.04-.09-.08-.14-.11l.05.04c-.05-.04-.1-.09-.15-.14-.02-.03-.05-.05-.09-.06-.04-.02-.08-.03-.12-.03-.05,0-.1,0-.14,0-.05,0-.1.02-.14.04l-.08.05s-.08.07-.11.12l-.02.06s0,.08.03.12h0Z"/>
    <path class="st31" d="M193.18,484.49c-.13,0-.26.02-.39.04-.09.02-.19.05-.28.08-.03.01-.07.03-.09.05-.02.01-.04.03-.06.05v.03s.03.03.06.04h.06c.06,0,.11,0,.17-.01.02,0,.05,0,.07-.01h-.09s.07,0,.11,0h-.08s.03,0,.04,0c.09,0,.18-.02.26-.04.05-.01.09-.03.14-.05.04-.01.08-.03.11-.05l.05-.03s.04-.04.04-.06l-.02-.02s-.07-.02-.1-.02h0Z"/>
    <path class="st31" d="M192.88,484.35c-.06.02-.12.03-.18.04-.02,0-.13.03-.03,0-.03,0-.06,0-.09.01-.12.02-.24.03-.36.04-.06,0-.12,0-.19,0-.02,0-.11,0-.02,0-.03,0-.06,0-.09,0-.12,0-.25-.02-.37-.03-.16-.02-.4.06-.47.22s.06.27.22.29c.57.07,1.15.03,1.7-.11.08-.02.18-.07.24-.14.04-.05.08-.13.06-.19-.06-.17-.28-.17-.43-.14h0Z"/>
    <path class="st31" d="M191.69,484.84c.23,0,.78-.35.3-.35-.23,0-.78.35-.3.35h0Z"/>
    <path class="st31" d="M192.36,484.51c-.2-.01-.39-.04-.59-.06-.09-.01-.18,0-.27.03s-.18.06-.25.11c-.03.03-.1.08-.08.13s.08.06.13.07c.2.02.39.05.59.06.09,0,.18,0,.27-.03.08-.02.18-.06.25-.11.03-.03.1-.08.08-.13s-.08-.07-.13-.07h0Z"/>
    <path class="st31" d="M191.3,484.75c-.1-.02-.13-.02-.08,0,.01,0,.02,0,.03.01.02,0,.03.01.05.02.05.02.11.03.17.03.1,0,.21,0,.31,0,.2,0,.39-.03.59-.05.09-.01.19-.04.28-.09.04-.02.13-.08.14-.13.03-.14-.23-.12-.3-.11-.04,0-.09.01-.13.02-.02,0-.04,0-.06,0-.07,0,.08,0,.02,0-.08,0-.17.01-.25.02-.04,0-.08,0-.12,0,0,0-.02,0-.03,0-.02,0-.01,0,.03,0-.02,0-.04,0-.06,0-.02,0-.01,0,.02,0-.01,0-.02,0-.03-.01-.02,0-.03-.01-.05-.02-.07-.03-.15-.03-.22-.03-.1,0-.19.03-.28.06-.06.02-.16.07-.2.12-.03.04-.05.08,0,.12.05.04.13.04.19.04h0Z"/>
    <path class="st31" d="M191.14,484.72c.23.08.48.09.73.07.09,0,.19-.03.28-.06.04-.01.08-.03.12-.05.03-.01.06-.03.09-.06.02-.03.06-.07.01-.09-.05-.03-.13-.02-.18-.02-.02,0-.05,0-.07,0-.05,0,.08,0,.03,0-.01,0-.03,0-.04,0-.05,0-.1,0-.14,0h.06c-.1,0-.2-.03-.29-.06-.03,0-.07,0-.1,0-.04,0-.09,0-.13.01-.09.02-.19.04-.28.09l-.07.04s-.06.04-.08.07v.03s.03.04.06.04h0Z"/>
    <path class="st31" d="M192.66,484.76c1.99.91,3.66,2.34,5.48,3.52s3.89,2.25,5.98,3.07c.22.09.88-.24.58-.35-2.09-.82-4.1-1.84-5.98-3.07s-3.49-2.62-5.48-3.52c-.22-.1-.88.22-.58.35h0Z"/>
    <path class="st31" d="M204.16,491.38c1.38.59,2.8,1.07,4.26,1.44.16.04.39-.01.51-.14.11-.11.08-.24-.07-.28-1.41-.35-2.79-.82-4.12-1.39-.16-.07-.37-.03-.51.06-.09.06-.22.23-.06.3h0Z"/>
    <path class="st31" d="M208.44,492.82c1.49.45,3.01.78,4.56.99.17.02.38-.01.51-.14.1-.1.09-.23-.07-.25-1.54-.21-3.07-.54-4.56-.99-.23-.07-.85.27-.44.39h0Z"/>
    <path class="st31" d="M212.82,493.79c.14.22.27.45.29.71.01.14,0,.28,0,.42,0,.07,0,.15,0,.22,0,.04,0,.07,0,.11,0,.02,0,.05,0,.07,0,.05,0,.04.03-.03l.15-.1c-.08.04-.16.06-.25.09-.12.04-.29.2-.18.33.11.14.35.08.49.03.21-.08.48-.15.5-.42.02-.21.02-.43.03-.64,0-.2,0-.39-.07-.58s-.18-.36-.28-.53c-.03-.06-.14-.08-.2-.08-.09,0-.2.01-.28.05-.13.06-.27.18-.18.33h0Z"/>
    <path class="st31" d="M213.08,493.87c.28,0,.77-.42.28-.42-.28,0-.77.42-.28.42h0Z"/>
    <path class="st31" d="M212.84,493.72c0,.09.06.17.07.25,0,.03.02.04.05.05.03.02.06.03.09.03.04,0,.08,0,.13,0,.05,0,.1-.01.14-.02l.09-.03c.05-.02.1-.05.15-.08l.05-.05s.03-.06.03-.09c-.01-.09-.07-.16-.07-.25,0-.03-.02-.04-.05-.05-.03-.02-.06-.03-.09-.03-.04,0-.08,0-.13,0-.05,0-.1.01-.14.02l-.09.03c-.05.02-.1.05-.15.08l-.05.05s-.03.06-.03.09h0Z"/>
    <path class="st31" d="M212.98,493.77c.16,0,.82-.31.47-.31-.16,0-.82.31-.47.31h0Z"/>
    <path class="st31" d="M213,493.78c.16,0,.82-.31.47-.31-.16,0-.82.31-.47.31h0Z"/>
    <path class="st31" d="M178.15,481.75c-.53-.1-1.3-.38-1.64.22-.16.28-.23.62-.3.93-.08.36-.14.72-.12,1.09.03.7.24,1.41.38,2.1.15.76.31,1.52.46,2.27.06.28.78.1.72-.19-.21-1.07-.43-2.13-.64-3.2-.1-.52-.23-1.03-.17-1.56.03-.24.08-.47.14-.71.06-.25.11-.61.31-.79l-.24.13c-.08,0-.06,0,.07.02l.18.03.43.08c.17.03.39,0,.51-.14.1-.11.09-.27-.08-.3h0Z"/>
    <path class="st31" d="M179.98,497.27c-.88-3.01-1.56-6.08-2.29-9.13-.08-.31-.8-.13-.72.19.73,3.05,1.41,6.12,2.29,9.13.09.31.82.12.72-.19h0Z"/>
    <path class="st31" d="M179.27,497.44c1.85.39,3.77.39,5.62.01.07-.01.43-.09.43-.19,0-.11-.21-.06-.28-.05-1.71.34-3.46.32-5.16-.04-.16-.03-.36.03-.5.1-.06.03-.25.13-.1.16h0Z"/>
    <path class="st31" d="M189.03,493.32c-.57-.08-1.19-.24-1.77-.17-.55.06-1.04.33-1.34.79s-.44,1.09-.61,1.63c-.19.58-.37,1.17-.55,1.76-.04.14.66.06.71-.13.29-.94.57-1.89.9-2.82.07-.21.16-.41.28-.59.08-.12.23-.33.38-.37-.05.01.07,0,.08,0,.06,0,.12,0,.18.01.12.01.25.03.37.05l.77.11c.17.02.35-.02.51-.09.05-.02.26-.16.09-.19h0Z"/>
    <path class="st31" d="M177.69,482.12c1.5,1.73,3.81,2.2,5.96,2.59.35.06.74-.42.25-.51-.35-.07-.71-.14-1.06-.21-.2-.04-.73.28-.41.46.4.23.83.33,1.29.29.15-.01.39-.11.4-.29s-.19-.24-.33-.23c-.29.02-.55-.04-.8-.19l-.41.46c.35.07.71.14,1.06.21l.25-.51c-1.99-.36-4.16-.78-5.55-2.39-.21-.24-.9.04-.66.31h0Z"/>
    <path class="st31" d="M183.39,484.66c.48.68.94,1.38,1.45,2.05.44.57.94,1.08,1.6,1.38.15.07.38,0,.51-.08.09-.05.23-.17.08-.23-.64-.29-1.12-.83-1.54-1.37-.5-.65-.95-1.33-1.42-2-.12-.16-.82.07-.68.26h0Z"/>
    <path class="st31" d="M195.72,496.28c.49.38,1.09.51,1.69.55.72.05,1.45.08,2.17.03,1.26-.08,2.57-.51,3.34-1.56.27-.37-.4-.52-.61-.23-.66.9-1.74,1.19-2.8,1.25-.58.03-1.17,0-1.75-.03-.53-.03-1.06-.1-1.49-.44-.27-.21-.89.17-.55.43h0Z"/>
    <path class="st8" d="M152.03,377.97c-.29,0,.13,0-.13,0-.13,0-.26,0-.39,0-.22,0-.44-.02-.67-.03-.46-.03-.92-.07-1.38-.12s-.81-.11-1.17-.17c-.47-.09-.94-.19-1.41-.3-.64-.16-1.46.05-2.03.35-.25.13-1,.66-.34.82,2.06.51,4.16.73,6.29.72.36,0,.79-.12,1.13-.25.26-.1.61-.25.8-.46.45-.5-.41-.55-.7-.55h0Z"/>
    <path class="st6" d="M152.24,362.31c2.03,0,4.83.13,5.64,2.43.16.46.25,1.04-.04,1.48s-.68.77-1.08,1.05c-.8.56-1.74.9-2.73.92-.3,0-.64.08-.86.29-.14.13-.23.4,0,.48.06.02.12.04.18.06.33.12.73.06,1.03-.13.17-.11.46-.46.12-.58-.06-.02-.12-.04-.18-.06l-.85.78c2.1-.04,4.38-.94,5.65-2.69.6-.82.35-1.91-.16-2.7s-1.39-1.41-2.3-1.72c-1.24-.43-2.57-.45-3.87-.46-.32,0-.78.1-.96.4s.15.44.4.44h0Z"/>
    <path class="st14" d="M229.73,414.59c.76,3.29,1.8,6.51,3.11,9.63.31.75,3.15-.18,2.9-.78-1.3-3.12-2.34-6.34-3.11-9.63-.16-.69-3.07.03-2.9.78h0Z"/>
    <path class="st14" d="M235.93,424.1c0-6.59,0-13.18,0-19.77s-2.94-1.1-2.94.21c0,6.59,0,13.18,0,19.77s2.94,1.1,2.94-.21h0Z"/>
    <path class="st14" d="M232.96,405.2c4.58,7.3,9.35,14.48,14.29,21.54.78,1.11,3.53-.04,2.65-1.29-4.95-7.06-9.71-14.24-14.29-21.54-.72-1.14-3.47-.02-2.65,1.29h0Z"/>
    <path class="st32" d="M150.63,386.36c.57.02,1.13-.06,1.68-.2s1.07-.36,1.56-.66c.11-.06.19-.14.26-.24.06-.06.09-.13.07-.22-.03-.08-.09-.13-.17-.15-.11-.05-.22-.08-.34-.08-.36-.02-.72.04-1.06.13l-.38.12c-.21.08-.42.17-.61.3-.02.01-.04.02-.05.03l.27-.15c-.07.04-.15.08-.22.11l.33-.14c-.06.03-.13.05-.19.07l.38-.12c-.06.02-.12.03-.18.05l.39-.09c-.07.01-.14.03-.2.03l.36-.04c-.08,0-.15.01-.23.01h.31s-.07,0-.1,0c-.36-.01-.72.04-1.06.13-.19.05-.37.11-.55.19-.15.06-.3.13-.44.22l-.2.16c-.1.08-.14.18-.13.3l.09.11c.13.08.28.11.43.11h0Z"/>
    <path class="st32" d="M146.65,396.93c.13-.01.26-.04.38-.06s.25-.04.37-.08c.19-.05.37-.12.55-.19.06-.02.12-.05.18-.08.43-.21.84-.48,1.18-.83.11-.1.19-.22.23-.35.06-.11.07-.23.04-.36-.03-.13-.1-.23-.21-.29-.1-.1-.23-.16-.37-.19l-.33-.05c-.26-.02-.51.01-.76.08-.35.1-.71.25-.96.52-.06.07-.13.13-.2.19l.26-.21c-.1.08-.2.15-.31.21l.32-.18c-.1.05-.2.1-.31.14l.38-.13c-.1.03-.2.06-.3.08l.39-.07c-.06.01-.12.02-.19.03-.2.02-.4.06-.58.14-.18.05-.35.14-.51.25-.14.08-.26.19-.35.33-.1.1-.16.22-.18.36v.24c.06.17.17.29.32.38l.27.11c.23.06.46.07.7.05h0Z"/>
    <path class="st32" d="M155.65,398.54c.09-.05.18-.1.27-.15-.41.23-.07.04.04,0l.04-.02c.12-.05.05-.02-.21.08.04-.02.08-.03.12-.05.06-.02.11-.04.17-.06.2-.07-.43.13-.21.07.04-.01.09-.02.13-.03.03,0,.06-.01.09-.02-.31.07-.4.09-.28.06.09-.02.19-.04.28-.05-.28.04-.36.05-.23.03.02,0,.04,0,.07,0,.05,0,.1-.01.15-.01.04,0,.09,0,.13,0-.24,0-.3.01-.18,0,.03,0,.06,0,.09,0,.36,0,.71-.06,1.06-.15.32-.09.71-.21.99-.4.1-.07.42-.25.34-.41-.08-.17-.35-.18-.5-.18-.8,0-1.6.12-2.37.34s-1.52.51-2.2.93c-.09.06-.39.24-.34.41s.4.18.5.18c.35,0,.72-.06,1.06-.15s.69-.21.99-.4h0Z"/>
    <path class="st32" d="M153.24,411.27c1.71-.37,3.38-.83,5.04-1.37.14-.04,1.3-.52.87-.79-.2-.13-.52-.1-.73-.07-.39.04-.76.14-1.13.26-.18.06-.36.12-.55.18-.27.08.35-.11.07-.02-.08.02-.16.05-.24.07-.34.1-.68.2-1.03.29s-.69.18-1.03.27c-.16.04-.32.08-.48.12-.08.02-.16.04-.24.06.5-.12.1-.02-.01,0-.38.08-.75.18-1.11.34-.16.07-.52.24-.6.43-.19.46,1.03.28,1.15.25h0Z"/>
    <path class="st32" d="M167.22,414.68c-1.52-.03-3.04.11-4.54.38-.37.07-.76.18-1.11.34-.15.07-.52.23-.6.41-.2.44,1.05.23,1.14.21.16-.03.32-.05.48-.08.14-.02-.36.05-.06,0,.07-.01.15-.02.22-.03.31-.04.62-.07.93-.1.07,0,.15-.01.22-.02.07,0,.34-.01-.01,0,.15,0,.3-.01.45-.02.32,0,.65-.01.97,0,.35,0,.72-.07,1.06-.16s.7-.21.99-.39c.11-.07.4-.22.35-.39s-.39-.16-.5-.16h0Z"/>
    <path class="st32" d="M157.92,424.36c.8-.04,1.59-.22,2.35-.47.62-.2,1.22-.48,1.77-.83.1-.07.39-.26.34-.44s-.39-.2-.51-.21c-.36-.01-.72.04-1.06.14s-.69.22-.99.41c-.08.05-.16.1-.25.15.42-.24.09-.05-.02,0-.05.02-.1.05-.15.07-.18.08.37-.15.18-.08-.09.03-.18.07-.27.1.32-.1.4-.13.26-.08h-.04c-.05.03-.11.04-.16.05-.02,0-.04,0-.06.01-.12.03-.03,0,.29-.06-.05.01-.11.02-.16.03-.04,0-.08.01-.12.02-.13.02-.05,0,.24-.03-.03,0-.05,0-.08,0-.1,0-.19.02-.29.02-.37.02-.78.13-1.13.25-.16.05-.32.13-.47.21-.12.06-.24.14-.34.23-.1.11-.23.27-.05.39.2.14.51.1.74.09h0Z"/>
    <path class="st32" d="M170.6,424.74c-.86,0-1.71.2-2.52.48-.66.23-1.33.56-1.88.99-.11.09-.38.27-.33.47s.38.23.52.24c.36.02.72-.03,1.06-.13s.71-.21.99-.42c.09-.07.19-.14.29-.21.04-.02.08-.05.11-.07.03-.02.05-.03.08-.05-.21.12-.26.15-.16.09.09-.05.19-.1.28-.14.12-.06.05-.03-.21.09.03-.01.06-.02.08-.03.05-.02.1-.04.15-.05.25-.09-.41.12-.19.06.06-.02.11-.03.17-.05.04-.01.09-.02.13-.03-.32.07-.4.09-.26.06.03,0,.06-.01.09-.02.06-.01.12-.02.18-.03l-.27.03s.06,0,.09,0c.12-.01.24-.01.36-.01.36,0,.8-.12,1.13-.25.25-.09.63-.25.8-.46.1-.12.22-.3.04-.43-.21-.15-.51-.12-.75-.12h0Z"/>
    <path class="st32" d="M162.44,434.98c1.41-.02,2.8-.3,4.1-.86.27-.12.61-.3.78-.56.11-.17.17-.43,0-.59-.2-.19-.51-.25-.78-.25-.39,0-.78.07-1.14.23-.12.05-.23.1-.35.14-.05.02-.1.04-.15.06.29-.1.37-.12.22-.08l-.05.02c-.23.07-.47.14-.71.19-.29.06.4-.07.15-.03-.05,0-.11.02-.16.03-.12.02-.23.03-.35.05s-.23.02-.35.03c.55-.05.07,0-.07,0-.39,0-.78.08-1.14.23-.25.11-.63.31-.78.56-.11.18-.18.42,0,.59.2.19.52.25.78.25h0Z"/>
    <path class="st32" d="M175.84,434.35c-1.14-.15-2.31.06-3.36.52-.28.12-.61.38-.75.66-.11.23-.13.55.05.76.47.55,1.37.43,1.96.17.09-.04.17-.07.26-.1l-.38.14c.23-.08.46-.14.69-.18l-.39.07c.24-.04.47-.06.71-.06h-.37c.19,0,.37.01.55.04.36.05.81-.05,1.14-.21.27-.13.63-.37.75-.66.11-.24.15-.53-.05-.76-.21-.24-.51-.34-.81-.38h0Z"/>
    <path class="st32" d="M169.48,450.2l3.1-.67c.33-.07.72-.28.96-.52.16-.16.35-.45.27-.7-.23-.64-1.16-.55-1.67-.44l-3.1.67c-.33.07-.72.28-.96.52-.16.16-.35.45-.27.7.23.64,1.16.55,1.67.44h0Z"/>
    <path class="st32" d="M183.54,451.05c-1.74-.11-3.55.38-5.01,1.31-.12.07-.38.28-.33.47s.38.23.52.24c.7.04,1.46-.18,2.05-.55.06-.04.12-.07.17-.11-.19.11-.25.14-.16.09.02-.01.04-.02.07-.04.12-.06.55-.24.04-.03.11-.04.22-.09.33-.13.21-.08-.41.12-.19.06.06-.02.11-.03.17-.05.02,0,.05-.01.07-.02.15-.03.07-.02-.24.05.05,0,.1-.02.15-.03.07-.01.14-.01.2-.03l-.26.03s.07,0,.1-.01c.12-.01.24-.01.36-.02-.46.03-.03,0,.09.01.35.02.73-.04,1.06-.13s.71-.22.99-.42c.12-.09.41-.28.33-.47s-.34-.23-.52-.24h0Z"/>
    <path class="st32" d="M126.71,354.14c1.63-.17,3.27-.61,4.74-1.36.16-.08.52-.24.6-.43.07-.17-.08-.26-.23-.29-.3-.06-.63-.02-.92.04-.37.07-.76.17-1.1.34-.12.06-.25.12-.37.18s-.6.23-.1.05c-.11.04-.22.08-.33.12-.07.03-.15.05-.22.08-.23.08.4-.12.15-.05-.12.04-.25.07-.37.1-.03,0-.06.01-.09.02-.15.04-.08.02.22-.05-.06.01-.12.02-.17.04-.14.03-.27.05-.41.07-.24.04.37-.05.12-.02-.08,0-.16.02-.24.03-.38.04-.77.13-1.13.26-.25.09-.62.23-.81.43-.1.1-.23.26-.06.37.2.13.52.1.73.08h0Z"/>
    <path class="st32" d="M135.12,356.45c1.43.08,2.95-.22,4.23-.88.28-.14.6-.31.77-.59.11-.19.16-.46-.01-.63-.2-.2-.51-.28-.79-.28-.38,0-.8.05-1.14.22-.23.12-.47.22-.71.31s.39-.13.17-.06c-.07.02-.14.04-.21.06-.12.03-.23.06-.35.09-.29.06.39-.07.15-.03-.05,0-.11.02-.16.03-.13.02-.26.03-.38.04-.06,0-.11,0-.17.01.28,0,.34-.01.2,0-.04,0-.07,0-.11,0-.13,0-.26,0-.39-.01-.37-.02-.8.07-1.14.22-.26.11-.63.32-.77.59-.11.2-.17.45.01.63.21.21.51.27.79.28h0Z"/>
    <path class="st32" d="M138.12,376.47l2.17-.88c.26-.11.6-.23.81-.44.1-.1.22-.28.05-.4-.2-.14-.52-.12-.74-.1-.38.03-.77.11-1.13.25l-2.17.88c-.26.11-.6.23-.81.44-.1.1-.22.28-.05.4.2.14.52.12.74.1.38-.03.77-.11,1.13-.25h0Z"/>
  </g>
  <g>
    <g>
      <path class="st26" d="M385.05,477.34c2.35-1.29,4.68.34,4.95,2.98,5.74,4.15,12.45,8.35,19.81,8.94v1.99c-6.74,3.77-11.43-2.56-17.83-1.99v3.99s-6.36-.89-6.36-.89c.71-4.1-6.99-13.79-.57-15.02Z"/>
      <path class="st22" d="M323.65,345.19c.37-2.64,1.2-2.5,1.98,0,.07.25,1.84,1.81,2.97,3.97,3.14,5.73,3.14,8.72,0,8.94-5.95-.95-8.28,5.85-.99,7.95,1.12-.52,8.29-.25,8.64.37.25.45.29,1.01.27,1.62.79,2.58,2.11,4.9,3.96,6.96.71,1.97,1.21,4.03,1.98,5.96,1.92,2.66,3.21,5.77,3.96,8.94.69,1.3,1.24,2.71,1.98,3.97.89,1.3,1.55,3.29,1.98,5.96.26.4.81.68.99.99.91,2.84,2.13,5.57,3.96,7.95.61,1.67,1.33,3.31,1.98,4.97,1.38,1.64,2.62,3.82,1.98,5.96.32.78.7,1.35.99,1.99,2.36,2.79,4.01,6.1,4.95,9.94,1.71,2.48,2.7,5.13,2.97,7.95-.24.66.54,2.05-.51,2l-7.92-3.98c-3.1-.59.49,2.91-.48,3.96-1.64,1.76-3.05-5.56-5.94-1.98-.65.35-1.31-.31-1.98-1.99-1.75-3.61-3.07-7.25-3.96-10.93-1.99-3.05-3.64-6.36-4.95-9.94l-4.95-10.93-4.95-11.92c-1.9-2.69-2.89-5.34-2.97-7.95-.31-.81-.72-1.37-.99-1.99-2-2.91-3.65-6.22-4.95-9.94-1.72-2.88-2.71-5.86-2.97-8.94-.25-.44-.84-.72-.99-.99-1.86-3.58-3.51-7.23-4.95-10.93-.69-1.27-1.09-2.51-1.98-3.97-.03-4.94,3.6-6.27,10.89-3.97Z"/>
      <path class="st22" d="M369.2,442.56c2.25,1.54,3.9,4.53,4.95,8.94.26.96.8,1.82.99,2.98-1.72,2.31-9.49,5.04-10.89,1.99-1.13,2.57-3.24,3.01-3.96,0-1.86-3.04-3.52-6.35-4.95-9.94-.67-1.32-.67-2.31,0-2.98,2.36.37,5.3-2.61,6.63-2.8.94-.13,5.42,3.26,7.23,1.81Z"/>
      <path class="st33" d="M353.36,475.35c2.55-.67,5.39.22,5.94,2.98.63.41,1.6,3.03,3.04,3.4l15.77,7.01c-4.93,5.22-11.99-2.45-16.2-1.56-1.34.29-.99,3.44-1.75,3.92-.58.36-5.55.29-5.76.08-.5-.47-3.12-12.38-3.11-13.42.06-3.7,1.81-2.09,2.07-2.42Z"/>
      <path class="st16" d="M375.14,454.48c1.12.74,1.59,1.96,1.95,3.21-1.72,1.95-.72,3.2,3,3.74.65,1.33,1.33,2.64,1.98,3.97l-1.31,1.8c-3.2-.41-6.39-.35-9.59.19-.08,3.74-3.41,5.14-4.95,1.99-.76-.1-1.88-1.15-2.97-.99-2.6-.02-2.97-1.22-.99-2.98-.34-1.54-.42-2.36-.99-3.97.01-2.62.46-4.03,2.97-4.97,3.37-.56,7.88-2.45,10.89-1.99Z"/>
      <path class="st17" d="M382.08,465.41c10.87,1.78,7.55,5.28,7.92,14.9-.97-.7-4.41-1.2-4.95-2.98s.41-5.13-1.9-7.3c-1.43-1.34-2.66-.36-4.04-.64-4.29,1.43-6.93.77-7.92-1.99,3.58-3.14,6.56-2.7,10.89-1.99Z"/>
      <path class="st4" d="M363.26,468.39c-.31,1.81-5.88,5.66-3.96,9.94-.88-.57-4.88-.46-5.94-2.98.25-.32.13-3.47,1.95-5.5,1.65-1.85,5.05-2.66,6.96-4.43.18.81,1.17,1.94.99,2.98Z"/>
      <path class="st2" d="M316.72,342.21c4.5-.57,6.81.43,6.93,2.98-4.51.68-8.24-.07-10.89,3.97-.12-.2.22-1.03-.25-1.72-.59-.86-3.21-.84-2.71-2.74,1.86-2.67,4.51-2,6.93-2.5Z"/>
      <path class="st25" d="M328.6,349.16c1.43,2.75,4.21,5.26,3.97,8.94,2.06.05-.2-2.54,2.46-1.99.93.19-.15,2.83,2.97,2.03.53-.14,1.98-4.68,3.47-3.01.47.52-2.89,2.94,1,3.47-4.37,1.45-9.51-.23-13.88.5-.86-.28-.85-.61,0-.99,2.83-4.03-.2-4.82,0-8.94Z"/>
      <path class="st36" d="M371.18,467.4c2.56.82,5.32,1.46,7.92,1.99-2.19,1.44-14.78,6.16-12.87,0,3.65.47,3.33.05,1.98-2.97,1.67-.7,2.43.81,2.97.98Z"/>
      <path class="st34" d="M380.09,461.44c-1.48,2.55-5.07.56-5.8,1.14-.55.44.54,2.26-1.12,1.83l-.99-3.97c3.44,2.16,1.58-.75,2.21-2.49.55-1.51,1.57,1.54.76-3.47,3.04.46,3.45,3.87,4.95,6.96Z"/>
      <path class="st35" d="M327.61,366.05c-1.77-.28-6.18-1.92-5.77-4.25.35-2,2.91-7.89,5.77-6.67l.99,2.97v.99c-5.3.89-6.84,4.81-.99,5.96.86.28.85.61,0,.99Z"/>
      <path class="st0" d="M342.46,361.1c2.68,2.61-7.62,3.35-8.91,1.97-1.18-4.41,8.19-2.68,8.91-1.97Z"/>
      <path class="st24" d="M325.63,345.19c-.64.06-1.35-.09-1.98,0l-6.93-2.98c2.62-.54,4.88-1.9,8.27-.84,3.08.97.58,3.59.65,3.82Z"/>
      <path class="st35" d="M342.46,416.73c-2.67-5-3.23-5.02-4.95-10.93,3.08,5.31,3.17,4.88,4.95,10.93Z"/>
      <path class="st13" d="M374.15,451.5l-4.95-8.94c.16-.13-.14-1.43,0-1.99,3.9,2.38,3.96,7.34,4.94,10.93Z"/>
      <path class="st7" d="M337.51,405.8c-3.34-5.76-3.01-6.17-4.95-11.92,2.81,4.97,3.42,6.67,4.95,11.92Z"/>
      <path class="st21" d="M351.38,437.59c-2.54-4.51-3.12-6.5-4.95-10.93.28-.82.61-.81.99,0,1.93,4.46,2.57,6.46,3.96,10.93Z"/>
      <path class="st23" d="M319.69,364.07c-1.75-3.22-5.78-6.46-4.95-10.93,1.85,3.42,4.97,6.72,4.95,10.93Z"/>
      <path class="st28" d="M327.61,365.06c4.15.82,10.4-.6,14.85.01-.76,2.52-5.8-.94-4.95,2.97-.24.87-.57.85-.99,0-5.08-2.61-4.06-1.23-8.91-1.99v-.99Z"/>
      <path class="st3" d="M365.24,431.63c-2.35-3.79-3.19-6.06-4.95-9.94.47-2.41,3.91,4.53,4.17,5.28.66,1.94.44,3.53.78,4.65Z"/>
      <path class="st20" d="M364.25,456.47c1.08,3.35-3.06,2.44-.99,4.96h-1.98c-.37-1.03-1.43-2.5-1.98-3.96-.22-1.22-.18-1.54.99-.99,1.16-.1,1.88.35,3.96,0Z"/>
      <path class="st30" d="M347.42,426.66h-.99c-1.72-4.16-2.54-5.13-3.96-9.94,1.9,3.56,3.31,6.15,4.95,9.94Z"/>
      <path class="st12" d="M360.29,456.47c-.15.01-.6.83-.99.99-1.53-4.1-2.68-6.72-3.96-10.93,1.76,3.24,4.24,6.17,4.95,9.94Z"/>
      <path class="st19" d="M328.6,383.94l-.98.99c-1.58-3.56-2.68-7.27-3.97-10.93,2.13,3.84,3.15,5.76,4.95,9.94Z"/>
      <path class="st10" d="M368.21,439.58c-1.9-2.54-2.13-5.21-2.97-7.95,1.82,2.94,4.74,3.11,2.97,7.95Z"/>
      <path class="st5" d="M353.36,439.58c.3.5,1.93,3.76,1.98,3.97.2.86-.23,2.22,0,2.98-2.27-4.18-2.44-4.04-3.96-8.94.38.68,1.57,1.3,1.98,1.99Z"/>
      <path class="st29" d="M340.48,375c-4.23-.72-3.58-3.68-3.96-6.96.23.12.67-.08.99,0,1.26,2.14,2.13,4.62,2.97,6.96Z"/>
      <path class="st15" d="M355.34,408.78c-2.58-1.56-3.86-5.06-3.96-7.95,2.04,3.47,2.43,3.8,3.96,7.95Z"/>
      <path class="st9" d="M346.42,389.9c-1.91-3.61-2.55-5.38-3.96-8.94,2.47,1.9,4.16,5.9,3.96,8.94Z"/>
      <path class="st11" d="M332.56,393.88c-1.3-2.3-4.04-4.5-3.92-7.35l.95-.6c1.05,2.81,1.96,4.95,2.97,7.95Z"/>
      <path class="st18" d="M323.65,374c-1.29-2.33-5.39-6.87-2.97-8.94,1.64,2.95,2.07,6.4,2.97,8.94Z"/>
      <path class="st27" d="M350.39,399.84c-1.08-1.68-1.62-3.88-2.95-5.48l.97-.48c.69,1.18,5.02,3.61,1.98,5.96Z"/>
      <path class="st1" d="M359.3,419.71c-.9-2.18-1.49-4.71-1.98-5.96,1.95.87,4.23,4.53,1.98,5.96Z"/>
    </g>
    <path class="st31" d="M384.74,477.38c-1.04.29-1.8,1.1-2.11,2.13-.39,1.32,0,2.72.43,3.98.97,2.87,2.46,5.64,2.46,8.73,0,.39.73.28.73-.05,0-2.53-.95-4.86-1.85-7.18-.46-1.19-.97-2.42-1.15-3.69s.15-3,1.62-3.4c.45-.12.31-.64-.14-.51h0Z"/>
    <path class="st31" d="M385.96,492.49c1.99-.1,3.88.71,5.85.88.17.01.4-.05.47-.22s-.07-.27-.22-.29c-2.03-.17-3.97-.99-6.03-.88-.4.02-.57.53-.07.51h0Z"/>
    <path class="st31" d="M392.42,492.91c.04-1.2-.33-2.37-.19-3.57.03-.3-.7-.17-.73.09-.14,1.2.23,2.37.19,3.57-.01.31.72.17.73-.09h0Z"/>
    <path class="st31" d="M392.04,489.43c2.06-.47,4.08.31,5.99,1,1.47.53,2.92,1.1,4.41,1.57,2.43.78,5.13,1.05,7.28-.58.33-.25-.39-.26-.58-.12-2.74,2.07-6.46.24-9.25-.76-2.55-.92-5.19-2.11-7.95-1.48-.44.1-.34.46.1.37h0Z"/>
    <path class="st31" d="M409.08,489.46l.09,1.74c0,.08.02.13.09.17s.17.06.25.05c.1-.01.2-.04.27-.1.05-.04.13-.11.13-.19l-.09-1.74c0-.08-.02-.13-.09-.17s-.17-.06-.25-.05c-.1.01-.2.04-.27.1-.05.04-.13.11-.13.19h0Z"/>
    <path class="st31" d="M384.44,477.81c.59.71,1.33,1.3,2.17,1.68.42.19.85.34,1.3.44.5.11,1.03.16,1.5.39.16.08.37.05.52-.05.1-.07.21-.26.05-.34-.44-.22-.91-.31-1.39-.4s-.91-.21-1.34-.4c-.83-.36-1.57-.93-2.14-1.63-.19-.23-.88.04-.67.31h0Z"/>
    <path class="st31" d="M389.24,480.34c.47.66,1.15,1.06,1.81,1.5.84.57,1.69,1.13,2.56,1.66,1.63,1.01,3.33,1.85,5.06,2.68,3.37,1.62,6.83,3.09,10.59,3.46.32.03.75-.43.26-.48-3.77-.37-7.23-1.9-10.61-3.53-1.56-.75-3.1-1.52-4.58-2.43-.71-.44-1.41-.89-2.11-1.36-.8-.53-1.74-1.02-2.31-1.82-.17-.24-.87.03-.67.3h0Z"/>
    <path class="st31" d="M389.32,480.25c.09.21.22.42.38.59.04.05.14.06.19.06.09,0,.2-.02.28-.06.07-.03.15-.07.2-.14.03-.05.04-.09,0-.14-.09-.1-.17-.2-.23-.31l.02.04c-.05-.08-.09-.15-.12-.24-.02-.06-.08-.08-.14-.09-.08-.02-.19,0-.27.02s-.18.06-.24.12c-.04.03-.1.09-.07.15h0Z"/>
    <path class="st31" d="M384.08,477.65c-.86.42-1.51,1.25-1.55,2.23,0,.15.19.16.31.14.1-.01.19-.04.27-.09.05-.03.14-.09.14-.15.01-.4.13-.79.34-1.13.11-.17.22-.31.36-.43.04-.03.07-.07.11-.1.02-.02.04-.03.06-.05,0,0,.07-.05.04-.03s.04-.02.04-.03c.02-.01.04-.03.06-.04s.04-.03.07-.04c.01,0,.1-.05.03-.01.08-.04.31-.16.2-.28-.1-.11-.37-.06-.48,0h0Z"/>
    <path class="st31" d="M383.04,478.92c.32,0,.75-.48.26-.48-.32,0-.75.48-.26.48h0Z"/>
    <path class="st31" d="M384.2,477.67c-.4.21-.8.43-1.13.75-.03.03-.05.08,0,.11.04.04.14.04.19.04.16,0,.36-.06.48-.18.02-.02.03-.03.05-.05.01,0,.02-.02.03-.03,0,0,.04-.03,0,0s0,0,0,0c0,0,.02-.01.03-.02.02-.02.04-.03.06-.05.08-.06.16-.11.24-.17,0,0,.02-.01.03-.02.04-.02-.01,0-.02.01.02-.01.04-.02.06-.04.04-.02.09-.05.13-.07.09-.05.18-.1.27-.14.04-.02.13-.07.14-.13.02-.05-.02-.08-.06-.1-.07-.02-.16-.02-.23,0-.1.02-.19.04-.28.09h0Z"/>
    <path class="st31" d="M383.66,478.65s.02-.06.04-.09l-.02.05c.05-.1.11-.18.18-.26l-.05.05s.09-.09.14-.13c.04-.03.09-.1.07-.16s-.09-.09-.14-.1c-.18-.03-.37.03-.51.14-.19.15-.34.35-.42.58-.02.06.03.11.07.13.03.02.07.02.11.03.04,0,.09,0,.13,0,.09-.01.19-.04.27-.09.06-.04.11-.08.14-.15h0Z"/>
    <path class="st31" d="M383.86,477.82c-.31.19-.6.43-.82.72-.03.04-.05.07,0,.11s.14.04.19.03c.1,0,.19-.03.28-.06.07-.03.15-.06.2-.12.1-.13.22-.26.35-.37.01-.01.03-.03.04-.04.02-.02-.05.04-.01.01,0,0,.02-.01.03-.02.03-.03.07-.05.1-.08.07-.05.14-.1.22-.14.03-.02.09-.07.08-.12s-.09-.06-.13-.06c-.18-.01-.36.05-.51.14h0Z"/>
    <path class="st31" d="M383.62,478.62c.07-.12.13-.24.22-.34.01-.02.02-.03.04-.05,0,0,.04-.04.02-.02s.01-.01.02-.02c.01-.01.02-.02.03-.03.03-.02.05-.05.08-.07,0,0,.03-.03.04-.03-.01,0-.05.03,0,0,.11-.07.23-.14.35-.2.03-.02.06-.03.08-.04.04-.02-.07.03,0,0,.01,0,.03-.01.04-.02.03-.01.06-.02.09-.04-.09.04-.04.01-.02,0,.02,0,.09-.02-.02,0,.1-.02.19-.04.27-.09.05-.03.12-.08.14-.15.04-.15-.22-.16-.31-.14-.38.07-.73.25-1.05.46-.16.1-.3.21-.43.36-.1.12-.18.26-.26.4-.03.05-.04.1,0,.14s.14.06.19.06c.1,0,.2-.02.28-.06.07-.03.16-.07.2-.14h0Z"/>
    <path class="st31" d="M353.19,475.45c-.42,0-.76-.16-1.17.05-.37.19-.59.55-.67.96-.32,1.48.19,3.26.51,4.7.75,3.35,1.35,6.85,2.54,10.08.08.22.8,0,.72-.19-.97-2.64-1.47-5.44-2.1-8.17-.31-1.37-.67-2.74-.86-4.13-.1-.71-.21-1.47-.12-2.18.02-.2.07-.61.24-.73.11-.07.5-.02.62-.02.24,0,.78-.35.3-.36h0Z"/>
    <path class="st31" d="M354.6,491.32c.46,0,.91.12,1.36.19s.87.09,1.31.07c.93-.05,1.85-.21,2.77-.33.11-.01.4-.08.42-.22.02-.15-.22-.12-.3-.11-.89.12-1.8.29-2.7.32s-1.7-.25-2.57-.26c-.13,0-.41.05-.48.19-.08.14.06.17.18.17h0Z"/>
    <path class="st31" d="M352.59,475.78c.74.85,1.48,1.6,2.58,1.92,1.25.36,2.56.59,3.85.81.16.03.36-.03.5-.1.05-.02.25-.14.09-.17-1.22-.21-2.44-.44-3.63-.75s-1.91-1.04-2.67-1.91c-.14-.16-.76.16-.72.19h0Z"/>
    <path class="st31" d="M360.47,490.9c.13-.9.34-1.82.7-2.66.74-1.71,2.34-1.11,3.67-.61,1.78.66,3.46,1.64,5.27,2.2,2.53.78,6.36,1.59,8.11-1.06.15-.23-.56-.13-.66.03-1.43,2.15-4.31,1.44-6.4.86-1.89-.52-3.59-1.53-5.42-2.22-1.31-.49-2.71-1.07-4.08-.44s-1.7,2.65-1.9,4.02c-.03.21.69.08.72-.12h0Z"/>
    <path class="st31" d="M359.01,478.61c.8,1.38,1.65,2.67,3.07,3.47,1.64.92,3.43,1.65,5.16,2.38,1.84.78,3.74,1.43,5.58,2.22,1.66.71,3.18,1.72,4.95,2.16.37.09.72-.44.24-.56-1.76-.43-3.29-1.48-4.95-2.18s-3.41-1.31-5.09-2.02-3.3-1.41-4.9-2.21-2.52-2.06-3.41-3.59c-.18-.3-.86-.02-.66.33h0Z"/>
    <path class="st31" d="M352.74,475.39h0s.03,0,.04.01c-.05-.02-.08-.06-.12-.09-.06-.05-.15-.04-.21-.03-.13.01-.27.05-.39.1-.11.05-.22.11-.3.2-.13.13-.21.28-.26.45-.01.02-.01.03,0,.04.01.02.03.03.05.03.07.02.16,0,.23-.01.09-.02.19-.04.28-.08l.07-.04s.06-.04.08-.07c.04-.14.1-.28.2-.39l-.03.03s.07-.07.12-.1l-.05.04s.03-.02.04-.03c.04-.02-.08.04-.04.02,0,0,.02,0,.02-.01l-.18.06h0c-.06,0-.12.02-.19.03h0s-.09,0-.14,0h0s-.03,0-.04-.01c.03.01.05.04.08.07.03.03.06.05.11.06.07.02.16,0,.23-.01.09-.02.19-.04.28-.08l.07-.04s.06-.04.08-.07v-.03s-.03-.04-.06-.04h0Z"/>
    <path class="st31" d="M352.27,475.72c.22.01.44.04.66.07.09.01.2-.02.28-.05.06-.03.16-.08.19-.15.03-.05.04-.12,0-.17-.05-.05-.13-.07-.2-.08-.22-.03-.44-.06-.66-.07-.09,0-.2.02-.28.05-.06.03-.16.08-.19.15-.03.05-.04.12,0,.17.05.05.13.07.2.08h0Z"/>
    <path class="st31" d="M352.71,475.65c0,.08.04.14.08.2.04.07.09.14.13.21.09.13.19.26.29.39.03.04.08.04.12.04.09,0,.18-.02.26-.04s.17-.05.25-.1c.02-.01.11-.07.09-.1-.1-.13-.2-.26-.29-.39-.04-.07-.09-.13-.13-.2s-.09-.13-.08-.21c0-.04-.12-.04-.12-.04-.09,0-.18.02-.26.04s-.17.05-.25.1c-.04.02-.08.05-.09.1h0Z"/>
    <path class="st31" d="M352.04,476.38c0-.06.01-.12.03-.18v.03c.04-.2.12-.39.25-.55.03-.04-.03-.06-.06-.06-.07-.01-.16,0-.23.01-.09.02-.19.04-.28.08-.05.03-.11.05-.15.1-.17.22-.26.49-.28.76,0,.04.12.04.12.04.09,0,.18-.02.26-.04s.17-.05.25-.1c.04-.02.08-.05.09-.1h0Z"/>
    <path class="st31" d="M351.36,476.41s-.03.07-.03.11c0,.02,0,.03,0,.05,0,.06,0,.11,0,.17,0,.04.03.06.06.08.03.03.06.05.1.06.04.01.09.02.13.02.05,0,.1,0,.15-.02l.09-.03c.05-.03.1-.06.14-.1l.04-.06s.03-.09.02-.13c0,0,0-.01,0-.02v.07c0-.05,0-.11.02-.16l-.02.07s0-.01,0-.02c.02-.03.03-.07.02-.1,0-.03,0-.07-.03-.09-.02-.03-.05-.05-.09-.06-.04-.02-.08-.03-.12-.03h-.09c-.07,0-.13.02-.19.05l-.08.05s-.08.07-.11.12h0Z"/>
    <path class="st31" d="M351.34,476.57c-.02.09-.04.18-.06.27l.72-.16c.01-.1.03-.2.04-.3,0-.02-.02-.03-.04-.03-.03-.01-.05-.02-.08-.02-.04,0-.08,0-.12,0-.05,0-.1.01-.14.03l-.1.03c-.05.02-.1.04-.15.07l-.05.04s-.04.04-.03.07c-.01.1-.03.2-.04.3,0,.02.02.03.04.03.03.01.05.02.08.02.07,0,.15,0,.22-.02.08-.02.16-.04.23-.08l.07-.04s.06-.04.08-.07c.02-.09.04-.18.06-.27.01-.02,0-.03,0-.05-.01-.02-.03-.03-.05-.03-.03,0-.07,0-.1,0-.04,0-.09,0-.13.01-.09.02-.19.04-.28.09l-.07.04s-.06.04-.08.07h0Z"/>
    <path class="st6" d="M340.67,365.85c2.52.2,5.43-.43,7.4-2.09.82-.69,1.5-1.79,1.07-2.88s-1.57-1.69-2.61-2.08c-1.42-.54-2.94-.73-4.45-.61-.28.02-.77.2-.81.53-.05.34.41.39.64.37,1.35-.11,2.74.12,3.99.67.99.44,2.19,1.27,1.85,2.52-.31,1.15-1.69,1.78-2.7,2.16-1.22.46-2.54.61-3.84.51-.32-.03-.79.11-.95.41s.14.47.41.49h0Z"/>
    <path class="st32" d="M317.09,353.5l3.68-1.23c.26-.09.62-.29.79-.51.11-.15.19-.37.02-.51-.2-.17-.52-.2-.76-.19-.39.01-.76.11-1.13.24l-3.68,1.23c-.26.09-.62.29-.79.51-.11.15-.19.37-.02.51.2.17.52.2.76.19.39-.01.76-.11,1.13-.24h0Z"/>
    <path class="st32" d="M336.23,394.54l3.67-1.25c.26-.09.62-.28.8-.5.11-.14.2-.35.03-.48-.2-.16-.52-.18-.76-.17-.39.02-.76.12-1.13.24l-3.67,1.25c-.26.09-.62.28-.8.5-.11.14-.2.35-.03.48.2.16.52.18.76.17.39-.02.76-.12,1.13-.24h0Z"/>
    <path class="st32" d="M343.06,400.84c1.73-.32,3.41-.93,4.86-1.94.2-.14.49-.34.55-.61.05-.23-.09-.42-.29-.51-.29-.13-.64-.14-.95-.1-.37.05-.78.15-1.1.37-.27.19-.54.36-.83.52-.08.04-.15.08-.23.12-.13.07-.08.04.15-.08-.04.02-.08.04-.12.06-.14.07-.28.13-.42.19s-.28.11-.42.17c-.04.01-.08.03-.12.04.28-.09.34-.12.19-.07-.08.03-.17.05-.25.08-.15.04-.29.08-.44.12-.08.02-.17.04-.25.06-.04,0-.09.02-.13.03.29-.06.35-.07.2-.04-.38.07-.76.16-1.1.37-.18.11-.52.36-.55.61-.09.62.83.69,1.25.61h0Z"/>
    <path class="st32" d="M344.33,413l2.04-.67c.16-.05.32-.12.47-.21.12-.06.24-.13.34-.22.1-.09.23-.26.06-.36l-.17-.06c-.19-.03-.37-.03-.56-.01-.39.04-.76.14-1.13.26l-2.04.67c-.16.05-.32.12-.47.21-.12.06-.24.13-.34.22-.1.09-.23.26-.06.36l.17.06c.19.03.37.03.56.01.39-.04.76-.14,1.13-.26h0Z"/>
    <path class="st32" d="M346.36,422.12c1.38-.2,2.76-.62,3.93-1.39.06-.04.3-.17.26-.29s-.3-.12-.37-.12c-.27,0-.54.05-.79.12s-.53.15-.75.29c-.18.12-.36.22-.55.32-.08.04-.05.03.09-.04-.03.01-.05.03-.08.04-.04.02-.08.04-.12.06-.06.03-.11.05-.17.07-.03.01-.06.02-.08.03.17-.07.22-.09.15-.06-.1.04-.2.07-.3.11-.22.07.28-.08.09-.03-.05.01-.1.03-.15.04s-.1.03-.15.04c.22-.05.27-.06.16-.04-.02,0-.04,0-.07.01-.1.02-.51.08-.11.03-.29.04-.57.1-.85.2-.19.07-.46.16-.61.31-.07.07-.18.18-.05.25.15.09.39.06.55.04h0Z"/>
    <path class="st32" d="M357.58,424.7c.54.04,1.08-.06,1.58-.27.2-.08.39-.2.57-.32s.33-.27.47-.43.25-.36.19-.57c-.05-.2-.26-.35-.45-.4-.26-.07-.56-.07-.82,0s-.54.19-.71.41c-.06.07-.12.13-.18.19l.19-.17c-.08.07-.16.12-.25.18l.24-.14c-.08.05-.17.09-.26.12l.28-.1c-.08.03-.17.05-.25.07l.3-.05c-.09.01-.17.02-.26.02h.28s-.08,0-.12,0c-.29-.02-.6.03-.86.16-.13.05-.24.13-.34.22-.1.07-.17.16-.23.27-.08.18-.11.39.03.56.15.17.38.26.61.28h0Z"/>
    <path class="st32" d="M351.95,414.7c1.41-.2,2.79-.55,4.15-1,.19-.06.46-.21.6-.37.08-.1.15-.26.02-.36-.36-.29-1.05-.07-1.42.06-.04.01-.09.03-.13.04.17-.05.21-.07.12-.04-.08.02-.15.05-.23.07-.13.04-.26.08-.39.12-.28.08-.57.15-.86.22-.13.03-.27.05-.4.09.34-.09.07-.02,0,0s-.16.03-.23.05c-.29.05-.58.1-.87.14s-.58.13-.83.27c-.14.07-.38.22-.43.39-.13.43.72.35.9.33h0Z"/>
    <path class="st32" d="M352.1,436.39c1.52.08,2.99-.31,4.3-1.07.35-.2.59-.76.15-1.01-.49-.28-1.1-.1-1.55.16-.1.06-.06.04.1-.05-.03.02-.07.04-.1.05-.05.03-.1.05-.15.08-.12.06-.24.11-.36.16-.09.04-.35.11.02,0-.05.02-.11.04-.16.05-.12.04-.25.07-.38.1-.05.01-.11.03-.16.04-.04,0-.07.02-.11.02.2-.04.25-.04.13-.02-.13.02-.26.04-.39.05s-.26.04-.39.02h.17s-.07,0-.11,0c-.07,0-.15,0-.22,0-.29-.01-.59.04-.86.16-.2.09-.47.27-.57.48-.08.17-.12.38.03.54.15.17.38.25.61.26h0Z"/>
    <path class="st32" d="M362.17,438.72c1.36-.18,2.69-.65,3.86-1.38.16-.1.37-.27.41-.47.03-.17-.07-.33-.23-.4-.47-.22-1.12-.07-1.54.2-.11.07-.23.14-.34.2-.05.03-.11.06-.16.09.31-.18.08-.04,0,0-.22.11-.45.21-.69.29-.03.01-.07.02-.1.04.19-.07.24-.08.16-.05-.06.02-.12.04-.18.06-.12.04-.24.07-.36.1-.07.02-.14.03-.21.05-.03,0-.07.02-.1.02l.19-.04c-.13.04-.29.05-.42.07-.28.04-.58.13-.82.28-.14.09-.39.28-.41.47-.06.49.62.53.94.49h0Z"/>
    <path class="st32" d="M346.19,422.21c1.41-.06,2.85-.45,4.09-1.14.13-.07.38-.2.44-.37.05-.14-.06-.23-.19-.27-.22-.06-.48-.04-.7,0-.28.05-.58.12-.83.26-.11.06-.22.12-.33.17-.06.03-.11.05-.17.08-.07.03-.03.02.13-.05-.03.01-.07.03-.1.04-.11.05-.23.09-.35.13-.08.03-.28.08.08-.02-.06.02-.12.04-.18.05-.11.03-.22.06-.33.09.42-.1-.02,0-.12.02-.05,0-.1.02-.16.02-.04,0-.07,0-.11.01.18-.02.22-.02.11-.01-.12.01-.25.02-.37.02-.28.01-.59.09-.85.19-.18.07-.47.19-.6.35-.08.1-.16.23-.03.33.15.11.39.11.56.1h0Z"/>
    <path class="st32" d="M343.36,413.22l4.69-1.42c.25-.08.52-.16.74-.32.09-.06.29-.21.25-.35-.09-.35-1-.14-1.19-.09l-4.69,1.42c-.25.08-.52.16-.74.32-.09.06-.29.21-.25.35.09.35,1,.14,1.19.09h0Z"/>
    <path class="st32" d="M339.1,388.2c1.66-.26,3.31-.81,4.77-1.64.13-.07.38-.19.44-.36.05-.14-.06-.22-.19-.26-.22-.06-.47-.04-.7,0-.28.05-.58.12-.83.26-.29.16-.58.32-.89.46-.06.03-.33.19-.08.04-.06.04-.13.06-.2.08-.15.06-.31.12-.47.18-.07.02-.13.05-.2.07-.12.04-.09.03.08-.03-.05.01-.09.03-.14.04-.16.05-.32.09-.48.13-.07.02-.14.03-.21.05-.12.03-.09.02.08-.02-.05,0-.09.02-.14.03-.16.03-.33.06-.49.09-.28.04-.58.14-.83.26-.13.06-.38.2-.44.36-.14.39.75.28.88.25h0Z"/>
    <path class="st32" d="M326.76,373.95s.05-.04.07-.06c-.09.07-.1.08-.04.03.04-.03.08-.05.12-.08.05-.03.1-.07.16-.1.03-.02.05-.03.08-.05l-.13.07c.09-.06.19-.09.29-.14.16-.07-.28.11-.04.02.05-.02.1-.04.15-.05.09-.03-.33.1-.09.03.05-.01.26-.06.03-.01s-.01,0,.03,0c.04,0,.26-.04.05-.01s0,0,.05,0c.05,0,.11,0,.16-.01.07,0,.03,0-.12,0,.03,0,.06,0,.09,0,.06,0,.12,0,.18,0,.26,0,.54-.04.79-.11s.53-.16.74-.3c.09-.06.29-.18.26-.31s-.29-.14-.38-.14c-.86-.03-1.7.13-2.51.4-.7.22-1.35.57-1.93,1.01-.1.07-.15.2-.04.28.12.1.42.07.55.06.51-.05,1.05-.2,1.46-.51h0Z"/>
    <path class="st32" d="M327.88,352.23c-.86,0-1.74.16-2.56.44-.26.09-.52.2-.71.41-.12.14-.25.38-.18.58.16.48.86.56,1.28.41.35-.12.71-.22,1.07-.28l-.3.05c.39-.07.79-.1,1.19-.11.26,0,.61-.14.82-.3.16-.12.37-.34.39-.55s-.07-.4-.26-.51c-.23-.14-.47-.15-.74-.15h0Z"/>
    <path class="st8" d="M338.5,376.41l.03.04-.08-.11s.03.07.03.12l.02-.14c-.03.14.02.02.1-.04.25-.21.61-.26.91-.33.2-.08.41-.11.62-.11-.06,0-.12,0-.18,0-.09,0-.18,0-.27,0-.38,0-.76,0-1.14,0-.77,0-1.55,0-2.32,0-.68,0-1.48.15-2.05.55-.13.09-.39.25-.34.44s.38.21.51.21c1.11,0,2.22,0,3.32.01.34,0,.69.02,1.02,0,.55-.04,1.1-.18,1.61-.4.35-.15.72-.33.96-.63.08-.1.14-.19.13-.33,0-.11-.08-.18-.14-.27-.11-.14-.62-.11-.74-.1-.37.03-.78.12-1.13.25-.27.1-.61.22-.81.44-.13.14-.18.23-.05.39h0Z"/>
  </g>
</svg>